<?xml version="1.0" encoding="utf-8"?>
<COLLADA xmlns="http://www.collada.org/2005/11/COLLADASchema" version="1.4.1">
  <asset>
    <contributor>
      <authoring_tool>Fusion URDF/XACRO Exporter</authoring_tool>
    </contributor>
    <created>2026-08-03T06:37:58Z</created>
    <modified>2026-08-03T06:37:58Z</modified>
    <unit name="meter" meter="1.0"/>
    <up_axis>Z_UP</up_axis>
  </asset>
  <library_effects>
    <effect id="Steel_-_Satin-effect">
      <profile_COMMON>
        <technique sid="common">
          <lambert>
            <emission><color>0 0 0 1</color></emission>
            <ambient><color>0.0000 0.0000 0.0000 1</color></ambient>
            <diffuse><color>0.6275 0.6275 0.6275 1</color></diffuse>
            <reflective><color>0 0 0 1</color></reflective>
            <transparent opaque="A_ONE"><color>1 1 1 1</color></transparent>
            <transparency><float>1</float></transparency>
          </lambert>
        </technique>
      </profile_COMMON>
    </effect>
  </library_effects>
  <library_materials>
    <material id="Steel_-_Satin" name="Steel_-_Satin">
      <instance_effect url="#Steel_-_Satin-effect"/>
    </material>
  </library_materials>
  <library_geometries>
    <geometry id="base_link-mesh" name="base_link">
      <mesh>
        <source id="base_link-mesh-positions">
          <float_array id="base_link-mesh-positions-array" count="804">0.105590 0.385000 0.010000 0.274410 0.385000 0.010000 0.273047 0.385000 0.018116 0.270906 0.385000 0.026062 0.268006 0.385000 0.033764 0.264375 0.385000 0.041150 0.260047 0.385000 0.048150 0.255062 0.385000 0.054698 0.249468 0.385000 0.060734 0.243316 0.385000 0.066200 0.236664 0.385000 0.071046 0.229574 0.385000 0.075225 0.222114 0.385000 0.078700 0.214353 0.385000 0.081437 0.206363 0.385000 0.083410 0.198220 0.385000 0.084602 0.190000 0.385000 0.085000 0.181780 0.385000 0.084602 0.173637 0.385000 0.083410 0.165647 0.385000 0.081437 0.157886 0.385000 0.078700 0.150426 0.385000 0.075225 0.143336 0.385000 0.071046 0.136684 0.385000 0.066200 0.130532 0.385000 0.060734 0.124938 0.385000 0.054698 0.119953 0.385000 0.048150 0.115625 0.385000 0.041150 0.111994 0.385000 0.033764 0.109094 0.385000 0.026062 0.106953 0.385000 0.018116 0.105590 0.435000 0.010000 0.274410 0.435000 0.010000 0.273047 0.435000 0.018116 0.270906 0.435000 0.026062 0.268006 0.435000 0.033764 0.264375 0.435000 0.041150 0.260047 0.435000 0.048150 0.255062 0.435000 0.054698 0.249468 0.435000 0.060734 0.243316 0.435000 0.066200 0.236664 0.435000 0.071046 0.229574 0.435000 0.075225 0.222114 0.435000 0.078700 0.214353 0.435000 0.081437 0.206363 0.435000 0.083410 0.198220 0.435000 0.084602 0.190000 0.435000 0.085000 0.181780 0.435000 0.084602 0.173637 0.435000 0.083410 0.165647 0.435000 0.081437 0.157886 0.435000 0.078700 0.150426 0.435000 0.075225 0.143336 0.435000 0.071046 0.136684 0.435000 0.066200 0.130532 0.435000 0.060734 0.124938 0.435000 0.054698 0.119953 0.435000 0.048150 0.115625 0.435000 0.041150 0.111994 0.435000 0.033764 0.109094 0.435000 0.026062 0.106953 0.435000 0.018116 0.010000 0.435000 0.010000 0.010000 0.010000 0.010000 0.105590 0.010000 0.010000 0.105590 0.060000 0.010000 0.274410 0.060000 0.010000 0.274410 0.010000 0.010000 0.370000 0.010000 0.010000 0.370000 0.435000 0.010000 0.106953 0.060000 0.018116 0.109094 0.060000 0.026062 0.111994 0.060000 0.033764 0.115625 0.060000 0.041150 0.119953 0.060000 0.048150 0.124938 0.060000 0.054698 0.130532 0.060000 0.060734 0.136684 0.060000 0.066200 0.143336 0.060000 0.071046 0.150426 0.060000 0.075225 0.157886 0.060000 0.078700 0.165647 0.060000 0.081437 0.173637 0.060000 0.083410 0.181780 0.060000 0.084602 0.190000 0.060000 0.085000 0.198220 0.060000 0.084602 0.206363 0.060000 0.083410 0.214353 0.060000 0.081437 0.222114 0.060000 0.078700 0.229574 0.060000 0.075225 0.236664 0.060000 0.071046 0.243316 0.060000 0.066200 0.249468 0.060000 0.060734 0.255062 0.060000 0.054698 0.260047 0.060000 0.048150 0.264375 0.060000 0.041150 0.268006 0.060000 0.033764 0.270906 0.060000 0.026062 0.273047 0.060000 0.018116 0.106953 0.010000 0.018116 0.109094 0.010000 0.026062 0.111994 0.010000 0.033764 0.115625 0.010000 0.041150 0.119953 0.010000 0.048150 0.124938 0.010000 0.054698 0.130532 0.010000 0.060734 0.136684 0.010000 0.066200 0.143336 0.010000 0.071046 0.150426 0.010000 0.075225 0.157886 0.010000 0.078700 0.165647 0.010000 0.081437 0.173637 0.010000 0.083410 0.181780 0.010000 0.084602 0.190000 0.010000 0.085000 0.198220 0.010000 0.084602 0.206363 0.010000 0.083410 0.214353 0.010000 0.081437 0.222114 0.010000 0.078700 0.229574 0.010000 0.075225 0.236664 0.010000 0.071046 0.243316 0.010000 0.066200 0.249468 0.010000 0.060734 0.255062 0.010000 0.054698 0.260047 0.010000 0.048150 0.264375 0.010000 0.041150 0.268006 0.010000 0.033764 0.270906 0.010000 0.026062 0.273047 0.010000 0.018116 0.370000 0.435000 0.254000 0.010000 0.435000 0.254000 0.370000 0.010000 0.254000 0.010000 0.010000 0.254000 0.265000 0.395000 -0.000000 0.115000 0.395000 0.000000 0.115385 0.395000 0.007588 0.116535 0.395000 0.015097 0.118440 0.395000 0.022452 0.121078 0.395000 0.029577 0.124424 0.395000 0.036398 0.128443 0.395000 0.042845 0.133093 0.395000 0.048853 0.138327 0.395000 0.054359 0.144092 0.395000 0.059308 0.150328 0.395000 0.063648 0.156970 0.395000 0.067335 0.163952 0.395000 0.070331 0.171201 0.395000 0.072606 0.178643 0.395000 0.074135 0.186201 0.395000 0.074904 0.193799 0.395000 0.074904 0.201357 0.395000 0.074135 0.208799 0.395000 0.072606 0.216048 0.395000 0.070331 0.223030 0.395000 0.067335 0.229672 0.395000 0.063648 0.235908 0.395000 0.059308 0.241673 0.395000 0.054359 0.246907 0.395000 0.048853 0.251557 0.395000 0.042845 0.255576 0.395000 0.036398 0.258922 0.395000 0.029577 0.261560 0.395000 0.022452 0.263465 0.395000 0.015097 0.264615 0.395000 0.007588 0.115000 0.445000 0.000000 0.115385 0.445000 0.007588 0.116535 0.445000 0.015097 0.118440 0.445000 0.022452 0.121078 0.445000 0.029577 0.124424 0.445000 0.036398 0.128443 0.445000 0.042845 0.133093 0.445000 0.048853 0.138327 0.445000 0.054359 0.144092 0.445000 0.059308 0.150328 0.445000 0.063648 0.156970 0.445000 0.067335 0.163952 0.445000 0.070331 0.171201 0.445000 0.072606 0.178643 0.445000 0.074135 0.186201 0.445000 0.074904 0.193799 0.445000 0.074904 0.201357 0.445000 0.074135 0.208799 0.445000 0.072606 0.216048 0.445000 0.070331 0.223030 0.445000 0.067335 0.229672 0.445000 0.063648 0.235908 0.445000 0.059308 0.241673 0.445000 0.054359 0.246907 0.445000 0.048853 0.251557 0.445000 0.042845 0.255576 0.445000 0.036398 0.258922 0.445000 0.029577 0.261560 0.445000 0.022452 0.263465 0.445000 0.015097 0.264615 0.445000 0.007588 0.265000 0.445000 -0.000000 0.380000 0.445000 0.000000 0.380000 0.000000 0.000000 0.265000 0.000000 0.000000 0.265000 0.050000 0.000000 0.115000 0.050000 -0.000000 0.115000 0.000000 -0.000000 0.000000 0.000000 0.000000 0.000000 0.445000 0.000000 0.264615 0.050000 0.007588 0.263465 0.050000 0.015097 0.261560 0.050000 0.022452 0.258922 0.050000 0.029577 0.255576 0.050000 0.036398 0.251557 0.050000 0.042845 0.246907 0.050000 0.048853 0.241673 0.050000 0.054359 0.235908 0.050000 0.059308 0.229672 0.050000 0.063648 0.223030 0.050000 0.067335 0.216048 0.050000 0.070331 0.208799 0.050000 0.072606 0.201357 0.050000 0.074135 0.193799 0.050000 0.074904 0.186201 0.050000 0.074904 0.178643 0.050000 0.074135 0.171201 0.050000 0.072606 0.163952 0.050000 0.070331 0.156970 0.050000 0.067335 0.150328 0.050000 0.063648 0.144092 0.050000 0.059308 0.138327 0.050000 0.054359 0.133093 0.050000 0.048853 0.128443 0.050000 0.042845 0.124424 0.050000 0.036398 0.121078 0.050000 0.029577 0.118440 0.050000 0.022452 0.116535 0.050000 0.015097 0.115385 0.050000 0.007588 0.264615 0.000000 0.007588 0.263465 0.000000 0.015097 0.261560 0.000000 0.022452 0.258922 0.000000 0.029577 0.255576 0.000000 0.036398 0.251557 0.000000 0.042845 0.246907 0.000000 0.048853 0.241673 0.000000 0.054359 0.235908 0.000000 0.059308 0.229672 0.000000 0.063648 0.223030 0.000000 0.067335 0.216048 0.000000 0.070331 0.208799 0.000000 0.072606 0.201357 0.000000 0.074135 0.193799 0.000000 0.074904 0.186201 0.000000 0.074904 0.178643 0.000000 0.074135 0.171201 0.000000 0.072606 0.163952 0.000000 0.070331 0.156970 0.000000 0.067335 0.150328 0.000000 0.063648 0.144092 0.000000 0.059308 0.138327 0.000000 0.054359 0.133093 0.000000 0.048853 0.128443 0.000000 0.042845 0.124424 0.000000 0.036398 0.121078 0.000000 0.029577 0.118440 0.000000 0.022452 0.116535 0.000000 0.015097 0.115385 0.000000 0.007588 0.000000 0.445000 0.254000 0.380000 0.445000 0.254000 0.380000 0.000000 0.254000 0.000000 0.000000 0.254000</float_array>
          <technique_common>
            <accessor source="#base_link-mesh-positions-array" count="268" stride="3">
              <param name="X" type="float"/>
              <param name="Y" type="float"/>
              <param name="Z" type="float"/>
            </accessor>
          </technique_common>
        </source>
        <source id="base_link-mesh-normals">
          <float_array id="base_link-mesh-normals-array" count="1704">-0.000000 -1.000000 -0.000000 -0.000000 -1.000000 -0.000000 -0.000000 -1.000000 -0.000000 -0.000000 -1.000000 -0.000000 -0.000000 -1.000000 -0.000000 -0.000000 -1.000000 -0.000000 -0.000000 -1.000000 -0.000000 -0.000000 -1.000000 -0.000000 -0.000000 -1.000000 -0.000000 -0.000000 -1.000000 -0.000000 -0.000000 -1.000000 -0.000000 -0.000000 -1.000000 -0.000000 -0.000000 -1.000000 -0.000000 -0.000000 -1.000000 -0.000000 -0.000000 -1.000000 -0.000000 -0.000000 -1.000000 -0.000000 -0.000000 -1.000000 -0.000000 -0.000000 -1.000000 -0.000000 -0.000000 -1.000000 -0.000000 -0.000000 -1.000000 -0.000000 -0.000000 -1.000000 -0.000000 -0.000000 -1.000000 -0.000000 -0.000000 -1.000000 -0.000000 -0.000000 -1.000000 -0.000000 -0.000000 -1.000000 -0.000000 -0.000000 -1.000000 -0.000000 -0.000000 -1.000000 -0.000000 -0.000000 -1.000000 -0.000000 -0.000000 -1.000000 -0.000000 -0.000000 -1.000000 -0.000000 -0.000000 -1.000000 -0.000000 -0.993055 -0.000000 0.117647 -0.993055 -0.000000 0.117647 -0.977024 -0.000000 0.213131 -0.977024 -0.000000 0.213131 -0.951833 -0.000000 0.306617 -0.951833 -0.000000 0.306617 -0.917720 -0.000000 0.397229 -0.917720 -0.000000 0.397229 -0.875003 -0.000000 0.484117 -0.875003 -0.000000 0.484117 -0.824084 -0.000000 0.566467 -0.824084 -0.000000 0.566467 -0.765441 -0.000000 0.643507 -0.765441 -0.000000 0.643507 -0.699621 -0.000000 0.714514 -0.699621 -0.000000 0.714514 -0.627244 -0.000000 0.778823 -0.627244 -0.000000 0.778823 -0.548986 -0.000000 0.835832 -0.548986 -0.000000 0.835832 -0.465582 -0.000000 0.885005 -0.465582 -0.000000 0.885005 -0.377814 -0.000000 0.925882 -0.377814 -0.000000 0.925882 -0.286503 -0.000000 0.958079 -0.286503 -0.000000 0.958079 -0.192508 -0.000000 0.981295 -0.192508 -0.000000 0.981295 -0.096707 -0.000000 0.995313 -0.096707 -0.000000 0.995313 -0.000000 -0.000000 1.000000 -0.000000 -0.000000 1.000000 0.096707 0.000000 0.995313 0.096707 0.000000 0.995313 0.192508 0.000000 0.981295 0.192508 0.000000 0.981295 0.286503 0.000000 0.958079 0.286503 0.000000 0.958079 0.377814 0.000000 0.925882 0.377814 0.000000 0.925882 0.465582 0.000000 0.885005 0.465582 0.000000 0.885005 0.548986 0.000000 0.835832 0.548986 0.000000 0.835832 0.627244 0.000000 0.778823 0.627244 0.000000 0.778823 0.699621 0.000000 0.714514 0.699621 0.000000 0.714514 0.765441 0.000000 0.643507 0.765441 0.000000 0.643507 0.824084 0.000000 0.566467 0.824084 0.000000 0.566467 0.875003 0.000000 0.484117 0.875003 0.000000 0.484117 0.917720 0.000000 0.397229 0.917720 0.000000 0.397229 0.951833 0.000000 0.306617 0.951833 0.000000 0.306617 0.977024 0.000000 0.213131 0.977024 0.000000 0.213131 0.993055 0.000000 0.117647 0.993055 0.000000 0.117647 0.000000 0.000000 1.000000 0.000000 0.000000 1.000000 0.000000 0.000000 1.000000 0.000000 0.000000 1.000000 0.000000 0.000000 1.000000 0.000000 0.000000 1.000000 0.000000 0.000000 1.000000 0.000000 0.000000 1.000000 0.000000 0.000000 1.000000 0.000000 0.000000 1.000000 0.000000 0.000000 1.000000 0.000000 0.000000 1.000000 -0.000000 1.000000 -0.000000 -0.000000 1.000000 -0.000000 -0.000000 1.000000 -0.000000 -0.000000 1.000000 -0.000000 -0.000000 1.000000 -0.000000 -0.000000 1.000000 -0.000000 -0.000000 1.000000 -0.000000 -0.000000 1.000000 -0.000000 -0.000000 1.000000 -0.000000 -0.000000 1.000000 -0.000000 -0.000000 1.000000 -0.000000 -0.000000 1.000000 -0.000000 -0.000000 1.000000 -0.000000 -0.000000 1.000000 -0.000000 -0.000000 1.000000 -0.000000 -0.000000 1.000000 -0.000000 -0.000000 1.000000 -0.000000 -0.000000 1.000000 -0.000000 -0.000000 1.000000 -0.000000 -0.000000 1.000000 -0.000000 -0.000000 1.000000 -0.000000 -0.000000 1.000000 -0.000000 -0.000000 1.000000 -0.000000 -0.000000 1.000000 -0.000000 -0.000000 1.000000 -0.000000 -0.000000 1.000000 -0.000000 -0.000000 1.000000 -0.000000 -0.000000 1.000000 -0.000000 -0.000000 1.000000 -0.000000 -0.000000 1.000000 -0.000000 -0.000000 1.000000 -0.000000 0.993055 -0.000000 0.117647 0.993055 -0.000000 0.117647 0.977024 -0.000000 0.213131 0.977024 -0.000000 0.213131 0.951833 -0.000000 0.306617 0.951833 -0.000000 0.306617 0.917720 -0.000000 0.397229 0.917720 -0.000000 0.397229 0.875003 -0.000000 0.484117 0.875003 -0.000000 0.484117 0.824084 -0.000000 0.566467 0.824084 -0.000000 0.566467 0.765441 -0.000000 0.643507 0.765441 -0.000000 0.643507 0.699621 -0.000000 0.714514 0.699621 -0.000000 0.714514 0.627244 -0.000000 0.778823 0.627244 -0.000000 0.778823 0.548986 -0.000000 0.835832 0.548986 -0.000000 0.835832 0.465582 -0.000000 0.885005 0.465582 -0.000000 0.885005 0.377814 -0.000000 0.925882 0.377814 -0.000000 0.925882 0.286503 -0.000000 0.958079 0.286503 -0.000000 0.958079 0.192508 -0.000000 0.981295 0.192508 -0.000000 0.981295 0.096707 -0.000000 0.995313 0.096707 -0.000000 0.995313 0.000000 -0.000000 1.000000 0.000000 -0.000000 1.000000 -0.096707 -0.000000 0.995313 -0.096707 -0.000000 0.995313 -0.192508 -0.000000 0.981295 -0.192508 -0.000000 0.981295 -0.286503 -0.000000 0.958079 -0.286503 -0.000000 0.958079 -0.377814 -0.000000 0.925882 -0.377814 -0.000000 0.925882 -0.465582 -0.000000 0.885005 -0.465582 -0.000000 0.885005 -0.548986 -0.000000 0.835832 -0.548986 -0.000000 0.835832 -0.627244 -0.000000 0.778823 -0.627244 -0.000000 0.778823 -0.699621 -0.000000 0.714514 -0.699621 -0.000000 0.714514 -0.765441 -0.000000 0.643507 -0.765441 -0.000000 0.643507 -0.824084 -0.000000 0.566467 -0.824084 -0.000000 0.566467 -0.875003 -0.000000 0.484117 -0.875003 -0.000000 0.484117 -0.917720 -0.000000 0.397229 -0.917720 -0.000000 0.397229 -0.951833 -0.000000 0.306617 -0.951833 -0.000000 0.306617 -0.977024 -0.000000 0.213131 -0.977024 -0.000000 0.213131 -0.993055 -0.000000 0.117647 -0.993055 -0.000000 0.117647 -0.000000 -1.000000 0.000000 -0.000000 -1.000000 0.000000 -0.000000 -1.000000 0.000000 -0.000000 -1.000000 0.000000 -0.000000 -1.000000 0.000000 -0.000000 -1.000000 0.000000 -0.000000 -1.000000 0.000000 -0.000000 -1.000000 0.000000 -0.000000 -1.000000 0.000000 -0.000000 -1.000000 0.000000 -0.000000 -1.000000 0.000000 -0.000000 -1.000000 0.000000 -0.000000 -1.000000 0.000000 -0.000000 -1.000000 0.000000 -0.000000 -1.000000 0.000000 -0.000000 -1.000000 0.000000 -0.000000 -1.000000 0.000000 -0.000000 -1.000000 0.000000 -0.000000 -1.000000 0.000000 -0.000000 -1.000000 0.000000 -0.000000 -1.000000 0.000000 -0.000000 -1.000000 0.000000 -0.000000 -1.000000 0.000000 -0.000000 -1.000000 0.000000 -0.000000 -1.000000 0.000000 -0.000000 -1.000000 0.000000 -0.000000 -1.000000 0.000000 -0.000000 -1.000000 0.000000 -0.000000 -1.000000 0.000000 -0.000000 -1.000000 0.000000 -0.000000 -1.000000 0.000000 -0.000000 -1.000000 0.000000 -0.000000 -1.000000 0.000000 -0.000000 -1.000000 0.000000 -0.000000 -1.000000 0.000000 -1.000000 -0.000000 -0.000000 -1.000000 -0.000000 -0.000000 -1.000000 -0.000000 -0.000000 -1.000000 -0.000000 -0.000000 -0.000000 1.000000 -0.000000 -0.000000 1.000000 -0.000000 -0.000000 1.000000 -0.000000 -0.000000 1.000000 -0.000000 -0.000000 1.000000 -0.000000 -0.000000 1.000000 -0.000000 -0.000000 1.000000 -0.000000 -0.000000 1.000000 -0.000000 -0.000000 1.000000 -0.000000 -0.000000 1.000000 -0.000000 -0.000000 1.000000 -0.000000 -0.000000 1.000000 -0.000000 -0.000000 1.000000 -0.000000 -0.000000 1.000000 -0.000000 -0.000000 1.000000 -0.000000 -0.000000 1.000000 -0.000000 -0.000000 1.000000 -0.000000 -0.000000 1.000000 -0.000000 -0.000000 1.000000 -0.000000 -0.000000 1.000000 -0.000000 -0.000000 1.000000 -0.000000 -0.000000 1.000000 -0.000000 -0.000000 1.000000 -0.000000 -0.000000 1.000000 -0.000000 -0.000000 1.000000 -0.000000 -0.000000 1.000000 -0.000000 -0.000000 1.000000 -0.000000 -0.000000 1.000000 -0.000000 -0.000000 1.000000 -0.000000 -0.000000 1.000000 -0.000000 -0.000000 1.000000 -0.000000 -0.000000 1.000000 -0.000000 -0.000000 1.000000 -0.000000 -0.000000 1.000000 -0.000000 -0.000000 1.000000 -0.000000 1.000000 -0.000000 -0.000000 1.000000 -0.000000 -0.000000 1.000000 -0.000000 -0.000000 1.000000 -0.000000 -0.000000 0.000000 1.000000 0.000000 0.000000 1.000000 0.000000 0.000000 1.000000 0.000000 0.000000 1.000000 0.000000 0.000000 1.000000 0.000000 0.000000 1.000000 0.000000 0.000000 1.000000 0.000000 0.000000 1.000000 0.000000 0.000000 1.000000 0.000000 0.000000 1.000000 0.000000 0.000000 1.000000 0.000000 0.000000 1.000000 0.000000 0.000000 1.000000 0.000000 0.000000 1.000000 0.000000 0.000000 1.000000 0.000000 0.000000 1.000000 0.000000 0.000000 1.000000 0.000000 0.000000 1.000000 0.000000 0.000000 1.000000 0.000000 0.000000 1.000000 0.000000 0.000000 1.000000 0.000000 0.000000 1.000000 0.000000 0.000000 1.000000 0.000000 0.000000 1.000000 0.000000 0.000000 1.000000 0.000000 0.000000 1.000000 0.000000 0.000000 1.000000 0.000000 0.000000 1.000000 0.000000 0.000000 1.000000 0.000000 0.000000 1.000000 0.000000 0.000000 1.000000 0.000000 0.000000 1.000000 0.000000 1.000000 0.000000 0.000000 1.000000 0.000000 0.000000 0.994869 0.000000 -0.101168 0.994869 0.000000 -0.101168 0.979530 0.000000 -0.201299 0.979530 0.000000 -0.201299 0.954139 0.000000 -0.299363 0.954139 0.000000 -0.299363 0.918958 0.000000 -0.394356 0.918958 0.000000 -0.394356 0.874347 0.000000 -0.485302 0.874347 0.000000 -0.485302 0.820763 0.000000 -0.571268 0.820763 0.000000 -0.571268 0.758758 0.000000 -0.651372 0.758758 0.000000 -0.651372 0.688967 0.000000 -0.724793 0.688967 0.000000 -0.724793 0.612106 0.000000 -0.790776 0.612106 0.000000 -0.790776 0.528964 0.000000 -0.848644 0.528964 0.000000 -0.848644 0.440394 0.000000 -0.897805 0.440394 0.000000 -0.897805 0.347305 0.000000 -0.937752 0.347305 0.000000 -0.937752 0.250653 0.000000 -0.968077 0.250653 0.000000 -0.968077 0.151428 0.000000 -0.988468 0.151428 0.000000 -0.988468 0.050649 0.000000 -0.998717 0.050649 0.000000 -0.998717 -0.050649 -0.000000 -0.998717 -0.050649 -0.000000 -0.998717 -0.151428 -0.000000 -0.988468 -0.151428 -0.000000 -0.988468 -0.250653 -0.000000 -0.968077 -0.250653 -0.000000 -0.968077 -0.347305 -0.000000 -0.937752 -0.347305 -0.000000 -0.937752 -0.440394 -0.000000 -0.897805 -0.440394 -0.000000 -0.897805 -0.528964 -0.000000 -0.848644 -0.528964 -0.000000 -0.848644 -0.612106 -0.000000 -0.790776 -0.612106 -0.000000 -0.790776 -0.688967 -0.000000 -0.724793 -0.688967 -0.000000 -0.724793 -0.758758 -0.000000 -0.651372 -0.758758 -0.000000 -0.651372 -0.820763 -0.000000 -0.571268 -0.820763 -0.000000 -0.571268 -0.874347 -0.000000 -0.485302 -0.874347 -0.000000 -0.485302 -0.918958 -0.000000 -0.394356 -0.918958 -0.000000 -0.394356 -0.954139 -0.000000 -0.299363 -0.954139 -0.000000 -0.299363 -0.979530 -0.000000 -0.201299 -0.979530 -0.000000 -0.201299 -0.994869 -0.000000 -0.101168 -0.994869 -0.000000 -0.101168 -1.000000 -0.000000 -0.000000 -1.000000 -0.000000 -0.000000 -0.000000 -0.000000 -1.000000 -0.000000 -0.000000 -1.000000 -0.000000 -0.000000 -1.000000 -0.000000 -0.000000 -1.000000 -0.000000 -0.000000 -1.000000 -0.000000 -0.000000 -1.000000 -0.000000 -0.000000 -1.000000 -0.000000 -0.000000 -1.000000 -0.000000 -0.000000 -1.000000 -0.000000 -0.000000 -1.000000 -0.000000 -0.000000 -1.000000 -0.000000 -0.000000 -1.000000 0.000000 -1.000000 0.000000 0.000000 -1.000000 0.000000 0.000000 -1.000000 0.000000 0.000000 -1.000000 0.000000 0.000000 -1.000000 0.000000 0.000000 -1.000000 0.000000 0.000000 -1.000000 0.000000 0.000000 -1.000000 0.000000 0.000000 -1.000000 0.000000 0.000000 -1.000000 0.000000 0.000000 -1.000000 0.000000 0.000000 -1.000000 0.000000 0.000000 -1.000000 0.000000 0.000000 -1.000000 0.000000 0.000000 -1.000000 0.000000 0.000000 -1.000000 0.000000 0.000000 -1.000000 0.000000 0.000000 -1.000000 0.000000 0.000000 -1.000000 0.000000 0.000000 -1.000000 0.000000 0.000000 -1.000000 0.000000 0.000000 -1.000000 0.000000 0.000000 -1.000000 0.000000 0.000000 -1.000000 0.000000 0.000000 -1.000000 0.000000 0.000000 -1.000000 0.000000 0.000000 -1.000000 0.000000 0.000000 -1.000000 0.000000 0.000000 -1.000000 0.000000 0.000000 -1.000000 0.000000 0.000000 -1.000000 0.000000 0.000000 -1.000000 0.000000 -1.000000 0.000000 0.000000 -1.000000 0.000000 0.000000 -0.994869 0.000000 -0.101168 -0.994869 0.000000 -0.101168 -0.979530 0.000000 -0.201299 -0.979530 0.000000 -0.201299 -0.954139 0.000000 -0.299363 -0.954139 0.000000 -0.299363 -0.918958 0.000000 -0.394356 -0.918958 0.000000 -0.394356 -0.874347 0.000000 -0.485302 -0.874347 0.000000 -0.485302 -0.820763 0.000000 -0.571268 -0.820763 0.000000 -0.571268 -0.758758 0.000000 -0.651372 -0.758758 0.000000 -0.651372 -0.688967 0.000000 -0.724793 -0.688967 0.000000 -0.724793 -0.612106 0.000000 -0.790776 -0.612106 0.000000 -0.790776 -0.528964 0.000000 -0.848644 -0.528964 0.000000 -0.848644 -0.440394 0.000000 -0.897805 -0.440394 0.000000 -0.897805 -0.347305 0.000000 -0.937752 -0.347305 0.000000 -0.937752 -0.250653 0.000000 -0.968077 -0.250653 0.000000 -0.968077 -0.151428 0.000000 -0.988468 -0.151428 0.000000 -0.988468 -0.050649 0.000000 -0.998717 -0.050649 0.000000 -0.998717 0.050649 0.000000 -0.998717 0.050649 0.000000 -0.998717 0.151428 0.000000 -0.988468 0.151428 0.000000 -0.988468 0.250653 0.000000 -0.968077 0.250653 0.000000 -0.968077 0.347305 0.000000 -0.937752 0.347305 0.000000 -0.937752 0.440394 0.000000 -0.897805 0.440394 0.000000 -0.897805 0.528964 0.000000 -0.848644 0.528964 0.000000 -0.848644 0.612106 0.000000 -0.790776 0.612106 0.000000 -0.790776 0.688967 0.000000 -0.724793 0.688967 0.000000 -0.724793 0.758758 0.000000 -0.651372 0.758758 0.000000 -0.651372 0.820763 0.000000 -0.571268 0.820763 0.000000 -0.571268 0.874347 0.000000 -0.485302 0.874347 0.000000 -0.485302 0.918958 0.000000 -0.394356 0.918958 0.000000 -0.394356 0.954139 0.000000 -0.299363 0.954139 0.000000 -0.299363 0.979530 0.000000 -0.201299 0.979530 0.000000 -0.201299 0.994869 0.000000 -0.101168 0.994869 0.000000 -0.101168 1.000000 0.000000 -0.000000 1.000000 0.000000 -0.000000 0.000000 1.000000 -0.000000 0.000000 1.000000 -0.000000 0.000000 1.000000 -0.000000 0.000000 1.000000 -0.000000 0.000000 1.000000 -0.000000 0.000000 1.000000 -0.000000 0.000000 1.000000 -0.000000 0.000000 1.000000 -0.000000 0.000000 1.000000 -0.000000 0.000000 1.000000 -0.000000 0.000000 1.000000 -0.000000 0.000000 1.000000 -0.000000 0.000000 1.000000 -0.000000 0.000000 1.000000 -0.000000 0.000000 1.000000 -0.000000 0.000000 1.000000 -0.000000 0.000000 1.000000 -0.000000 0.000000 1.000000 -0.000000 0.000000 1.000000 -0.000000 0.000000 1.000000 -0.000000 0.000000 1.000000 -0.000000 0.000000 1.000000 -0.000000 0.000000 1.000000 -0.000000 0.000000 1.000000 -0.000000 0.000000 1.000000 -0.000000 0.000000 1.000000 -0.000000 0.000000 1.000000 -0.000000 0.000000 1.000000 -0.000000 0.000000 1.000000 -0.000000 0.000000 1.000000 -0.000000 0.000000 1.000000 -0.000000 0.000000 1.000000 -0.000000 0.000000 1.000000 -0.000000 0.000000 1.000000 -0.000000 0.000000 1.000000 -0.000000 0.000000 1.000000 -0.000000 1.000000 0.000000 0.000000 1.000000 0.000000 0.000000 1.000000 0.000000 0.000000 1.000000 0.000000 0.000000 0.000000 -1.000000 0.000000 0.000000 -1.000000 0.000000 0.000000 -1.000000 0.000000 0.000000 -1.000000 0.000000 0.000000 -1.000000 0.000000 0.000000 -1.000000 0.000000 0.000000 -1.000000 0.000000 0.000000 -1.000000 0.000000 0.000000 -1.000000 0.000000 0.000000 -1.000000 0.000000 0.000000 -1.000000 0.000000 0.000000 -1.000000 0.000000 0.000000 -1.000000 0.000000 0.000000 -1.000000 0.000000 0.000000 -1.000000 0.000000 0.000000 -1.000000 0.000000 0.000000 -1.000000 0.000000 0.000000 -1.000000 0.000000 0.000000 -1.000000 0.000000 0.000000 -1.000000 0.000000 0.000000 -1.000000 0.000000 0.000000 -1.000000 0.000000 0.000000 -1.000000 0.000000 0.000000 -1.000000 0.000000 0.000000 -1.000000 0.000000 0.000000 -1.000000 0.000000 0.000000 -1.000000 0.000000 0.000000 -1.000000 0.000000 0.000000 -1.000000 0.000000 0.000000 -1.000000 0.000000 0.000000 -1.000000 0.000000 0.000000 -1.000000 0.000000 0.000000 -1.000000 0.000000 0.000000 -1.000000 0.000000 0.000000 -1.000000 0.000000 0.000000 -1.000000 0.000000 -1.000000 0.000000 0.000000 -1.000000 0.000000 0.000000 -1.000000 0.000000 0.000000 -1.000000 0.000000 0.000000 0.000000 0.000000 1.000000 0.000000 0.000000 1.000000 0.000000 0.000000 1.000000 0.000000 0.000000 1.000000 0.000000 0.000000 1.000000 0.000000 0.000000 1.000000 0.000000 0.000000 1.000000 0.000000 0.000000 1.000000</float_array>
          <technique_common>
            <accessor source="#base_link-mesh-normals-array" count="568" stride="3">
              <param name="X" type="float"/>
              <param name="Y" type="float"/>
              <param name="Z" type="float"/>
            </accessor>
          </technique_common>
        </source>
        <vertices id="base_link-mesh-vertices">
          <input semantic="POSITION" source="#base_link-mesh-positions"/>
        </vertices>
        <triangles material="Steel_-_Satin" count="532">
          <input semantic="VERTEX" source="#base_link-mesh-vertices" offset="0"/>
          <input semantic="NORMAL" source="#base_link-mesh-normals" offset="1"/>
          <p>0 0 1 1 30 2 30 2 1 1 2 3 30 2 2 3 29 4 29 4 2 3 3 5 29 4 3 5 28 6 28 6 3 5 4 7 28 6 4 7 27 8 27 8 4 7 5 9 27 8 5 9 26 10 26 10 5 9 6 11 26 10 6 11 25 12 25 12 6 11 7 13 25 12 7 13 24 14 24 14 7 13 8 15 24 14 8 15 23 16 23 16 8 15 9 17 23 16 9 17 22 18 22 18 9 17 10 19 22 18 10 19 21 20 21 20 10 19 11 21 21 20 11 21 20 22 20 22 11 21 12 23 20 22 12 23 19 24 19 24 12 23 13 25 19 24 13 25 18 26 18 26 13 25 14 27 18 26 14 27 17 28 17 28 14 27 15 29 17 28 15 29 16 30 31 31 0 32 61 33 61 33 0 32 30 34 61 33 30 34 60 35 60 35 30 34 29 36 60 35 29 36 59 37 59 37 29 36 28 38 59 37 28 38 58 39 58 39 28 38 27 40 58 39 27 40 57 41 57 41 27 40 26 42 57 41 26 42 56 43 56 43 26 42 25 44 56 43 25 44 55 45 55 45 25 44 24 46 55 45 24 46 54 47 54 47 24 46 23 48 54 47 23 48 53 49 53 49 23 48 22 50 53 49 22 50 52 51 52 51 22 50 21 52 52 51 21 52 51 53 51 53 21 52 20 54 51 53 20 54 50 55 50 55 20 54 19 56 50 55 19 56 49 57 49 57 19 56 18 58 49 57 18 58 48 59 48 59 18 58 17 60 48 59 17 60 47 61 47 61 17 60 16 62 47 61 16 62 46 63 46 63 16 62 15 64 46 63 15 64 45 65 45 65 15 64 14 66 45 65 14 66 44 67 44 67 14 66 13 68 44 67 13 68 43 69 43 69 13 68 12 70 43 69 12 70 42 71 42 71 12 70 11 72 42 71 11 72 41 73 41 73 11 72 10 74 41 73 10 74 40 75 40 75 10 74 9 76 40 75 9 76 39 77 39 77 9 76 8 78 39 77 8 78 38 79 38 79 8 78 7 80 38 79 7 80 37 81 37 81 7 80 6 82 37 81 6 82 36 83 36 83 6 82 5 84 36 83 5 84 35 85 35 85 5 84 4 86 35 85 4 86 34 87 34 87 4 86 3 88 34 87 3 88 33 89 33 89 3 88 2 90 33 89 2 90 32 91 32 91 2 90 1 92 31 93 62 94 0 95 0 95 62 94 63 96 0 95 63 96 65 97 65 97 63 96 64 98 65 97 66 99 0 95 0 95 66 99 1 100 1 100 66 99 68 101 1 100 68 101 69 102 66 99 67 103 68 101 69 102 32 104 1 100 66 105 65 106 98 107 98 107 65 106 70 108 98 107 70 108 97 109 97 109 70 108 71 110 97 109 71 110 96 111 96 111 71 110 72 112 96 111 72 112 95 113 95 113 72 112 73 114 95 113 73 114 94 115 94 115 73 114 74 116 94 115 74 116 93 117 93 117 74 116 75 118 93 117 75 118 92 119 92 119 75 118 76 120 92 119 76 120 91 121 91 121 76 120 77 122 91 121 77 122 90 123 90 123 77 122 78 124 90 123 78 124 89 125 89 125 78 124 79 126 89 125 79 126 88 127 88 127 79 126 80 128 88 127 80 128 87 129 87 129 80 128 81 130 87 129 81 130 86 131 86 131 81 130 82 132 86 131 82 132 85 133 85 133 82 132 83 134 85 133 83 134 84 135 67 136 66 137 127 138 127 138 66 137 98 139 127 138 98 139 126 140 126 140 98 139 97 141 126 140 97 141 125 142 125 142 97 141 96 143 125 142 96 143 124 144 124 144 96 143 95 145 124 144 95 145 123 146 123 146 95 145 94 147 123 146 94 147 122 148 122 148 94 147 93 149 122 148 93 149 121 150 121 150 93 149 92 151 121 150 92 151 120 152 120 152 92 151 91 153 120 152 91 153 119 154 119 154 91 153 90 155 119 154 90 155 118 156 118 156 90 155 89 157 118 156 89 157 117 158 117 158 89 157 88 159 117 158 88 159 116 160 116 160 88 159 87 161 116 160 87 161 115 162 115 162 87 161 86 163 115 162 86 163 114 164 114 164 86 163 85 165 114 164 85 165 113 166 113 166 85 165 84 167 113 166 84 167 112 168 112 168 84 167 83 169 112 168 83 169 111 170 111 170 83 169 82 171 111 170 82 171 110 172 110 172 82 171 81 173 110 172 81 173 109 174 109 174 81 173 80 175 109 174 80 175 108 176 108 176 80 175 79 177 108 176 79 177 107 178 107 178 79 177 78 179 107 178 78 179 106 180 106 180 78 179 77 181 106 180 77 181 105 182 105 182 77 181 76 183 105 182 76 183 104 184 104 184 76 183 75 185 104 184 75 185 103 186 103 186 75 185 74 187 103 186 74 187 102 188 102 188 74 187 73 189 102 188 73 189 101 190 101 190 73 189 72 191 101 190 72 191 100 192 100 192 72 191 71 193 100 192 71 193 99 194 99 194 71 193 70 195 99 194 70 195 64 196 64 196 70 195 65 197 31 198 61 199 62 200 62 200 61 199 60 201 62 200 60 201 59 202 59 202 58 203 62 200 62 200 58 203 57 204 62 200 57 204 56 205 56 205 55 206 62 200 62 200 55 206 129 207 129 207 55 206 54 208 129 207 54 208 53 209 53 209 52 210 129 207 129 207 52 210 51 211 129 207 51 211 50 212 50 212 49 213 129 207 129 207 49 213 48 214 129 207 48 214 47 215 129 207 47 215 128 216 128 216 47 215 46 217 128 216 46 217 45 218 45 218 44 219 128 216 128 216 44 219 43 220 128 216 43 220 42 221 42 221 41 222 128 216 128 216 41 222 40 223 128 216 40 223 39 224 128 216 39 224 69 225 69 225 39 224 38 226 69 225 38 226 37 227 37 227 36 228 69 225 69 225 36 228 35 229 69 225 35 229 34 230 34 230 33 231 69 225 69 225 33 231 32 232 69 233 68 234 128 235 128 235 68 234 130 236 67 237 127 238 68 239 68 239 127 238 126 240 68 239 126 240 125 241 125 241 124 242 68 239 68 239 124 242 123 243 68 239 123 243 122 244 122 244 121 245 68 239 68 239 121 245 130 246 130 246 121 245 120 247 130 246 120 247 119 248 119 248 118 249 130 246 130 246 118 249 117 250 130 246 117 250 116 251 116 251 115 252 130 246 130 246 115 252 114 253 130 246 114 253 113 254 130 246 113 254 131 255 131 255 113 254 112 256 131 255 112 256 111 257 111 257 110 258 131 255 131 255 110 258 109 259 131 255 109 259 108 260 108 260 107 261 131 255 131 255 107 261 106 262 131 255 106 262 105 263 131 255 105 263 63 264 63 264 105 263 104 265 63 264 104 265 103 266 103 266 102 267 63 264 63 264 102 267 101 268 63 264 101 268 100 269 100 269 99 270 63 264 63 264 99 270 64 271 63 272 62 273 131 274 131 274 62 273 129 275 132 276 133 277 163 278 163 278 133 277 134 279 163 278 134 279 162 280 162 280 134 279 135 281 162 280 135 281 161 282 161 282 135 281 136 283 161 282 136 283 160 284 160 284 136 283 137 285 160 284 137 285 159 286 159 286 137 285 138 287 159 286 138 287 158 288 158 288 138 287 139 289 158 288 139 289 157 290 157 290 139 289 140 291 157 290 140 291 156 292 156 292 140 291 141 293 156 292 141 293 155 294 155 294 141 293 142 295 155 294 142 295 154 296 154 296 142 295 143 297 154 296 143 297 153 298 153 298 143 297 144 299 153 298 144 299 152 300 152 300 144 299 145 301 152 300 145 301 151 302 151 302 145 301 146 303 151 302 146 303 150 304 150 304 146 303 147 305 150 304 147 305 149 306 149 306 147 305 148 307 133 308 164 309 134 310 134 310 164 309 165 311 134 310 165 311 135 312 135 312 165 311 166 313 135 312 166 313 136 314 136 314 166 313 167 315 136 314 167 315 137 316 137 316 167 315 168 317 137 316 168 317 138 318 138 318 168 317 169 319 138 318 169 319 139 320 139 320 169 319 170 321 139 320 170 321 140 322 140 322 170 321 171 323 140 322 171 323 141 324 141 324 171 323 172 325 141 324 172 325 142 326 142 326 172 325 173 327 142 326 173 327 143 328 143 328 173 327 174 329 143 328 174 329 144 330 144 330 174 329 175 331 144 330 175 331 145 332 145 332 175 331 176 333 145 332 176 333 146 334 146 334 176 333 177 335 146 334 177 335 147 336 147 336 177 335 178 337 147 336 178 337 148 338 148 338 178 337 179 339 148 338 179 339 149 340 149 340 179 339 180 341 149 340 180 341 150 342 150 342 180 341 181 343 150 342 181 343 151 344 151 344 181 343 182 345 151 344 182 345 152 346 152 346 182 345 183 347 152 346 183 347 153 348 153 348 183 347 184 349 153 348 184 349 154 350 154 350 184 349 185 351 154 350 185 351 155 352 155 352 185 351 186 353 155 352 186 353 156 354 156 354 186 353 187 355 156 354 187 355 157 356 157 356 187 355 188 357 157 356 188 357 158 358 158 358 188 357 189 359 158 358 189 359 159 360 159 360 189 359 190 361 159 360 190 361 160 362 160 362 190 361 191 363 160 362 191 363 161 364 161 364 191 363 192 365 161 364 192 365 162 366 162 366 192 365 193 367 162 366 193 367 163 368 163 368 193 367 194 369 163 368 194 369 132 370 132 370 194 369 195 371 164 372 133 373 203 374 203 374 133 373 202 375 202 375 133 373 200 376 202 375 200 376 201 377 133 373 132 378 200 376 200 376 132 378 199 379 199 379 132 378 197 380 199 379 197 380 198 381 195 382 196 383 132 378 132 378 196 383 197 380 200 384 199 385 233 386 233 386 199 385 204 387 233 386 204 387 232 388 232 388 204 387 205 389 232 388 205 389 231 390 231 390 205 389 206 391 231 390 206 391 230 392 230 392 206 391 207 393 230 392 207 393 229 394 229 394 207 393 208 395 229 394 208 395 228 396 228 396 208 395 209 397 228 396 209 397 227 398 227 398 209 397 210 399 227 398 210 399 226 400 226 400 210 399 211 401 226 400 211 401 225 402 225 402 211 401 212 403 225 402 212 403 224 404 224 404 212 403 213 405 224 404 213 405 223 406 223 406 213 405 214 407 223 406 214 407 222 408 222 408 214 407 215 409 222 408 215 409 221 410 221 410 215 409 216 411 221 410 216 411 220 412 220 412 216 411 217 413 220 412 217 413 219 414 219 414 217 413 218 415 199 416 198 417 204 418 204 418 198 417 234 419 204 418 234 419 205 420 205 420 234 419 235 421 205 420 235 421 206 422 206 422 235 421 236 423 206 422 236 423 207 424 207 424 236 423 237 425 207 424 237 425 208 426 208 426 237 425 238 427 208 426 238 427 209 428 209 428 238 427 239 429 209 428 239 429 210 430 210 430 239 429 240 431 210 430 240 431 211 432 211 432 240 431 241 433 211 432 241 433 212 434 212 434 241 433 242 435 212 434 242 435 213 436 213 436 242 435 243 437 213 436 243 437 214 438 214 438 243 437 244 439 214 438 244 439 215 440 215 440 244 439 245 441 215 440 245 441 216 442 216 442 245 441 246 443 216 442 246 443 217 444 217 444 246 443 247 445 217 444 247 445 218 446 218 446 247 445 248 447 218 446 248 447 219 448 219 448 248 447 249 449 219 448 249 449 220 450 220 450 249 449 250 451 220 450 250 451 221 452 221 452 250 451 251 453 221 452 251 453 222 454 222 454 251 453 252 455 222 454 252 455 223 456 223 456 252 455 253 457 223 456 253 457 224 458 224 458 253 457 254 459 224 458 254 459 225 460 225 460 254 459 255 461 225 460 255 461 226 462 226 462 255 461 256 463 226 462 256 463 227 464 227 464 256 463 257 465 227 464 257 465 228 466 228 466 257 465 258 467 228 466 258 467 229 468 229 468 258 467 259 469 229 468 259 469 230 470 230 470 259 469 260 471 230 470 260 471 231 472 231 472 260 471 261 473 231 472 261 473 232 474 232 474 261 473 262 475 232 474 262 475 233 476 233 476 262 475 263 477 233 476 263 477 200 478 200 478 263 477 201 479 195 480 194 481 196 482 196 482 194 481 193 483 196 482 193 483 192 484 192 484 191 485 196 482 196 482 191 485 190 486 196 482 190 486 189 487 189 487 188 488 196 482 196 482 188 488 187 489 196 482 187 489 265 490 265 490 187 489 186 491 265 490 186 491 185 492 185 492 184 493 265 490 265 490 184 493 183 494 265 490 183 494 182 495 182 495 181 496 265 490 265 490 181 496 180 497 265 490 180 497 179 498 265 490 179 498 264 499 264 499 179 498 178 500 264 499 178 500 177 501 177 501 176 502 264 499 264 499 176 502 175 503 264 499 175 503 174 504 174 504 173 505 264 499 264 499 173 505 172 506 264 499 172 506 203 507 203 507 172 506 171 508 203 507 171 508 170 509 170 509 169 510 203 507 203 507 169 510 168 511 203 507 168 511 167 512 167 512 166 513 203 507 203 507 166 513 165 514 203 507 165 514 164 515 197 516 196 517 266 518 266 518 196 517 265 519 201 520 263 521 202 522 202 522 263 521 262 523 202 522 262 523 261 524 261 524 260 525 202 522 202 522 260 525 259 526 202 522 259 526 258 527 258 527 257 528 202 522 202 522 257 528 256 529 202 522 256 529 267 530 267 530 256 529 255 531 267 530 255 531 254 532 254 532 253 533 267 530 267 530 253 533 252 534 267 530 252 534 251 535 251 535 250 536 267 530 267 530 250 536 249 537 267 530 249 537 248 538 267 530 248 538 266 539 266 539 248 538 247 540 266 539 247 540 246 541 246 541 245 542 266 539 266 539 245 542 244 543 266 539 244 543 243 544 243 544 242 545 266 539 266 539 242 545 241 546 266 539 241 546 197 547 197 547 241 546 240 548 197 547 240 548 239 549 239 549 238 550 197 547 197 547 238 550 237 551 197 547 237 551 236 552 236 552 235 553 197 547 197 547 235 553 234 554 197 547 234 554 198 555 203 556 202 557 264 558 264 558 202 557 267 559 128 560 264 561 129 562 129 562 264 561 267 563 129 562 267 563 131 564 131 564 267 563 266 565 131 564 266 565 130 566 130 566 266 565 128 560 128 560 266 565 265 567 128 560 265 567 264 561</p>
        </triangles>
      </mesh>
    </geometry>
  </library_geometries>
  <library_visual_scenes>
    <visual_scene id="Scene" name="Scene">
      <node id="base_link-node" name="base_link" type="NODE">
        <instance_geometry url="#base_link-mesh">
          <bind_material>
            <technique_common>
              <instance_material symbol="Steel_-_Satin" target="#Steel_-_Satin"/>
            </technique_common>
          </bind_material>
        </instance_geometry>
      </node>
    </visual_scene>
  </library_visual_scenes>
  <scene>
    <instance_visual_scene url="#Scene"/>
  </scene>
</COLLADA>
