<?xml version="1.0" encoding="utf-8"?>
<COLLADA xmlns="http://www.collada.org/2005/11/COLLADASchema" version="1.4.1">
  <asset>
    <contributor>
      <authoring_tool>Fusion URDF/XACRO Exporter</authoring_tool>
    </contributor>
    <created>2026-08-03T06:37:58Z</created>
    <modified>2026-08-03T06:37:58Z</modified>
    <unit name="meter" meter="1.0"/>
    <up_axis>Z_UP</up_axis>
  </asset>
  <library_effects>
    <effect id="Steel_-_Satin-effect">
      <profile_COMMON>
        <technique sid="common">
          <lambert>
            <emission><color>0 0 0 1</color></emission>
            <ambient><color>0.0000 0.0000 0.0000 1</color></ambient>
            <diffuse><color>0.6275 0.6275 0.6275 1</color></diffuse>
            <reflective><color>0 0 0 1</color></reflective>
            <transparent opaque="A_ONE"><color>1 1 1 1</color></transparent>
            <transparency><float>1</float></transparency>
          </lambert>
        </technique>
      </profile_COMMON>
    </effect>
  </library_effects>
  <library_materials>
    <material id="Steel_-_Satin" name="Steel_-_Satin">
      <instance_effect url="#Steel_-_Satin-effect"/>
    </material>
  </library_materials>
  <library_geometries>
    <geometry id="lidar-mesh" name="lidar">
      <mesh>
        <source id="lidar-mesh-positions">
          <float_array id="lidar-mesh-positions-array" count="1332">0.063795 0.000000 0.040000 0.063649 -0.004307 0.040000 0.063214 -0.008594 0.040000 0.062489 -0.012842 0.040000 0.061480 -0.017031 0.040000 0.060190 -0.021143 0.040000 0.058625 -0.025158 0.040000 0.056793 -0.029058 0.040000 0.054702 -0.032826 0.040000 0.052361 -0.036444 0.040000 0.049781 -0.039896 0.040000 0.046974 -0.043165 0.040000 0.043953 -0.046238 0.040000 0.040731 -0.049100 0.040000 0.037323 -0.051738 0.040000 0.033745 -0.054139 0.040000 0.030013 -0.056294 0.040000 0.026145 -0.058192 0.040000 0.022156 -0.059824 0.040000 0.018067 -0.061183 0.040000 0.013895 -0.062263 0.040000 0.009660 -0.063059 0.040000 0.005381 -0.063568 0.040000 0.001077 -0.063786 0.040000 -0.003231 -0.063713 0.040000 -0.007525 -0.063350 0.040000 -0.011785 -0.062697 0.040000 -0.015990 -0.061759 0.040000 -0.020123 -0.060538 0.040000 -0.024164 -0.059041 0.040000 -0.028095 -0.057275 0.040000 -0.031898 -0.055248 0.040000 -0.035555 -0.052969 0.040000 -0.039049 -0.050448 0.040000 -0.042366 -0.047696 0.040000 -0.045489 -0.044727 0.040000 -0.048405 -0.041554 0.040000 -0.051100 -0.038192 0.040000 -0.053562 -0.034655 0.040000 -0.055779 -0.030960 0.040000 -0.057742 -0.027124 0.040000 -0.059441 -0.023164 0.040000 -0.060869 -0.019098 0.040000 -0.062020 -0.014945 0.040000 -0.062887 -0.010724 0.040000 -0.063468 -0.006454 0.040000 -0.063759 -0.002155 0.040000 -0.063759 0.002155 0.040000 -0.063468 0.006454 0.040000 -0.062887 0.010724 0.040000 -0.062020 0.014945 0.040000 -0.060869 0.019098 0.040000 -0.059441 0.023164 0.040000 -0.057742 0.027124 0.040000 -0.055779 0.030960 0.040000 -0.053562 0.034655 0.040000 -0.051100 0.038192 0.040000 -0.048405 0.041554 0.040000 -0.045489 0.044727 0.040000 -0.042366 0.047696 0.040000 -0.039049 0.050448 0.040000 -0.035555 0.052969 0.040000 -0.031898 0.055248 0.040000 -0.028095 0.057275 0.040000 -0.024164 0.059041 0.040000 -0.020123 0.060538 0.040000 -0.015990 0.061759 0.040000 -0.011785 0.062697 0.040000 -0.007525 0.063350 0.040000 -0.003231 0.063713 0.040000 0.001077 0.063786 0.040000 0.005381 0.063568 0.040000 0.009660 0.063059 0.040000 0.013895 0.062263 0.040000 0.018067 0.061183 0.040000 0.022156 0.059824 0.040000 0.026145 0.058192 0.040000 0.030013 0.056294 0.040000 0.033745 0.054139 0.040000 0.037323 0.051738 0.040000 0.040731 0.049100 0.040000 0.043953 0.046238 0.040000 0.046974 0.043165 0.040000 0.049781 0.039896 0.040000 0.052361 0.036444 0.040000 0.054702 0.032826 0.040000 0.056793 0.029058 0.040000 0.058625 0.025158 0.040000 0.060190 0.021143 0.040000 0.061480 0.017031 0.040000 0.062489 0.012842 0.040000 0.063214 0.008594 0.040000 0.063649 0.004307 0.040000 0.063795 0.000000 0.010000 0.063649 0.004307 0.010000 0.063214 0.008594 0.010000 0.062489 0.012842 0.010000 0.061480 0.017031 0.010000 0.060190 0.021143 0.010000 0.058625 0.025158 0.010000 0.056793 0.029058 0.010000 0.054702 0.032826 0.010000 0.052361 0.036444 0.010000 0.049781 0.039896 0.010000 0.046974 0.043165 0.010000 0.043953 0.046238 0.010000 0.040731 0.049100 0.010000 0.037323 0.051738 0.010000 0.033745 0.054139 0.010000 0.030013 0.056294 0.010000 0.026145 0.058192 0.010000 0.022156 0.059824 0.010000 0.018067 0.061183 0.010000 0.013895 0.062263 0.010000 0.009660 0.063059 0.010000 0.005381 0.063568 0.010000 0.001077 0.063786 0.010000 -0.003231 0.063713 0.010000 -0.007525 0.063350 0.010000 -0.011785 0.062697 0.010000 -0.015990 0.061759 0.010000 -0.020123 0.060538 0.010000 -0.024164 0.059041 0.010000 -0.028095 0.057275 0.010000 -0.031898 0.055248 0.010000 -0.035555 0.052969 0.010000 -0.039049 0.050448 0.010000 -0.042366 0.047696 0.010000 -0.045489 0.044727 0.010000 -0.048405 0.041554 0.010000 -0.051100 0.038192 0.010000 -0.053562 0.034655 0.010000 -0.055779 0.030960 0.010000 -0.057742 0.027124 0.010000 -0.059441 0.023164 0.010000 -0.060869 0.019098 0.010000 -0.062020 0.014945 0.010000 -0.062887 0.010724 0.010000 -0.063468 0.006454 0.010000 -0.063759 0.002155 0.010000 -0.063759 -0.002155 0.010000 -0.063468 -0.006454 0.010000 -0.062887 -0.010724 0.010000 -0.062020 -0.014945 0.010000 -0.060869 -0.019098 0.010000 -0.059441 -0.023164 0.010000 -0.057742 -0.027124 0.010000 -0.055779 -0.030960 0.010000 -0.053562 -0.034655 0.010000 -0.051100 -0.038192 0.010000 -0.048405 -0.041554 0.010000 -0.045489 -0.044727 0.010000 -0.042366 -0.047696 0.010000 -0.039049 -0.050448 0.010000 -0.035555 -0.052969 0.010000 -0.031898 -0.055248 0.010000 -0.028095 -0.057275 0.010000 -0.024164 -0.059041 0.010000 -0.020123 -0.060538 0.010000 -0.015990 -0.061759 0.010000 -0.011785 -0.062697 0.010000 -0.007525 -0.063350 0.010000 -0.003231 -0.063713 0.010000 0.001077 -0.063786 0.010000 0.005381 -0.063568 0.010000 0.009660 -0.063059 0.010000 0.013895 -0.062263 0.010000 0.018067 -0.061183 0.010000 0.022156 -0.059824 0.010000 0.026145 -0.058192 0.010000 0.030013 -0.056294 0.010000 0.033745 -0.054139 0.010000 0.037323 -0.051738 0.010000 0.040731 -0.049100 0.010000 0.043953 -0.046238 0.010000 0.046974 -0.043165 0.010000 0.049781 -0.039896 0.010000 0.052361 -0.036444 0.010000 0.054702 -0.032826 0.010000 0.056793 -0.029058 0.010000 0.058625 -0.025158 0.010000 0.060190 -0.021143 0.010000 0.061480 -0.017031 0.010000 0.062489 -0.012842 0.010000 0.063214 -0.008594 0.010000 0.063649 -0.004307 0.010000 0.070000 0.000000 0.000000 0.069856 0.004485 0.000000 0.069425 0.008951 0.000000 0.068709 0.013381 0.000000 0.067711 0.017756 0.000000 0.066434 0.022058 0.000000 0.064884 0.026269 0.000000 0.063068 0.030372 0.000000 0.060992 0.034350 0.000000 0.058666 0.038187 0.000000 0.056099 0.041868 0.000000 0.053301 0.045376 0.000000 0.050284 0.048698 0.000000 0.047061 0.051819 0.000000 0.043644 0.054728 0.000000 0.040048 0.057412 0.000000 0.036287 0.059860 0.000000 0.032378 0.062062 0.000000 0.028335 0.064009 0.000000 0.024176 0.065693 0.000000 0.019917 0.067107 0.000000 0.015576 0.068245 0.000000 0.011172 0.069103 0.000000 0.006722 0.069677 0.000000 0.002244 0.069964 0.000000 -0.002244 0.069964 0.000000 -0.006722 0.069677 0.000000 -0.011172 0.069103 0.000000 -0.015576 0.068245 0.000000 -0.019917 0.067107 0.000000 -0.024176 0.065693 0.000000 -0.028335 0.064009 0.000000 -0.032378 0.062062 0.000000 -0.036287 0.059860 0.000000 -0.040048 0.057412 0.000000 -0.043644 0.054728 0.000000 -0.047061 0.051819 0.000000 -0.050284 0.048698 0.000000 -0.053301 0.045376 0.000000 -0.056099 0.041868 0.000000 -0.058666 0.038187 0.000000 -0.060992 0.034350 0.000000 -0.063068 0.030372 0.000000 -0.064884 0.026269 0.000000 -0.066434 0.022058 0.000000 -0.067711 0.017756 0.000000 -0.068709 0.013381 0.000000 -0.069425 0.008951 0.000000 -0.069856 0.004485 0.000000 -0.070000 0.000000 0.000000 -0.070000 0.000000 0.010000 -0.069856 0.004485 0.010000 -0.069425 0.008951 0.010000 -0.068709 0.013381 0.010000 -0.067711 0.017756 0.010000 -0.066434 0.022058 0.010000 -0.064884 0.026269 0.010000 -0.063068 0.030372 0.010000 -0.060992 0.034350 0.010000 -0.058666 0.038187 0.010000 -0.056099 0.041868 0.010000 -0.053301 0.045376 0.010000 -0.050284 0.048698 0.010000 -0.047061 0.051819 0.010000 -0.043644 0.054728 0.010000 -0.040048 0.057412 0.010000 -0.036287 0.059860 0.010000 -0.032378 0.062062 0.010000 -0.028335 0.064009 0.010000 -0.024176 0.065693 0.010000 -0.019917 0.067107 0.010000 -0.015576 0.068245 0.010000 -0.011172 0.069103 0.010000 -0.006722 0.069677 0.010000 -0.002244 0.069964 0.010000 0.002244 0.069964 0.010000 0.006722 0.069677 0.010000 0.011172 0.069103 0.010000 0.015576 0.068245 0.010000 0.019917 0.067107 0.010000 0.024176 0.065693 0.010000 0.028335 0.064009 0.010000 0.032378 0.062062 0.010000 0.036287 0.059860 0.010000 0.040048 0.057412 0.010000 0.043644 0.054728 0.010000 0.047061 0.051819 0.010000 0.050284 0.048698 0.010000 0.053301 0.045376 0.010000 0.056099 0.041868 0.010000 0.058666 0.038187 0.010000 0.060992 0.034350 0.010000 0.063068 0.030372 0.010000 0.064884 0.026269 0.010000 0.066434 0.022058 0.010000 0.067711 0.017756 0.010000 0.068709 0.013381 0.010000 0.069425 0.008951 0.010000 0.069856 0.004485 0.010000 0.070000 0.000000 0.010000 -0.069985 -0.004010 0.000000 -0.069816 -0.008062 0.000000 -0.069493 -0.012155 0.000000 -0.069015 -0.016289 0.000000 -0.068381 -0.020463 0.000000 -0.067593 -0.024676 0.000000 -0.066648 -0.028924 0.000000 -0.065548 -0.033207 0.000000 -0.064293 -0.037518 0.000000 -0.062882 -0.041852 0.000000 -0.061317 -0.046204 0.000000 -0.059599 -0.050564 0.000000 -0.057729 -0.054921 0.000000 -0.055709 -0.059265 0.000000 -0.053542 -0.063580 0.000000 -0.051231 -0.067849 0.000000 -0.048780 -0.072055 0.000000 -0.046194 -0.076174 0.000000 -0.043478 -0.080183 0.000000 -0.040639 -0.084056 0.000000 -0.037684 -0.087764 0.000000 -0.034620 -0.091280 0.000000 -0.031455 -0.094575 0.000000 -0.028199 -0.097619 0.000000 -0.026539 -0.099039 0.000000 -0.024860 -0.100386 0.000000 -0.023162 -0.101656 0.000000 -0.021447 -0.102847 0.000000 -0.019716 -0.103955 0.000000 -0.017971 -0.104978 0.000000 -0.016212 -0.105912 0.000000 -0.014441 -0.106756 0.000000 -0.012660 -0.107507 0.000000 -0.010869 -0.108162 0.000000 -0.009070 -0.108720 0.000000 -0.007264 -0.109179 0.000000 -0.005453 -0.109537 0.000000 -0.003637 -0.109794 0.000000 -0.001819 -0.109948 0.000000 0.000000 -0.110000 0.000000 0.001819 -0.109948 0.000000 0.003637 -0.109794 0.000000 0.005453 -0.109537 0.000000 0.007264 -0.109179 0.000000 0.009070 -0.108720 0.000000 0.010869 -0.108162 0.000000 0.012660 -0.107507 0.000000 0.014441 -0.106756 0.000000 0.016212 -0.105912 0.000000 0.017971 -0.104978 0.000000 0.019716 -0.103955 0.000000 0.021447 -0.102847 0.000000 0.023162 -0.101656 0.000000 0.024860 -0.100386 0.000000 0.026539 -0.099039 0.000000 0.028199 -0.097619 0.000000 0.031455 -0.094575 0.000000 0.034620 -0.091280 0.000000 0.037684 -0.087764 0.000000 0.040639 -0.084056 0.000000 0.043478 -0.080183 0.000000 0.046194 -0.076174 0.000000 0.048780 -0.072055 0.000000 0.051231 -0.067849 0.000000 0.053542 -0.063580 0.000000 0.055709 -0.059265 0.000000 0.057729 -0.054921 0.000000 0.059599 -0.050564 0.000000 0.061317 -0.046204 0.000000 0.062882 -0.041852 0.000000 0.064293 -0.037518 0.000000 0.065548 -0.033207 0.000000 0.066648 -0.028924 0.000000 0.067593 -0.024676 0.000000 0.068381 -0.020463 0.000000 0.069015 -0.016289 0.000000 0.069493 -0.012155 0.000000 0.069816 -0.008062 0.000000 0.069985 -0.004010 0.000000 0.069985 -0.004010 0.010000 0.069816 -0.008062 0.010000 0.069493 -0.012155 0.010000 0.069015 -0.016289 0.010000 0.068381 -0.020463 0.010000 0.067593 -0.024676 0.010000 0.066648 -0.028924 0.010000 0.065548 -0.033207 0.010000 0.064293 -0.037518 0.010000 0.062882 -0.041852 0.010000 0.061317 -0.046204 0.010000 0.059599 -0.050564 0.010000 0.057729 -0.054921 0.010000 0.055709 -0.059265 0.010000 0.053542 -0.063580 0.010000 0.051231 -0.067849 0.010000 0.048780 -0.072055 0.010000 0.046194 -0.076174 0.010000 0.043478 -0.080183 0.010000 0.040639 -0.084056 0.010000 0.037684 -0.087764 0.010000 0.034620 -0.091280 0.010000 0.031455 -0.094575 0.010000 0.028199 -0.097619 0.010000 0.026539 -0.099039 0.010000 0.024860 -0.100386 0.010000 0.023162 -0.101656 0.010000 0.021447 -0.102847 0.010000 0.019716 -0.103955 0.010000 0.017971 -0.104978 0.010000 0.016212 -0.105912 0.010000 0.014441 -0.106756 0.010000 0.012660 -0.107507 0.010000 0.010869 -0.108162 0.010000 0.009070 -0.108720 0.010000 0.007264 -0.109179 0.010000 0.005453 -0.109537 0.010000 0.003637 -0.109794 0.010000 0.001819 -0.109948 0.010000 0.000000 -0.110000 0.010000 -0.001819 -0.109948 0.010000 -0.003637 -0.109794 0.010000 -0.005453 -0.109537 0.010000 -0.007264 -0.109179 0.010000 -0.009070 -0.108720 0.010000 -0.010869 -0.108162 0.010000 -0.012660 -0.107507 0.010000 -0.014441 -0.106756 0.010000 -0.016212 -0.105912 0.010000 -0.017971 -0.104978 0.010000 -0.019716 -0.103955 0.010000 -0.021447 -0.102847 0.010000 -0.023162 -0.101656 0.010000 -0.024860 -0.100386 0.010000 -0.026539 -0.099039 0.010000 -0.028199 -0.097619 0.010000 -0.031455 -0.094575 0.010000 -0.034620 -0.091280 0.010000 -0.037684 -0.087764 0.010000 -0.040639 -0.084056 0.010000 -0.043478 -0.080183 0.010000 -0.046194 -0.076174 0.010000 -0.048780 -0.072055 0.010000 -0.051231 -0.067849 0.010000 -0.053542 -0.063580 0.010000 -0.055709 -0.059265 0.010000 -0.057729 -0.054921 0.010000 -0.059599 -0.050564 0.010000 -0.061317 -0.046204 0.010000 -0.062882 -0.041852 0.010000 -0.064293 -0.037518 0.010000 -0.065548 -0.033207 0.010000 -0.066648 -0.028924 0.010000 -0.067593 -0.024676 0.010000 -0.068381 -0.020463 0.010000 -0.069015 -0.016289 0.010000 -0.069493 -0.012155 0.010000 -0.069816 -0.008062 0.010000 -0.069985 -0.004010 0.010000</float_array>
          <technique_common>
            <accessor source="#lidar-mesh-positions-array" count="444" stride="3">
              <param name="X" type="float"/>
              <param name="Y" type="float"/>
              <param name="Z" type="float"/>
            </accessor>
          </technique_common>
        </source>
        <source id="lidar-mesh-normals">
          <float_array id="lidar-mesh-normals-array" count="2676">0.997719 -0.067510 -0.000000 0.997719 -0.067510 -0.000000 1.000000 -0.000000 -0.000000 1.000000 -0.000000 -0.000000 0.997719 0.067510 -0.000000 0.997719 0.067510 -0.000000 0.990885 0.134711 -0.000000 0.990885 0.134711 -0.000000 0.979530 0.201299 -0.000000 0.979530 0.201299 -0.000000 0.963706 0.266967 -0.000000 0.963706 0.266967 -0.000000 0.943484 0.331418 -0.000000 0.943484 0.331418 -0.000000 0.918958 0.394356 -0.000000 0.918958 0.394356 -0.000000 0.890238 0.455495 -0.000000 0.890238 0.455495 -0.000000 0.857457 0.514555 -0.000000 0.857457 0.514555 -0.000000 0.820763 0.571268 -0.000000 0.820763 0.571268 -0.000000 0.780325 0.625374 -0.000000 0.780325 0.625374 -0.000000 0.736326 0.676627 -0.000000 0.736326 0.676627 -0.000000 0.688967 0.724793 -0.000000 0.688967 0.724793 -0.000000 0.638465 0.769651 -0.000000 0.638465 0.769651 -0.000000 0.585049 0.810998 -0.000000 0.585049 0.810998 -0.000000 0.528964 0.848644 -0.000000 0.528964 0.848644 -0.000000 0.470465 0.882418 -0.000000 0.470465 0.882418 -0.000000 0.409820 0.912166 -0.000000 0.409820 0.912166 -0.000000 0.347305 0.937752 -0.000000 0.347305 0.937752 -0.000000 0.283206 0.959059 -0.000000 0.283206 0.959059 -0.000000 0.217814 0.975990 -0.000000 0.217814 0.975990 -0.000000 0.151428 0.988468 -0.000000 0.151428 0.988468 -0.000000 0.084351 0.996436 -0.000000 0.084351 0.996436 -0.000000 0.016889 0.999857 -0.000000 0.016889 0.999857 -0.000000 -0.050649 0.998717 -0.000000 -0.050649 0.998717 -0.000000 -0.117957 0.993019 -0.000000 -0.117957 0.993019 -0.000000 -0.184726 0.982790 -0.000000 -0.184726 0.982790 -0.000000 -0.250653 0.968077 -0.000000 -0.250653 0.968077 -0.000000 -0.315435 0.948947 -0.000000 -0.315435 0.948947 -0.000000 -0.378779 0.925487 -0.000000 -0.378779 0.925487 -0.000000 -0.440394 0.897805 -0.000000 -0.440394 0.897805 -0.000000 -0.500000 0.866025 -0.000000 -0.500000 0.866025 -0.000000 -0.557324 0.830295 -0.000000 -0.557324 0.830295 -0.000000 -0.612106 0.790776 -0.000000 -0.612106 0.790776 -0.000000 -0.664095 0.747649 -0.000000 -0.664095 0.747649 -0.000000 -0.713053 0.701110 -0.000000 -0.713053 0.701110 -0.000000 -0.758758 0.651372 -0.000000 -0.758758 0.651372 -0.000000 -0.801001 0.598663 -0.000000 -0.801001 0.598663 -0.000000 -0.839589 0.543222 -0.000000 -0.839589 0.543222 -0.000000 -0.874347 0.485302 -0.000000 -0.874347 0.485302 -0.000000 -0.905115 0.425168 -0.000000 -0.905115 0.425168 -0.000000 -0.931753 0.363094 -0.000000 -0.931753 0.363094 -0.000000 -0.954139 0.299363 -0.000000 -0.954139 0.299363 -0.000000 -0.972172 0.234266 -0.000000 -0.972172 0.234266 -0.000000 -0.985770 0.168101 -0.000000 -0.985770 0.168101 -0.000000 -0.994869 0.101168 -0.000000 -0.994869 0.101168 -0.000000 -0.999429 0.033774 -0.000000 -0.999429 0.033774 -0.000000 -0.999429 -0.033774 0.000000 -0.999429 -0.033774 0.000000 -0.994869 -0.101168 0.000000 -0.994869 -0.101168 0.000000 -0.985770 -0.168101 0.000000 -0.985770 -0.168101 0.000000 -0.972172 -0.234266 0.000000 -0.972172 -0.234266 0.000000 -0.954139 -0.299363 0.000000 -0.954139 -0.299363 0.000000 -0.931753 -0.363094 0.000000 -0.931753 -0.363094 0.000000 -0.905115 -0.425168 0.000000 -0.905115 -0.425168 0.000000 -0.874347 -0.485302 0.000000 -0.874347 -0.485302 0.000000 -0.839589 -0.543222 0.000000 -0.839589 -0.543222 0.000000 -0.801001 -0.598663 0.000000 -0.801001 -0.598663 0.000000 -0.758758 -0.651372 0.000000 -0.758758 -0.651372 0.000000 -0.713053 -0.701110 0.000000 -0.713053 -0.701110 0.000000 -0.664095 -0.747649 0.000000 -0.664095 -0.747649 0.000000 -0.612106 -0.790776 0.000000 -0.612106 -0.790776 0.000000 -0.557324 -0.830295 0.000000 -0.557324 -0.830295 0.000000 -0.500000 -0.866025 0.000000 -0.500000 -0.866025 0.000000 -0.440394 -0.897805 0.000000 -0.440394 -0.897805 0.000000 -0.378779 -0.925487 0.000000 -0.378779 -0.925487 0.000000 -0.315435 -0.948947 0.000000 -0.315435 -0.948947 0.000000 -0.250653 -0.968077 0.000000 -0.250653 -0.968077 0.000000 -0.184726 -0.982790 0.000000 -0.184726 -0.982790 0.000000 -0.117957 -0.993019 0.000000 -0.117957 -0.993019 0.000000 -0.050649 -0.998717 0.000000 -0.050649 -0.998717 0.000000 0.016889 -0.999857 -0.000000 0.016889 -0.999857 -0.000000 0.084351 -0.996436 -0.000000 0.084351 -0.996436 -0.000000 0.151428 -0.988468 -0.000000 0.151428 -0.988468 -0.000000 0.217814 -0.975990 -0.000000 0.217814 -0.975990 -0.000000 0.283206 -0.959059 -0.000000 0.283206 -0.959059 -0.000000 0.347305 -0.937752 -0.000000 0.347305 -0.937752 -0.000000 0.409820 -0.912166 -0.000000 0.409820 -0.912166 -0.000000 0.470465 -0.882418 -0.000000 0.470465 -0.882418 -0.000000 0.528964 -0.848644 -0.000000 0.528964 -0.848644 -0.000000 0.585049 -0.810998 -0.000000 0.585049 -0.810998 -0.000000 0.638465 -0.769651 -0.000000 0.638465 -0.769651 -0.000000 0.688967 -0.724793 -0.000000 0.688967 -0.724793 -0.000000 0.736326 -0.676627 -0.000000 0.736326 -0.676627 -0.000000 0.780325 -0.625374 -0.000000 0.780325 -0.625374 -0.000000 0.820763 -0.571268 -0.000000 0.820763 -0.571268 -0.000000 0.857457 -0.514555 -0.000000 0.857457 -0.514555 -0.000000 0.890238 -0.455495 -0.000000 0.890238 -0.455495 -0.000000 0.918958 -0.394356 -0.000000 0.918958 -0.394356 -0.000000 0.943484 -0.331418 -0.000000 0.943484 -0.331418 -0.000000 0.963706 -0.266967 -0.000000 0.963706 -0.266967 -0.000000 0.979530 -0.201299 -0.000000 0.979530 -0.201299 -0.000000 0.990885 -0.134711 -0.000000 0.990885 -0.134711 -0.000000 0.000000 0.000000 1.000000 0.000000 0.000000 1.000000 0.000000 0.000000 1.000000 0.000000 0.000000 1.000000 0.000000 0.000000 1.000000 0.000000 0.000000 1.000000 0.000000 0.000000 1.000000 0.000000 0.000000 1.000000 0.000000 0.000000 1.000000 0.000000 0.000000 1.000000 0.000000 0.000000 1.000000 0.000000 0.000000 1.000000 0.000000 0.000000 1.000000 0.000000 0.000000 1.000000 0.000000 0.000000 1.000000 0.000000 0.000000 1.000000 0.000000 0.000000 1.000000 0.000000 0.000000 1.000000 0.000000 0.000000 1.000000 0.000000 0.000000 1.000000 0.000000 0.000000 1.000000 0.000000 0.000000 1.000000 0.000000 0.000000 1.000000 0.000000 0.000000 1.000000 0.000000 0.000000 1.000000 0.000000 0.000000 1.000000 0.000000 0.000000 1.000000 0.000000 0.000000 1.000000 0.000000 0.000000 1.000000 0.000000 0.000000 1.000000 0.000000 0.000000 1.000000 0.000000 0.000000 1.000000 0.000000 0.000000 1.000000 0.000000 0.000000 1.000000 0.000000 0.000000 1.000000 0.000000 0.000000 1.000000 0.000000 0.000000 1.000000 0.000000 0.000000 1.000000 0.000000 0.000000 1.000000 0.000000 0.000000 1.000000 0.000000 0.000000 1.000000 0.000000 0.000000 1.000000 0.000000 0.000000 1.000000 0.000000 0.000000 1.000000 0.000000 0.000000 1.000000 0.000000 0.000000 1.000000 0.000000 0.000000 1.000000 0.000000 0.000000 1.000000 0.000000 0.000000 1.000000 0.000000 0.000000 1.000000 0.000000 0.000000 1.000000 0.000000 0.000000 1.000000 0.000000 0.000000 1.000000 0.000000 0.000000 1.000000 0.000000 0.000000 1.000000 0.000000 0.000000 1.000000 0.000000 0.000000 1.000000 0.000000 0.000000 1.000000 0.000000 0.000000 1.000000 0.000000 0.000000 1.000000 0.000000 0.000000 1.000000 0.000000 0.000000 1.000000 0.000000 0.000000 1.000000 0.000000 0.000000 1.000000 0.000000 0.000000 1.000000 0.000000 0.000000 1.000000 0.000000 0.000000 1.000000 0.000000 0.000000 1.000000 0.000000 0.000000 1.000000 0.000000 0.000000 1.000000 0.000000 0.000000 1.000000 0.000000 0.000000 1.000000 0.000000 0.000000 1.000000 0.000000 0.000000 1.000000 0.000000 0.000000 1.000000 0.000000 0.000000 1.000000 0.000000 0.000000 1.000000 0.000000 0.000000 1.000000 0.000000 0.000000 1.000000 0.000000 0.000000 1.000000 0.000000 0.000000 1.000000 0.000000 0.000000 1.000000 0.000000 0.000000 1.000000 0.000000 0.000000 1.000000 0.000000 0.000000 1.000000 0.000000 0.000000 1.000000 0.000000 0.000000 1.000000 0.000000 0.000000 1.000000 0.000000 0.000000 1.000000 0.000000 0.000000 1.000000 0.000000 0.000000 1.000000 0.000000 0.000000 1.000000 0.000000 0.000000 1.000000 1.000000 -0.000000 -0.000000 1.000000 -0.000000 -0.000000 0.997945 0.064070 -0.000000 0.997945 0.064070 -0.000000 0.991790 0.127877 -0.000000 0.991790 0.127877 -0.000000 0.981559 0.191159 -0.000000 0.981559 0.191159 -0.000000 0.967295 0.253655 -0.000000 0.967295 0.253655 -0.000000 0.949056 0.315108 -0.000000 0.949056 0.315108 -0.000000 0.926917 0.375267 -0.000000 0.926917 0.375267 -0.000000 0.900969 0.433884 -0.000000 0.900969 0.433884 -0.000000 0.871319 0.490718 -0.000000 0.871319 0.490718 -0.000000 0.838088 0.545535 -0.000000 0.838088 0.545535 -0.000000 0.801414 0.598111 -0.000000 0.801414 0.598111 -0.000000 0.761446 0.648228 -0.000000 0.761446 0.648228 -0.000000 0.718349 0.695683 -0.000000 0.718349 0.695683 -0.000000 0.672301 0.740278 -0.000000 0.672301 0.740278 -0.000000 0.623490 0.781831 -0.000000 0.623490 0.781831 -0.000000 0.572117 0.820172 -0.000000 0.572117 0.820172 -0.000000 0.518393 0.855143 -0.000000 0.518393 0.855143 -0.000000 0.462538 0.886599 -0.000000 0.462538 0.886599 -0.000000 0.404783 0.914413 -0.000000 0.404783 0.914413 -0.000000 0.345365 0.938468 -0.000000 0.345365 0.938468 -0.000000 0.284528 0.958668 -0.000000 0.284528 0.958668 -0.000000 0.222521 0.974928 -0.000000 0.222521 0.974928 -0.000000 0.159600 0.987182 -0.000000 0.159600 0.987182 -0.000000 0.096023 0.995379 -0.000000 0.096023 0.995379 -0.000000 0.032052 0.999486 -0.000000 0.032052 0.999486 -0.000000 -0.032052 0.999486 -0.000000 -0.032052 0.999486 -0.000000 -0.096023 0.995379 -0.000000 -0.096023 0.995379 -0.000000 -0.159600 0.987182 -0.000000 -0.159600 0.987182 -0.000000 -0.222521 0.974928 -0.000000 -0.222521 0.974928 -0.000000 -0.284528 0.958668 -0.000000 -0.284528 0.958668 -0.000000 -0.345365 0.938468 -0.000000 -0.345365 0.938468 -0.000000 -0.404783 0.914413 -0.000000 -0.404783 0.914413 -0.000000 -0.462538 0.886599 -0.000000 -0.462538 0.886599 -0.000000 -0.518393 0.855143 -0.000000 -0.518393 0.855143 -0.000000 -0.572117 0.820172 -0.000000 -0.572117 0.820172 -0.000000 -0.623490 0.781831 -0.000000 -0.623490 0.781831 -0.000000 -0.672301 0.740278 -0.000000 -0.672301 0.740278 -0.000000 -0.718349 0.695683 -0.000000 -0.718349 0.695683 -0.000000 -0.761446 0.648228 -0.000000 -0.761446 0.648228 -0.000000 -0.801414 0.598111 -0.000000 -0.801414 0.598111 -0.000000 -0.838088 0.545535 -0.000000 -0.838088 0.545535 -0.000000 -0.871319 0.490718 -0.000000 -0.871319 0.490718 -0.000000 -0.900969 0.433884 -0.000000 -0.900969 0.433884 -0.000000 -0.926917 0.375267 -0.000000 -0.926917 0.375267 -0.000000 -0.949056 0.315108 -0.000000 -0.949056 0.315108 -0.000000 -0.967295 0.253655 -0.000000 -0.967295 0.253655 -0.000000 -0.981559 0.191159 -0.000000 -0.981559 0.191159 -0.000000 -0.991790 0.127877 -0.000000 -0.991790 0.127877 -0.000000 -0.997945 0.064070 -0.000000 -0.997945 0.064070 -0.000000 -1.000000 0.000000 -0.000000 -1.000000 0.000000 -0.000000 -0.999878 0.015627 0.000000 -0.999741 -0.022776 0.000000 -0.999878 0.015627 0.000000 -0.999741 -0.022776 0.000000 -0.998178 -0.060341 0.000000 -0.998178 -0.060341 0.000000 -0.995287 -0.096973 0.000000 -0.995287 -0.096973 0.000000 -0.991170 -0.132595 0.000000 -0.991170 -0.132595 0.000000 -0.985931 -0.167153 0.000000 -0.985931 -0.167153 0.000000 -0.979669 -0.200619 0.000000 -0.979669 -0.200619 0.000000 -0.972478 -0.232994 0.000000 -0.972478 -0.232994 0.000000 -0.964439 -0.264307 0.000000 -0.964439 -0.264307 0.000000 -0.955615 -0.294619 0.000000 -0.955615 -0.294619 0.000000 -0.946051 -0.324019 0.000000 -0.946051 -0.324019 0.000000 -0.935765 -0.352624 0.000000 -0.935765 -0.352624 0.000000 -0.924749 -0.380577 0.000000 -0.924749 -0.380577 0.000000 -0.912961 -0.408047 0.000000 -0.912961 -0.408047 0.000000 -0.900320 -0.435229 0.000000 -0.900320 -0.435229 0.000000 -0.886699 -0.462347 0.000000 -0.886699 -0.462347 0.000000 -0.871915 -0.489657 0.000000 -0.871915 -0.489657 0.000000 -0.855711 -0.517455 0.000000 -0.855711 -0.517455 0.000000 -0.837748 -0.546057 0.000000 -0.837748 -0.546057 0.000000 -0.817606 -0.575778 0.000000 -0.817606 -0.575778 0.000000 -0.794760 -0.606924 0.000000 -0.794760 -0.606924 0.000000 -0.768571 -0.639764 0.000000 -0.768571 -0.639764 0.000000 -0.738264 -0.674512 0.000000 -0.738264 -0.674512 0.000000 -0.702914 -0.711275 0.000000 -0.702914 -0.711275 0.000000 -0.661441 -0.749998 0.000000 -0.661441 -0.749998 0.000000 -0.638031 -0.770011 0.000000 -0.638031 -0.770011 0.000000 -0.612623 -0.790375 0.000000 -0.612623 -0.790375 0.000000 -0.585053 -0.810995 0.000000 -0.585053 -0.810995 0.000000 -0.555158 -0.831745 0.000000 -0.555158 -0.831745 0.000000 -0.522785 -0.852464 0.000000 -0.522785 -0.852464 0.000000 -0.487797 -0.872957 0.000000 -0.487797 -0.872957 0.000000 -0.450087 -0.892985 0.000000 -0.450087 -0.892985 0.000000 -0.409587 -0.912271 0.000000 -0.409587 -0.912271 0.000000 -0.366282 -0.930504 0.000000 -0.366282 -0.930504 0.000000 -0.320226 -0.947341 0.000000 -0.320226 -0.947341 0.000000 -0.271552 -0.962424 0.000000 -0.271552 -0.962424 0.000000 -0.220484 -0.975391 0.000000 -0.220484 -0.975391 0.000000 -0.167342 -0.985899 0.000000 -0.167342 -0.985899 0.000000 -0.112538 -0.993647 0.000000 -0.112538 -0.993647 0.000000 -0.056570 -0.998399 0.000000 -0.056570 -0.998399 0.000000 0.000000 -1.000000 0.000000 0.000000 -1.000000 0.000000 0.056570 -0.998399 0.000000 0.056570 -0.998399 0.000000 0.112538 -0.993647 0.000000 0.112538 -0.993647 0.000000 0.167342 -0.985899 0.000000 0.167342 -0.985899 0.000000 0.220484 -0.975391 0.000000 0.220484 -0.975391 0.000000 0.271552 -0.962424 0.000000 0.271552 -0.962424 0.000000 0.320226 -0.947341 0.000000 0.320226 -0.947341 0.000000 0.366282 -0.930504 0.000000 0.366282 -0.930504 0.000000 0.409587 -0.912271 0.000000 0.409587 -0.912271 0.000000 0.450087 -0.892985 0.000000 0.450087 -0.892985 0.000000 0.487797 -0.872957 0.000000 0.487797 -0.872957 0.000000 0.522785 -0.852464 0.000000 0.522785 -0.852464 0.000000 0.555158 -0.831745 0.000000 0.555158 -0.831745 0.000000 0.585053 -0.810995 0.000000 0.585053 -0.810995 0.000000 0.612623 -0.790375 0.000000 0.612623 -0.790375 0.000000 0.638031 -0.770011 0.000000 0.638031 -0.770011 0.000000 0.661441 -0.749998 0.000000 0.661441 -0.749998 0.000000 0.702914 -0.711275 0.000000 0.702914 -0.711275 0.000000 0.738264 -0.674512 0.000000 0.738264 -0.674512 0.000000 0.768571 -0.639764 0.000000 0.768571 -0.639764 0.000000 0.794760 -0.606924 0.000000 0.794760 -0.606924 0.000000 0.817606 -0.575778 0.000000 0.817606 -0.575778 0.000000 0.837748 -0.546057 0.000000 0.837748 -0.546057 0.000000 0.855711 -0.517455 0.000000 0.855711 -0.517455 0.000000 0.871915 -0.489657 0.000000 0.871915 -0.489657 0.000000 0.886699 -0.462347 0.000000 0.886699 -0.462347 0.000000 0.900320 -0.435229 0.000000 0.900320 -0.435229 0.000000 0.912961 -0.408047 0.000000 0.912961 -0.408047 0.000000 0.924749 -0.380577 0.000000 0.924749 -0.380577 0.000000 0.935765 -0.352624 0.000000 0.935765 -0.352624 0.000000 0.946051 -0.324019 0.000000 0.946051 -0.324019 0.000000 0.955615 -0.294619 0.000000 0.955615 -0.294619 0.000000 0.964439 -0.264307 0.000000 0.964439 -0.264307 0.000000 0.972478 -0.232994 0.000000 0.972478 -0.232994 0.000000 0.979669 -0.200619 0.000000 0.979669 -0.200619 0.000000 0.985931 -0.167153 0.000000 0.985931 -0.167153 0.000000 0.991170 -0.132595 0.000000 0.991170 -0.132595 0.000000 0.995287 -0.096973 0.000000 0.995287 -0.096973 0.000000 0.998178 -0.060341 0.000000 0.998178 -0.060341 0.000000 0.999741 -0.022776 0.000000 0.999741 -0.022776 0.000000 0.999878 0.015627 -0.000000 0.999878 0.015627 -0.000000 0.000000 0.000000 1.000000 0.000000 0.000000 1.000000 0.000000 0.000000 1.000000 0.000000 0.000000 1.000000 0.000000 0.000000 1.000000 0.000000 0.000000 1.000000 0.000000 0.000000 1.000000 0.000000 0.000000 1.000000 0.000000 0.000000 1.000000 0.000000 0.000000 1.000000 0.000000 0.000000 1.000000 0.000000 0.000000 1.000000 0.000000 0.000000 1.000000 0.000000 0.000000 1.000000 0.000000 0.000000 1.000000 0.000000 0.000000 1.000000 0.000000 0.000000 1.000000 0.000000 0.000000 1.000000 0.000000 0.000000 1.000000 0.000000 0.000000 1.000000 0.000000 0.000000 1.000000 0.000000 0.000000 1.000000 0.000000 0.000000 1.000000 0.000000 0.000000 1.000000 0.000000 0.000000 1.000000 0.000000 0.000000 1.000000 0.000000 0.000000 1.000000 0.000000 0.000000 1.000000 0.000000 0.000000 1.000000 0.000000 0.000000 1.000000 0.000000 0.000000 1.000000 0.000000 0.000000 1.000000 0.000000 0.000000 1.000000 0.000000 0.000000 1.000000 0.000000 0.000000 1.000000 0.000000 0.000000 1.000000 0.000000 0.000000 1.000000 0.000000 0.000000 1.000000 0.000000 0.000000 1.000000 0.000000 0.000000 1.000000 0.000000 0.000000 1.000000 0.000000 0.000000 1.000000 0.000000 0.000000 1.000000 0.000000 0.000000 1.000000 0.000000 0.000000 1.000000 0.000000 0.000000 1.000000 0.000000 0.000000 1.000000 0.000000 0.000000 1.000000 0.000000 0.000000 1.000000 0.000000 0.000000 1.000000 0.000000 0.000000 1.000000 0.000000 0.000000 1.000000 0.000000 0.000000 1.000000 0.000000 0.000000 1.000000 0.000000 0.000000 1.000000 0.000000 0.000000 1.000000 0.000000 0.000000 1.000000 0.000000 0.000000 1.000000 0.000000 0.000000 1.000000 0.000000 0.000000 1.000000 0.000000 0.000000 1.000000 0.000000 0.000000 1.000000 0.000000 0.000000 1.000000 0.000000 0.000000 1.000000 0.000000 0.000000 1.000000 0.000000 0.000000 1.000000 0.000000 0.000000 1.000000 0.000000 0.000000 1.000000 0.000000 0.000000 1.000000 0.000000 0.000000 1.000000 0.000000 0.000000 1.000000 0.000000 0.000000 1.000000 0.000000 0.000000 1.000000 0.000000 0.000000 1.000000 0.000000 0.000000 1.000000 0.000000 0.000000 1.000000 0.000000 0.000000 1.000000 0.000000 0.000000 1.000000 0.000000 0.000000 1.000000 0.000000 0.000000 1.000000 0.000000 0.000000 1.000000 0.000000 0.000000 1.000000 0.000000 0.000000 1.000000 0.000000 0.000000 1.000000 0.000000 0.000000 1.000000 0.000000 0.000000 1.000000 0.000000 0.000000 1.000000 0.000000 0.000000 1.000000 0.000000 0.000000 1.000000 0.000000 0.000000 1.000000 0.000000 0.000000 1.000000 0.000000 0.000000 1.000000 0.000000 0.000000 1.000000 0.000000 0.000000 1.000000 0.000000 0.000000 1.000000 0.000000 0.000000 1.000000 0.000000 0.000000 1.000000 0.000000 0.000000 1.000000 0.000000 0.000000 1.000000 0.000000 0.000000 1.000000 0.000000 0.000000 1.000000 0.000000 0.000000 1.000000 0.000000 0.000000 1.000000 0.000000 0.000000 1.000000 0.000000 0.000000 1.000000 0.000000 0.000000 1.000000 0.000000 0.000000 1.000000 0.000000 0.000000 1.000000 0.000000 0.000000 1.000000 0.000000 0.000000 1.000000 0.000000 0.000000 1.000000 0.000000 0.000000 1.000000 0.000000 0.000000 1.000000 0.000000 0.000000 1.000000 0.000000 0.000000 1.000000 0.000000 0.000000 1.000000 0.000000 0.000000 1.000000 0.000000 0.000000 1.000000 0.000000 0.000000 1.000000 0.000000 0.000000 1.000000 0.000000 0.000000 1.000000 0.000000 0.000000 1.000000 0.000000 0.000000 1.000000 0.000000 0.000000 1.000000 0.000000 0.000000 1.000000 0.000000 0.000000 1.000000 0.000000 0.000000 1.000000 0.000000 0.000000 1.000000 0.000000 0.000000 1.000000 0.000000 0.000000 1.000000 0.000000 0.000000 1.000000 0.000000 0.000000 1.000000 0.000000 0.000000 1.000000 0.000000 0.000000 1.000000 0.000000 0.000000 1.000000 0.000000 0.000000 1.000000 0.000000 0.000000 1.000000 0.000000 0.000000 1.000000 0.000000 0.000000 1.000000 0.000000 0.000000 1.000000 0.000000 0.000000 1.000000 0.000000 0.000000 1.000000 0.000000 0.000000 1.000000 0.000000 0.000000 1.000000 0.000000 0.000000 1.000000 0.000000 0.000000 1.000000 0.000000 0.000000 1.000000 0.000000 0.000000 1.000000 0.000000 0.000000 1.000000 0.000000 0.000000 1.000000 0.000000 0.000000 1.000000 0.000000 0.000000 1.000000 0.000000 0.000000 1.000000 0.000000 0.000000 1.000000 0.000000 0.000000 1.000000 0.000000 0.000000 1.000000 0.000000 0.000000 1.000000 0.000000 0.000000 1.000000 0.000000 0.000000 1.000000 0.000000 0.000000 1.000000 0.000000 0.000000 1.000000 0.000000 0.000000 1.000000 0.000000 0.000000 1.000000 0.000000 0.000000 1.000000 0.000000 0.000000 1.000000 0.000000 0.000000 1.000000 0.000000 0.000000 1.000000 0.000000 0.000000 1.000000 0.000000 0.000000 1.000000 0.000000 0.000000 1.000000 0.000000 0.000000 1.000000 0.000000 0.000000 1.000000 0.000000 0.000000 1.000000 0.000000 0.000000 1.000000 0.000000 0.000000 1.000000 0.000000 0.000000 1.000000 0.000000 0.000000 1.000000 0.000000 0.000000 1.000000 0.000000 0.000000 1.000000 0.000000 0.000000 1.000000 0.000000 0.000000 1.000000 0.000000 0.000000 1.000000 0.000000 0.000000 1.000000 0.000000 0.000000 1.000000 0.000000 0.000000 1.000000 0.000000 0.000000 1.000000 0.000000 0.000000 1.000000 0.000000 0.000000 1.000000 0.000000 0.000000 1.000000 0.000000 0.000000 1.000000 0.000000 0.000000 1.000000 0.000000 0.000000 1.000000 0.000000 0.000000 1.000000 0.000000 0.000000 1.000000 0.000000 0.000000 1.000000 0.000000 0.000000 1.000000 0.000000 0.000000 1.000000 0.000000 0.000000 1.000000 0.000000 0.000000 1.000000 0.000000 0.000000 1.000000 0.000000 0.000000 1.000000 0.000000 0.000000 1.000000 0.000000 0.000000 1.000000 0.000000 0.000000 1.000000 0.000000 0.000000 1.000000 0.000000 0.000000 1.000000 0.000000 0.000000 1.000000 0.000000 0.000000 1.000000 0.000000 0.000000 1.000000 0.000000 0.000000 1.000000 0.000000 0.000000 1.000000 0.000000 0.000000 1.000000 0.000000 0.000000 1.000000 0.000000 0.000000 1.000000 0.000000 0.000000 1.000000 0.000000 0.000000 1.000000 0.000000 0.000000 1.000000 0.000000 0.000000 1.000000 0.000000 0.000000 1.000000 0.000000 0.000000 1.000000 0.000000 0.000000 1.000000 0.000000 0.000000 1.000000 -0.000000 -0.000000 -1.000000 -0.000000 -0.000000 -1.000000 -0.000000 -0.000000 -1.000000 -0.000000 -0.000000 -1.000000 -0.000000 -0.000000 -1.000000 -0.000000 -0.000000 -1.000000 -0.000000 -0.000000 -1.000000 -0.000000 -0.000000 -1.000000 -0.000000 -0.000000 -1.000000 -0.000000 -0.000000 -1.000000 -0.000000 -0.000000 -1.000000 -0.000000 -0.000000 -1.000000 -0.000000 -0.000000 -1.000000 -0.000000 -0.000000 -1.000000 -0.000000 -0.000000 -1.000000 -0.000000 -0.000000 -1.000000 -0.000000 -0.000000 -1.000000 -0.000000 -0.000000 -1.000000 -0.000000 -0.000000 -1.000000 -0.000000 -0.000000 -1.000000 -0.000000 -0.000000 -1.000000 -0.000000 -0.000000 -1.000000 -0.000000 -0.000000 -1.000000 -0.000000 -0.000000 -1.000000 -0.000000 -0.000000 -1.000000 -0.000000 -0.000000 -1.000000 -0.000000 -0.000000 -1.000000 -0.000000 -0.000000 -1.000000 -0.000000 -0.000000 -1.000000 -0.000000 -0.000000 -1.000000 -0.000000 -0.000000 -1.000000 -0.000000 -0.000000 -1.000000 -0.000000 -0.000000 -1.000000 -0.000000 -0.000000 -1.000000 -0.000000 -0.000000 -1.000000 -0.000000 -0.000000 -1.000000 -0.000000 -0.000000 -1.000000 -0.000000 -0.000000 -1.000000 -0.000000 -0.000000 -1.000000 -0.000000 -0.000000 -1.000000 -0.000000 -0.000000 -1.000000 -0.000000 -0.000000 -1.000000 -0.000000 -0.000000 -1.000000 -0.000000 -0.000000 -1.000000 -0.000000 -0.000000 -1.000000 -0.000000 -0.000000 -1.000000 -0.000000 -0.000000 -1.000000 -0.000000 -0.000000 -1.000000 -0.000000 -0.000000 -1.000000 -0.000000 -0.000000 -1.000000 -0.000000 -0.000000 -1.000000 -0.000000 -0.000000 -1.000000 -0.000000 -0.000000 -1.000000 -0.000000 -0.000000 -1.000000 -0.000000 -0.000000 -1.000000 -0.000000 -0.000000 -1.000000 -0.000000 -0.000000 -1.000000 -0.000000 -0.000000 -1.000000 -0.000000 -0.000000 -1.000000 -0.000000 -0.000000 -1.000000 -0.000000 -0.000000 -1.000000 -0.000000 -0.000000 -1.000000 -0.000000 -0.000000 -1.000000 -0.000000 -0.000000 -1.000000 -0.000000 -0.000000 -1.000000 -0.000000 -0.000000 -1.000000 -0.000000 -0.000000 -1.000000 -0.000000 -0.000000 -1.000000 -0.000000 -0.000000 -1.000000 -0.000000 -0.000000 -1.000000 -0.000000 -0.000000 -1.000000 -0.000000 -0.000000 -1.000000 -0.000000 -0.000000 -1.000000 -0.000000 -0.000000 -1.000000 -0.000000 -0.000000 -1.000000 -0.000000 -0.000000 -1.000000 -0.000000 -0.000000 -1.000000 -0.000000 -0.000000 -1.000000 -0.000000 -0.000000 -1.000000 -0.000000 -0.000000 -1.000000 -0.000000 -0.000000 -1.000000 -0.000000 -0.000000 -1.000000 -0.000000 -0.000000 -1.000000 -0.000000 -0.000000 -1.000000 -0.000000 -0.000000 -1.000000 -0.000000 -0.000000 -1.000000 -0.000000 -0.000000 -1.000000 -0.000000 -0.000000 -1.000000 -0.000000 -0.000000 -1.000000 -0.000000 -0.000000 -1.000000 -0.000000 -0.000000 -1.000000 -0.000000 -0.000000 -1.000000 -0.000000 -0.000000 -1.000000 -0.000000 -0.000000 -1.000000 -0.000000 -0.000000 -1.000000 -0.000000 -0.000000 -1.000000 -0.000000 -0.000000 -1.000000 -0.000000 -0.000000 -1.000000 -0.000000 -0.000000 -1.000000 -0.000000 -0.000000 -1.000000 -0.000000 -0.000000 -1.000000 -0.000000 -0.000000 -1.000000 -0.000000 -0.000000 -1.000000 -0.000000 -0.000000 -1.000000 -0.000000 -0.000000 -1.000000 -0.000000 -0.000000 -1.000000 -0.000000 -0.000000 -1.000000 -0.000000 -0.000000 -1.000000 -0.000000 -0.000000 -1.000000 -0.000000 -0.000000 -1.000000 -0.000000 -0.000000 -1.000000 -0.000000 -0.000000 -1.000000 -0.000000 -0.000000 -1.000000 -0.000000 -0.000000 -1.000000 -0.000000 -0.000000 -1.000000 -0.000000 -0.000000 -1.000000 -0.000000 -0.000000 -1.000000 -0.000000 -0.000000 -1.000000 -0.000000 -0.000000 -1.000000 -0.000000 -0.000000 -1.000000 -0.000000 -0.000000 -1.000000 -0.000000 -0.000000 -1.000000 -0.000000 -0.000000 -1.000000 -0.000000 -0.000000 -1.000000 -0.000000 -0.000000 -1.000000 -0.000000 -0.000000 -1.000000 -0.000000 -0.000000 -1.000000 -0.000000 -0.000000 -1.000000 -0.000000 -0.000000 -1.000000</float_array>
          <technique_common>
            <accessor source="#lidar-mesh-normals-array" count="892" stride="3">
              <param name="X" type="float"/>
              <param name="Y" type="float"/>
              <param name="Z" type="float"/>
            </accessor>
          </technique_common>
        </source>
        <vertices id="lidar-mesh-vertices">
          <input semantic="POSITION" source="#lidar-mesh-positions"/>
        </vertices>
        <triangles material="Steel_-_Satin" count="884">
          <input semantic="VERTEX" source="#lidar-mesh-vertices" offset="0"/>
          <input semantic="NORMAL" source="#lidar-mesh-normals" offset="1"/>
          <p>1 0 185 1 0 2 0 2 185 1 93 3 0 2 93 3 92 4 92 4 93 3 94 5 92 4 94 5 91 6 91 6 94 5 95 7 91 6 95 7 90 8 90 8 95 7 96 9 90 8 96 9 89 10 89 10 96 9 97 11 89 10 97 11 88 12 88 12 97 11 98 13 88 12 98 13 87 14 87 14 98 13 99 15 87 14 99 15 86 16 86 16 99 15 100 17 86 16 100 17 85 18 85 18 100 17 101 19 85 18 101 19 84 20 84 20 101 19 102 21 84 20 102 21 83 22 83 22 102 21 103 23 83 22 103 23 82 24 82 24 103 23 104 25 82 24 104 25 81 26 81 26 104 25 105 27 81 26 105 27 80 28 80 28 105 27 106 29 80 28 106 29 79 30 79 30 106 29 107 31 79 30 107 31 78 32 78 32 107 31 108 33 78 32 108 33 77 34 77 34 108 33 109 35 77 34 109 35 76 36 76 36 109 35 110 37 76 36 110 37 75 38 75 38 110 37 111 39 75 38 111 39 74 40 74 40 111 39 112 41 74 40 112 41 73 42 73 42 112 41 113 43 73 42 113 43 72 44 72 44 113 43 114 45 72 44 114 45 71 46 71 46 114 45 115 47 71 46 115 47 70 48 70 48 115 47 116 49 70 48 116 49 69 50 69 50 116 49 117 51 69 50 117 51 68 52 68 52 117 51 118 53 68 52 118 53 67 54 67 54 118 53 119 55 67 54 119 55 66 56 66 56 119 55 120 57 66 56 120 57 65 58 65 58 120 57 121 59 65 58 121 59 64 60 64 60 121 59 122 61 64 60 122 61 63 62 63 62 122 61 123 63 63 62 123 63 62 64 62 64 123 63 124 65 62 64 124 65 61 66 61 66 124 65 125 67 61 66 125 67 60 68 60 68 125 67 126 69 60 68 126 69 59 70 59 70 126 69 127 71 59 70 127 71 58 72 58 72 127 71 128 73 58 72 128 73 57 74 57 74 128 73 129 75 57 74 129 75 56 76 56 76 129 75 130 77 56 76 130 77 55 78 55 78 130 77 131 79 55 78 131 79 54 80 54 80 131 79 132 81 54 80 132 81 53 82 53 82 132 81 133 83 53 82 133 83 52 84 52 84 133 83 134 85 52 84 134 85 51 86 51 86 134 85 135 87 51 86 135 87 50 88 50 88 135 87 136 89 50 88 136 89 49 90 49 90 136 89 137 91 49 90 137 91 48 92 48 92 137 91 138 93 48 92 138 93 47 94 47 94 138 93 139 95 47 94 139 95 46 96 46 96 139 95 140 97 46 96 140 97 45 98 45 98 140 97 141 99 45 98 141 99 44 100 44 100 141 99 142 101 44 100 142 101 43 102 43 102 142 101 143 103 43 102 143 103 42 104 42 104 143 103 144 105 42 104 144 105 41 106 41 106 144 105 145 107 41 106 145 107 40 108 40 108 145 107 146 109 40 108 146 109 39 110 39 110 146 109 147 111 39 110 147 111 38 112 38 112 147 111 148 113 38 112 148 113 37 114 37 114 148 113 149 115 37 114 149 115 36 116 36 116 149 115 150 117 36 116 150 117 35 118 35 118 150 117 151 119 35 118 151 119 34 120 34 120 151 119 152 121 34 120 152 121 33 122 33 122 152 121 153 123 33 122 153 123 32 124 32 124 153 123 154 125 32 124 154 125 31 126 31 126 154 125 155 127 31 126 155 127 30 128 30 128 155 127 156 129 30 128 156 129 29 130 29 130 156 129 157 131 29 130 157 131 28 132 28 132 157 131 158 133 28 132 158 133 27 134 27 134 158 133 159 135 27 134 159 135 26 136 26 136 159 135 160 137 26 136 160 137 25 138 25 138 160 137 161 139 25 138 161 139 24 140 24 140 161 139 162 141 24 140 162 141 23 142 23 142 162 141 163 143 23 142 163 143 22 144 22 144 163 143 164 145 22 144 164 145 21 146 21 146 164 145 165 147 21 146 165 147 20 148 20 148 165 147 166 149 20 148 166 149 19 150 19 150 166 149 167 151 19 150 167 151 18 152 18 152 167 151 168 153 18 152 168 153 17 154 17 154 168 153 169 155 17 154 169 155 16 156 16 156 169 155 170 157 16 156 170 157 15 158 15 158 170 157 171 159 15 158 171 159 14 160 14 160 171 159 172 161 14 160 172 161 13 162 13 162 172 161 173 163 13 162 173 163 12 164 12 164 173 163 174 165 12 164 174 165 11 166 11 166 174 165 175 167 11 166 175 167 10 168 10 168 175 167 176 169 10 168 176 169 9 170 9 170 176 169 177 171 9 170 177 171 8 172 8 172 177 171 178 173 8 172 178 173 7 174 7 174 178 173 179 175 7 174 179 175 6 176 6 176 179 175 180 177 6 176 180 177 5 178 5 178 180 177 181 179 5 178 181 179 4 180 4 180 181 179 182 181 4 180 182 181 3 182 3 182 182 181 183 183 3 182 183 183 2 184 2 184 183 183 184 185 2 184 184 185 1 0 1 0 184 185 185 1 92 186 47 187 0 188 0 188 47 187 46 189 0 188 46 189 1 190 1 190 46 189 45 191 1 190 45 191 2 192 2 192 45 191 44 193 2 192 44 193 3 194 3 194 44 193 43 195 3 194 43 195 4 196 4 196 43 195 5 197 5 197 43 195 6 198 6 198 43 195 7 199 7 199 43 195 8 200 8 200 43 195 9 201 9 201 43 195 10 202 10 202 43 195 11 203 11 203 43 195 12 204 12 204 43 195 13 205 13 205 43 195 14 206 14 206 43 195 15 207 15 207 43 195 16 208 16 208 43 195 17 209 17 209 43 195 18 210 18 210 43 195 19 211 19 211 43 195 20 212 20 212 43 195 21 213 21 213 43 195 22 214 22 214 43 195 23 215 23 215 43 195 24 216 24 216 43 195 25 217 25 217 43 195 26 218 26 218 43 195 27 219 27 219 43 195 28 220 28 220 43 195 29 221 29 221 43 195 30 222 30 222 43 195 31 223 31 223 43 195 32 224 32 224 43 195 33 225 33 225 43 195 34 226 34 226 43 195 35 227 35 227 43 195 36 228 36 228 43 195 37 229 37 229 43 195 38 230 38 230 43 195 39 231 39 231 43 195 40 232 40 232 43 195 41 233 41 233 43 195 42 234 47 187 92 186 48 235 48 235 92 186 91 236 48 235 91 236 49 237 49 237 91 236 90 238 49 237 90 238 50 239 50 239 90 238 89 240 50 239 89 240 51 241 51 241 89 240 88 242 51 241 88 242 52 243 52 243 88 242 87 244 52 243 87 244 53 245 53 245 87 244 86 246 53 245 86 246 54 247 54 247 86 246 85 248 54 247 85 248 55 249 55 249 85 248 84 250 55 249 84 250 56 251 56 251 84 250 83 252 56 251 83 252 57 253 57 253 83 252 82 254 57 253 82 254 58 255 58 255 82 254 81 256 58 255 81 256 59 257 59 257 81 256 80 258 59 257 80 258 60 259 60 259 80 258 79 260 60 259 79 260 61 261 61 261 79 260 78 262 61 261 78 262 62 263 62 263 78 262 77 264 62 263 77 264 63 265 63 265 77 264 76 266 63 265 76 266 64 267 64 267 76 266 75 268 64 267 75 268 65 269 65 269 75 268 74 270 65 269 74 270 66 271 66 271 74 270 73 272 66 271 73 272 67 273 67 273 73 272 72 274 67 273 72 274 68 275 68 275 72 274 71 276 68 275 71 276 69 277 69 277 71 276 70 278 285 279 186 280 284 281 284 281 186 280 187 282 284 281 187 282 283 283 283 283 187 282 188 284 283 283 188 284 282 285 282 285 188 284 189 286 282 285 189 286 281 287 281 287 189 286 190 288 281 287 190 288 280 289 280 289 190 288 191 290 280 289 191 290 279 291 279 291 191 290 192 292 279 291 192 292 278 293 278 293 192 292 193 294 278 293 193 294 277 295 277 295 193 294 194 296 277 295 194 296 276 297 276 297 194 296 195 298 276 297 195 298 275 299 275 299 195 298 196 300 275 299 196 300 274 301 274 301 196 300 197 302 274 301 197 302 273 303 273 303 197 302 198 304 273 303 198 304 272 305 272 305 198 304 199 306 272 305 199 306 271 307 271 307 199 306 200 308 271 307 200 308 270 309 270 309 200 308 201 310 270 309 201 310 269 311 269 311 201 310 202 312 269 311 202 312 268 313 268 313 202 312 203 314 268 313 203 314 267 315 267 315 203 314 204 316 267 315 204 316 266 317 266 317 204 316 205 318 266 317 205 318 265 319 265 319 205 318 206 320 265 319 206 320 264 321 264 321 206 320 207 322 264 321 207 322 263 323 263 323 207 322 208 324 263 323 208 324 262 325 262 325 208 324 209 326 262 325 209 326 261 327 261 327 209 326 210 328 261 327 210 328 260 329 260 329 210 328 211 330 260 329 211 330 259 331 259 331 211 330 212 332 259 331 212 332 258 333 258 333 212 332 213 334 258 333 213 334 257 335 257 335 213 334 214 336 257 335 214 336 256 337 256 337 214 336 215 338 256 337 215 338 255 339 255 339 215 338 216 340 255 339 216 340 254 341 254 341 216 340 217 342 254 341 217 342 253 343 253 343 217 342 218 344 253 343 218 344 252 345 252 345 218 344 219 346 252 345 219 346 251 347 251 347 219 346 220 348 251 347 220 348 250 349 250 349 220 348 221 350 250 349 221 350 249 351 249 351 221 350 222 352 249 351 222 352 248 353 248 353 222 352 223 354 248 353 223 354 247 355 247 355 223 354 224 356 247 355 224 356 246 357 246 357 224 356 225 358 246 357 225 358 245 359 245 359 225 358 226 360 245 359 226 360 244 361 244 361 226 360 227 362 244 361 227 362 243 363 243 363 227 362 228 364 243 363 228 364 242 365 242 365 228 364 229 366 242 365 229 366 241 367 241 367 229 366 230 368 241 367 230 368 240 369 240 369 230 368 231 370 240 369 231 370 239 371 239 371 231 370 232 372 239 371 232 372 238 373 238 373 232 372 233 374 238 373 233 374 237 375 237 375 233 374 234 376 237 375 234 376 236 377 236 377 234 376 235 378 235 379 286 380 236 381 236 381 286 380 443 382 443 382 286 380 287 383 443 382 287 383 442 384 442 384 287 383 288 385 442 384 288 385 441 386 441 386 288 385 289 387 441 386 289 387 440 388 440 388 289 387 290 389 440 388 290 389 439 390 439 390 290 389 291 391 439 390 291 391 438 392 438 392 291 391 292 393 438 392 292 393 437 394 437 394 292 393 293 395 437 394 293 395 436 396 436 396 293 395 294 397 436 396 294 397 435 398 435 398 294 397 295 399 435 398 295 399 434 400 434 400 295 399 296 401 434 400 296 401 433 402 433 402 296 401 297 403 433 402 297 403 432 404 432 404 297 403 298 405 432 404 298 405 431 406 431 406 298 405 299 407 431 406 299 407 430 408 430 408 299 407 300 409 430 408 300 409 429 410 429 410 300 409 301 411 429 410 301 411 428 412 428 412 301 411 302 413 428 412 302 413 427 414 427 414 302 413 303 415 427 414 303 415 426 416 426 416 303 415 304 417 426 416 304 417 425 418 425 418 304 417 305 419 425 418 305 419 424 420 424 420 305 419 306 421 424 420 306 421 423 422 423 422 306 421 307 423 423 422 307 423 422 424 422 424 307 423 308 425 422 424 308 425 421 426 421 426 308 425 309 427 421 426 309 427 420 428 420 428 309 427 310 429 420 428 310 429 419 430 419 430 310 429 311 431 419 430 311 431 418 432 418 432 311 431 312 433 418 432 312 433 417 434 417 434 312 433 313 435 417 434 313 435 416 436 416 436 313 435 314 437 416 436 314 437 415 438 415 438 314 437 315 439 415 438 315 439 414 440 414 440 315 439 316 441 414 440 316 441 413 442 413 442 316 441 317 443 413 442 317 443 412 444 412 444 317 443 318 445 412 444 318 445 411 446 411 446 318 445 319 447 411 446 319 447 410 448 410 448 319 447 320 449 410 448 320 449 409 450 409 450 320 449 321 451 409 450 321 451 408 452 408 452 321 451 322 453 408 452 322 453 407 454 407 454 322 453 323 455 407 454 323 455 406 456 406 456 323 455 324 457 406 456 324 457 405 458 405 458 324 457 325 459 405 458 325 459 404 460 404 460 325 459 326 461 404 460 326 461 403 462 403 462 326 461 327 463 403 462 327 463 402 464 402 464 327 463 328 465 402 464 328 465 401 466 401 466 328 465 329 467 401 466 329 467 400 468 400 468 329 467 330 469 400 468 330 469 399 470 399 470 330 469 331 471 399 470 331 471 398 472 398 472 331 471 332 473 398 472 332 473 397 474 397 474 332 473 333 475 397 474 333 475 396 476 396 476 333 475 334 477 396 476 334 477 395 478 395 478 334 477 335 479 395 478 335 479 394 480 394 480 335 479 336 481 394 480 336 481 393 482 393 482 336 481 337 483 393 482 337 483 392 484 392 484 337 483 338 485 392 484 338 485 391 486 391 486 338 485 339 487 391 486 339 487 390 488 390 488 339 487 340 489 390 488 340 489 389 490 389 490 340 489 341 491 389 490 341 491 388 492 388 492 341 491 342 493 388 492 342 493 387 494 387 494 342 493 343 495 387 494 343 495 386 496 386 496 343 495 344 497 386 496 344 497 385 498 385 498 344 497 345 499 385 498 345 499 384 500 384 500 345 499 346 501 384 500 346 501 383 502 383 502 346 501 347 503 383 502 347 503 382 504 382 504 347 503 348 505 382 504 348 505 381 506 381 506 348 505 349 507 381 506 349 507 380 508 380 508 349 507 350 509 380 508 350 509 379 510 379 510 350 509 351 511 379 510 351 511 378 512 378 512 351 511 352 513 378 512 352 513 377 514 377 514 352 513 353 515 377 514 353 515 376 516 376 516 353 515 354 517 376 516 354 517 375 518 375 518 354 517 355 519 375 518 355 519 374 520 374 520 355 519 356 521 374 520 356 521 373 522 373 522 356 521 357 523 373 522 357 523 372 524 372 524 357 523 358 525 372 524 358 525 371 526 371 526 358 525 359 527 371 526 359 527 370 528 370 528 359 527 360 529 370 528 360 529 369 530 369 530 360 529 361 531 369 530 361 531 368 532 368 532 361 531 362 533 368 532 362 533 367 534 367 534 362 533 363 535 367 534 363 535 366 536 366 536 363 535 364 537 366 536 364 537 365 538 365 538 364 537 186 539 365 538 186 539 285 540 185 541 365 542 93 543 93 543 365 542 285 544 93 543 285 544 284 545 365 542 185 541 366 546 366 546 185 541 184 547 366 546 184 547 367 548 367 548 184 547 183 549 367 548 183 549 368 550 368 550 183 549 182 551 368 550 182 551 369 552 369 552 182 551 181 553 369 552 181 553 370 554 370 554 181 553 371 555 371 555 181 553 180 556 371 555 180 556 372 557 372 557 180 556 179 558 372 557 179 558 373 559 373 559 179 558 178 560 373 559 178 560 374 561 374 561 178 560 177 562 374 561 177 562 375 563 375 563 177 562 176 564 375 563 176 564 376 565 376 565 176 564 175 566 376 565 175 566 377 567 377 567 175 566 378 568 378 568 175 566 174 569 378 568 174 569 379 570 379 570 174 569 173 571 379 570 173 571 380 572 380 572 173 571 172 573 380 572 172 573 381 574 381 574 172 573 171 575 381 574 171 575 382 576 382 576 171 575 170 577 382 576 170 577 383 578 383 578 170 577 384 579 384 579 170 577 169 580 384 579 169 580 385 581 385 581 169 580 168 582 385 581 168 582 386 583 386 583 168 582 387 584 387 584 168 582 167 585 387 584 167 585 388 586 388 586 167 585 166 587 388 586 166 587 389 588 389 588 166 587 390 589 390 589 166 587 391 590 391 590 166 587 392 591 392 591 166 587 165 592 392 591 165 592 393 593 393 593 165 592 394 594 394 594 165 592 395 595 395 595 165 592 396 596 396 596 165 592 164 597 396 596 164 597 397 598 397 598 164 597 398 599 398 599 164 597 399 600 399 600 164 597 400 601 400 601 164 597 163 602 400 601 163 602 401 603 401 603 163 602 402 604 402 604 163 602 403 605 403 605 163 602 404 606 404 606 163 602 405 607 405 607 163 602 162 608 405 607 162 608 406 609 406 609 162 608 407 610 407 610 162 608 408 611 408 611 162 608 409 612 409 612 162 608 410 613 410 613 162 608 161 614 410 613 161 614 411 615 411 615 161 614 412 616 412 616 161 614 413 617 413 617 161 614 414 618 414 618 161 614 160 619 414 618 160 619 415 620 415 620 160 619 416 621 416 621 160 619 417 622 417 622 160 619 418 623 418 623 160 619 159 624 418 623 159 624 419 625 419 625 159 624 420 626 420 626 159 624 421 627 421 627 159 624 158 628 421 627 158 628 422 629 422 629 158 628 157 630 422 629 157 630 423 631 423 631 157 630 424 632 424 632 157 630 156 633 424 632 156 633 425 634 425 634 156 633 155 635 425 634 155 635 426 636 426 636 155 635 154 637 426 636 154 637 427 638 427 638 154 637 153 639 427 638 153 639 428 640 428 640 153 639 429 641 429 641 153 639 152 642 429 641 152 642 430 643 430 643 152 642 151 644 430 643 151 644 431 645 431 645 151 644 150 646 431 645 150 646 432 647 432 647 150 646 149 648 432 647 149 648 433 649 433 649 149 648 148 650 433 649 148 650 434 651 434 651 148 650 435 652 435 652 148 650 147 653 435 652 147 653 436 654 436 654 147 653 146 655 436 654 146 655 437 656 437 656 146 655 145 657 437 656 145 657 438 658 438 658 145 657 144 659 438 658 144 659 439 660 439 660 144 659 143 661 439 660 143 661 440 662 440 662 143 661 142 663 440 662 142 663 441 664 441 664 142 663 442 665 442 665 142 663 141 666 442 665 141 666 443 667 443 667 141 666 140 668 443 667 140 668 236 669 236 669 140 668 139 670 236 669 139 670 237 671 237 671 139 670 138 672 237 671 138 672 238 673 238 673 138 672 137 674 238 673 137 674 239 675 239 675 137 674 136 676 239 675 136 676 240 677 240 677 136 676 135 678 240 677 135 678 241 679 241 679 135 678 242 680 242 680 135 678 134 681 242 680 134 681 243 682 243 682 134 681 133 683 243 682 133 683 244 684 244 684 133 683 132 685 244 684 132 685 245 686 245 686 132 685 131 687 245 686 131 687 246 688 246 688 131 687 130 689 246 688 130 689 247 690 247 690 130 689 129 691 247 690 129 691 248 692 248 692 129 691 128 693 248 692 128 693 249 694 249 694 128 693 127 695 249 694 127 695 250 696 250 696 127 695 126 697 250 696 126 697 251 698 251 698 126 697 125 699 251 698 125 699 252 700 252 700 125 699 124 701 252 700 124 701 253 702 253 702 124 701 123 703 253 702 123 703 254 704 254 704 123 703 122 705 254 704 122 705 255 706 255 706 122 705 121 707 255 706 121 707 256 708 256 708 121 707 120 709 256 708 120 709 257 710 257 710 120 709 119 711 257 710 119 711 258 712 258 712 119 711 118 713 258 712 118 713 259 714 259 714 118 713 117 715 259 714 117 715 260 716 260 716 117 715 116 717 260 716 116 717 261 718 261 718 116 717 115 719 261 718 115 719 262 720 262 720 115 719 114 721 262 720 114 721 263 722 263 722 114 721 113 723 263 722 113 723 264 724 264 724 113 723 112 725 264 724 112 725 265 726 265 726 112 725 111 727 265 726 111 727 266 728 266 728 111 727 110 729 266 728 110 729 267 730 267 730 110 729 109 731 267 730 109 731 268 732 268 732 109 731 108 733 268 732 108 733 269 734 269 734 108 733 107 735 269 734 107 735 270 736 270 736 107 735 106 737 270 736 106 737 271 738 271 738 106 737 105 739 271 738 105 739 272 740 272 740 105 739 273 741 273 741 105 739 104 742 273 741 104 742 274 743 274 743 104 742 103 744 274 743 103 744 275 745 275 745 103 744 102 746 275 745 102 746 276 747 276 747 102 746 101 748 276 747 101 748 277 749 277 749 101 748 100 750 277 749 100 750 278 751 278 751 100 750 99 752 278 751 99 752 279 753 279 753 99 752 98 754 279 753 98 754 280 755 280 755 98 754 97 756 280 755 97 756 281 757 281 757 97 756 96 758 281 757 96 758 282 759 282 759 96 758 95 760 282 759 95 760 283 761 283 761 95 760 94 762 283 761 94 762 284 545 284 545 94 762 93 543 364 763 286 764 186 765 186 765 286 764 235 766 186 765 235 766 187 767 187 767 235 766 234 768 187 767 234 768 188 769 188 769 234 768 210 770 188 769 210 770 209 771 286 764 364 763 287 772 287 772 364 763 363 773 287 772 363 773 288 774 288 774 363 773 362 775 288 774 362 775 289 776 289 776 362 775 361 777 289 776 361 777 290 778 290 778 361 777 360 779 290 778 360 779 291 780 291 780 360 779 359 781 291 780 359 781 292 782 292 782 359 781 358 783 292 782 358 783 293 784 293 784 358 783 357 785 293 784 357 785 294 786 294 786 357 785 356 787 294 786 356 787 295 788 295 788 356 787 355 789 295 788 355 789 296 790 296 790 355 789 354 791 296 790 354 791 297 792 297 792 354 791 353 793 297 792 353 793 298 794 298 794 353 793 352 795 298 794 352 795 299 796 299 796 352 795 351 797 299 796 351 797 300 798 300 798 351 797 350 799 300 798 350 799 301 800 301 800 350 799 349 801 301 800 349 801 302 802 302 802 349 801 348 803 302 802 348 803 303 804 303 804 348 803 347 805 303 804 347 805 304 806 304 806 347 805 346 807 304 806 346 807 305 808 305 808 346 807 345 809 305 808 345 809 306 810 306 810 345 809 344 811 306 810 344 811 307 812 307 812 344 811 343 813 307 812 343 813 308 814 308 814 343 813 342 815 308 814 342 815 309 816 309 816 342 815 341 817 309 816 341 817 310 818 310 818 341 817 340 819 310 818 340 819 311 820 311 820 340 819 339 821 311 820 339 821 312 822 312 822 339 821 338 823 312 822 338 823 313 824 313 824 338 823 337 825 313 824 337 825 314 826 314 826 337 825 336 827 314 826 336 827 315 828 315 828 336 827 335 829 315 828 335 829 316 830 316 830 335 829 334 831 316 830 334 831 317 832 317 832 334 831 333 833 317 832 333 833 318 834 318 834 333 833 332 835 318 834 332 835 319 836 319 836 332 835 331 837 319 836 331 837 320 838 320 838 331 837 330 839 320 838 330 839 321 840 321 840 330 839 329 841 321 840 329 841 322 842 322 842 329 841 328 843 322 842 328 843 323 844 323 844 328 843 327 845 323 844 327 845 324 846 324 846 327 845 326 847 324 846 326 847 325 848 233 849 232 850 234 768 234 768 232 850 231 851 234 768 231 851 230 852 230 852 229 853 234 768 234 768 229 853 228 854 234 768 228 854 227 855 227 855 226 856 234 768 234 768 226 856 225 857 234 768 225 857 224 858 224 858 223 859 234 768 234 768 223 859 222 860 234 768 222 860 221 861 221 861 220 862 234 768 234 768 220 862 219 863 234 768 219 863 218 864 218 864 217 865 234 768 234 768 217 865 216 866 234 768 216 866 215 867 215 867 214 868 234 768 234 768 214 868 213 869 234 768 213 869 212 870 212 870 211 871 234 768 234 768 211 871 210 770 209 771 208 872 188 769 188 769 208 872 207 873 188 769 207 873 206 874 206 874 205 875 188 769 188 769 205 875 204 876 188 769 204 876 203 877 203 877 202 878 188 769 188 769 202 878 201 879 188 769 201 879 200 880 200 880 199 881 188 769 188 769 199 881 198 882 188 769 198 882 197 883 197 883 196 884 188 769 188 769 196 884 195 885 188 769 195 885 194 886 194 886 193 887 188 769 188 769 193 887 192 888 188 769 192 888 191 889 191 889 190 890 188 769 188 769 190 890 189 891</p>
        </triangles>
      </mesh>
    </geometry>
  </library_geometries>
  <library_visual_scenes>
    <visual_scene id="Scene" name="Scene">
      <node id="lidar-node" name="lidar" type="NODE">
        <instance_geometry url="#lidar-mesh">
          <bind_material>
            <technique_common>
              <instance_material symbol="Steel_-_Satin" target="#Steel_-_Satin"/>
            </technique_common>
          </bind_material>
        </instance_geometry>
      </node>
    </visual_scene>
  </library_visual_scenes>
  <scene>
    <instance_visual_scene url="#Scene"/>
  </scene>
</COLLADA>
