<?xml version="1.0" encoding="utf-8"?>
<COLLADA xmlns="http://www.collada.org/2005/11/COLLADASchema" version="1.4.1">
  <asset>
    <contributor>
      <authoring_tool>Fusion URDF/XACRO Exporter</authoring_tool>
    </contributor>
    <created>2026-08-03T06:37:58Z</created>
    <modified>2026-08-03T06:37:58Z</modified>
    <unit name="meter" meter="1.0"/>
    <up_axis>Z_UP</up_axis>
  </asset>
  <library_effects>
    <effect id="Steel_-_Satin-effect">
      <profile_COMMON>
        <technique sid="common">
          <lambert>
            <emission><color>0 0 0 1</color></emission>
            <ambient><color>0.0000 0.0000 0.0000 1</color></ambient>
            <diffuse><color>0.6275 0.6275 0.6275 1</color></diffuse>
            <reflective><color>0 0 0 1</color></reflective>
            <transparent opaque="A_ONE"><color>1 1 1 1</color></transparent>
            <transparency><float>1</float></transparency>
          </lambert>
        </technique>
      </profile_COMMON>
    </effect>
  </library_effects>
  <library_materials>
    <material id="Steel_-_Satin" name="Steel_-_Satin">
      <instance_effect url="#Steel_-_Satin-effect"/>
    </material>
  </library_materials>
  <library_geometries>
    <geometry id="servicebot_wheels_2-mesh" name="servicebot_wheels_2">
      <mesh>
        <source id="servicebot_wheels_2-mesh-positions">
          <float_array id="servicebot_wheels_2-mesh-positions-array" count="624">-0.075000 0.050000 0.000000 -0.074863 0.050000 -0.004528 -0.074453 0.050000 -0.009040 -0.073771 0.050000 -0.013519 -0.072821 0.050000 -0.017949 -0.071604 0.050000 -0.022313 -0.070126 0.050000 -0.026595 -0.068392 0.050000 -0.030781 -0.066409 0.050000 -0.034854 -0.064184 0.050000 -0.038800 -0.061724 0.050000 -0.042605 -0.059039 0.050000 -0.046254 -0.056138 0.050000 -0.049734 -0.053033 0.050000 -0.053033 -0.049734 0.050000 -0.056138 -0.046254 0.050000 -0.059039 -0.042605 0.050000 -0.061724 -0.038800 0.050000 -0.064184 -0.034854 0.050000 -0.066409 -0.030781 0.050000 -0.068392 -0.026595 0.050000 -0.070126 -0.022313 0.050000 -0.071604 -0.017949 0.050000 -0.072821 -0.013519 0.050000 -0.073771 -0.009040 0.050000 -0.074453 -0.004528 0.050000 -0.074863 0.000000 0.050000 -0.075000 0.004528 0.050000 -0.074863 0.009040 0.050000 -0.074453 0.013519 0.050000 -0.073771 0.017949 0.050000 -0.072821 0.022313 0.050000 -0.071604 0.026595 0.050000 -0.070126 0.030781 0.050000 -0.068392 0.034854 0.050000 -0.066409 0.038800 0.050000 -0.064184 0.042605 0.050000 -0.061724 0.046254 0.050000 -0.059039 0.049734 0.050000 -0.056138 0.053033 0.050000 -0.053033 0.056138 0.050000 -0.049734 0.059039 0.050000 -0.046254 0.061724 0.050000 -0.042605 0.064184 0.050000 -0.038800 0.066409 0.050000 -0.034854 0.068392 0.050000 -0.030781 0.070126 0.050000 -0.026595 0.071604 0.050000 -0.022313 0.072821 0.050000 -0.017949 0.073771 0.050000 -0.013519 0.074453 0.050000 -0.009040 0.074863 0.050000 -0.004528 0.075000 0.050000 0.000000 0.074863 0.050000 0.004528 0.074453 0.050000 0.009040 0.073771 0.050000 0.013519 0.072821 0.050000 0.017949 0.071604 0.050000 0.022313 0.070126 0.050000 0.026595 0.068392 0.050000 0.030781 0.066409 0.050000 0.034854 0.064184 0.050000 0.038800 0.061724 0.050000 0.042605 0.059039 0.050000 0.046254 0.056138 0.050000 0.049734 0.053033 0.050000 0.053033 0.049734 0.050000 0.056138 0.046254 0.050000 0.059039 0.042605 0.050000 0.061724 0.038800 0.050000 0.064184 0.034854 0.050000 0.066409 0.030781 0.050000 0.068392 0.026595 0.050000 0.070126 0.022313 0.050000 0.071604 0.017949 0.050000 0.072821 0.013519 0.050000 0.073771 0.009040 0.050000 0.074453 0.004528 0.050000 0.074863 0.000000 0.050000 0.075000 -0.004528 0.050000 0.074863 -0.009040 0.050000 0.074453 -0.013519 0.050000 0.073771 -0.017949 0.050000 0.072821 -0.022313 0.050000 0.071604 -0.026595 0.050000 0.070126 -0.030781 0.050000 0.068392 -0.034854 0.050000 0.066409 -0.038800 0.050000 0.064184 -0.042605 0.050000 0.061724 -0.046254 0.050000 0.059039 -0.049734 0.050000 0.056138 -0.053033 0.050000 0.053033 -0.056138 0.050000 0.049734 -0.059039 0.050000 0.046254 -0.061724 0.050000 0.042605 -0.064184 0.050000 0.038800 -0.066409 0.050000 0.034854 -0.068392 0.050000 0.030781 -0.070126 0.050000 0.026595 -0.071604 0.050000 0.022313 -0.072821 0.050000 0.017949 -0.073771 0.050000 0.013519 -0.074453 0.050000 0.009040 -0.074863 0.050000 0.004528 -0.075000 0.000000 0.000000 -0.074863 0.000000 0.004528 -0.074453 0.000000 0.009040 -0.073771 0.000000 0.013519 -0.072821 0.000000 0.017949 -0.071604 0.000000 0.022313 -0.070126 0.000000 0.026595 -0.068392 0.000000 0.030781 -0.066409 0.000000 0.034854 -0.064184 0.000000 0.038800 -0.061724 0.000000 0.042605 -0.059039 0.000000 0.046254 -0.056138 0.000000 0.049734 -0.053033 0.000000 0.053033 -0.049734 0.000000 0.056138 -0.046254 0.000000 0.059039 -0.042605 0.000000 0.061724 -0.038800 0.000000 0.064184 -0.034854 0.000000 0.066409 -0.030781 0.000000 0.068392 -0.026595 0.000000 0.070126 -0.022313 0.000000 0.071604 -0.017949 0.000000 0.072821 -0.013519 0.000000 0.073771 -0.009040 0.000000 0.074453 -0.004528 0.000000 0.074863 0.000000 0.000000 0.075000 0.004528 0.000000 0.074863 0.009040 0.000000 0.074453 0.013519 0.000000 0.073771 0.017949 0.000000 0.072821 0.022313 0.000000 0.071604 0.026595 0.000000 0.070126 0.030781 0.000000 0.068392 0.034854 0.000000 0.066409 0.038800 0.000000 0.064184 0.042605 0.000000 0.061724 0.046254 0.000000 0.059039 0.049734 0.000000 0.056138 0.053033 0.000000 0.053033 0.056138 0.000000 0.049734 0.059039 0.000000 0.046254 0.061724 0.000000 0.042605 0.064184 0.000000 0.038800 0.066409 0.000000 0.034854 0.068392 0.000000 0.030781 0.070126 0.000000 0.026595 0.071604 0.000000 0.022313 0.072821 0.000000 0.017949 0.073771 0.000000 0.013519 0.074453 0.000000 0.009040 0.074863 0.000000 0.004528 0.075000 0.000000 0.000000 0.074863 0.000000 -0.004528 0.074453 0.000000 -0.009040 0.073771 0.000000 -0.013519 0.072821 0.000000 -0.017949 0.071604 0.000000 -0.022313 0.070126 0.000000 -0.026595 0.068392 0.000000 -0.030781 0.066409 0.000000 -0.034854 0.064184 0.000000 -0.038800 0.061724 0.000000 -0.042605 0.059039 0.000000 -0.046254 0.056138 0.000000 -0.049734 0.053033 0.000000 -0.053033 0.049734 0.000000 -0.056138 0.046254 0.000000 -0.059039 0.042605 0.000000 -0.061724 0.038800 0.000000 -0.064184 0.034854 0.000000 -0.066409 0.030781 0.000000 -0.068392 0.026595 0.000000 -0.070126 0.022313 0.000000 -0.071604 0.017949 0.000000 -0.072821 0.013519 0.000000 -0.073771 0.009040 0.000000 -0.074453 0.004528 0.000000 -0.074863 0.000000 0.000000 -0.075000 -0.004528 0.000000 -0.074863 -0.009040 0.000000 -0.074453 -0.013519 0.000000 -0.073771 -0.017949 0.000000 -0.072821 -0.022313 0.000000 -0.071604 -0.026595 0.000000 -0.070126 -0.030781 0.000000 -0.068392 -0.034854 0.000000 -0.066409 -0.038800 0.000000 -0.064184 -0.042605 0.000000 -0.061724 -0.046254 0.000000 -0.059039 -0.049734 0.000000 -0.056138 -0.053033 0.000000 -0.053033 -0.056138 0.000000 -0.049734 -0.059039 0.000000 -0.046254 -0.061724 0.000000 -0.042605 -0.064184 0.000000 -0.038800 -0.066409 0.000000 -0.034854 -0.068392 0.000000 -0.030781 -0.070126 0.000000 -0.026595 -0.071604 0.000000 -0.022313 -0.072821 0.000000 -0.017949 -0.073771 0.000000 -0.013519 -0.074453 0.000000 -0.009040 -0.074863 0.000000 -0.004528</float_array>
          <technique_common>
            <accessor source="#servicebot_wheels_2-mesh-positions-array" count="208" stride="3">
              <param name="X" type="float"/>
              <param name="Y" type="float"/>
              <param name="Z" type="float"/>
            </accessor>
          </technique_common>
        </source>
        <source id="servicebot_wheels_2-mesh-normals">
          <float_array id="servicebot_wheels_2-mesh-normals-array" count="1248">-0.998176 0.000000 -0.060378 -0.998176 0.000000 -0.060378 -1.000000 0.000000 -0.000000 -1.000000 0.000000 -0.000000 -0.998176 -0.000000 0.060378 -0.998176 -0.000000 0.060378 -0.992709 -0.000000 0.120537 -0.992709 -0.000000 0.120537 -0.983620 -0.000000 0.180255 -0.983620 -0.000000 0.180255 -0.970942 -0.000000 0.239316 -0.970942 -0.000000 0.239316 -0.954721 -0.000000 0.297503 -0.954721 -0.000000 0.297503 -0.935016 -0.000000 0.354605 -0.935016 -0.000000 0.354605 -0.911900 -0.000000 0.410413 -0.911900 -0.000000 0.410413 -0.885456 -0.000000 0.464723 -0.885456 -0.000000 0.464723 -0.855781 -0.000000 0.517338 -0.855781 -0.000000 0.517338 -0.822984 -0.000000 0.568065 -0.822984 -0.000000 0.568065 -0.787183 -0.000000 0.616719 -0.787183 -0.000000 0.616719 -0.748511 -0.000000 0.663123 -0.748511 -0.000000 0.663123 -0.707107 -0.000000 0.707107 -0.707107 -0.000000 0.707107 -0.663123 -0.000000 0.748511 -0.663123 -0.000000 0.748511 -0.616719 -0.000000 0.787183 -0.616719 -0.000000 0.787183 -0.568065 -0.000000 0.822984 -0.568065 -0.000000 0.822984 -0.517338 -0.000000 0.855781 -0.517338 -0.000000 0.855781 -0.464723 -0.000000 0.885456 -0.464723 -0.000000 0.885456 -0.410413 -0.000000 0.911900 -0.410413 -0.000000 0.911900 -0.354605 -0.000000 0.935016 -0.354605 -0.000000 0.935016 -0.297503 -0.000000 0.954721 -0.297503 -0.000000 0.954721 -0.239316 -0.000000 0.970942 -0.239316 -0.000000 0.970942 -0.180255 -0.000000 0.983620 -0.180255 -0.000000 0.983620 -0.120537 -0.000000 0.992709 -0.120537 -0.000000 0.992709 -0.060378 -0.000000 0.998176 -0.060378 -0.000000 0.998176 0.000000 -0.000000 1.000000 0.000000 -0.000000 1.000000 0.060378 -0.000000 0.998176 0.060378 -0.000000 0.998176 0.120537 -0.000000 0.992709 0.120537 -0.000000 0.992709 0.180255 -0.000000 0.983620 0.180255 -0.000000 0.983620 0.239316 -0.000000 0.970942 0.239316 -0.000000 0.970942 0.297503 -0.000000 0.954721 0.297503 -0.000000 0.954721 0.354605 -0.000000 0.935016 0.354605 -0.000000 0.935016 0.410413 -0.000000 0.911900 0.410413 -0.000000 0.911900 0.464723 -0.000000 0.885456 0.464723 -0.000000 0.885456 0.517338 -0.000000 0.855781 0.517338 -0.000000 0.855781 0.568065 -0.000000 0.822984 0.568065 -0.000000 0.822984 0.616719 -0.000000 0.787183 0.616719 -0.000000 0.787183 0.663123 -0.000000 0.748511 0.663123 -0.000000 0.748511 0.707107 -0.000000 0.707107 0.707107 -0.000000 0.707107 0.748511 -0.000000 0.663123 0.748511 -0.000000 0.663123 0.787183 -0.000000 0.616719 0.787183 -0.000000 0.616719 0.822984 -0.000000 0.568065 0.822984 -0.000000 0.568065 0.855781 -0.000000 0.517338 0.855781 -0.000000 0.517338 0.885456 -0.000000 0.464723 0.885456 -0.000000 0.464723 0.911900 -0.000000 0.410413 0.911900 -0.000000 0.410413 0.935016 -0.000000 0.354605 0.935016 -0.000000 0.354605 0.954721 -0.000000 0.297503 0.954721 -0.000000 0.297503 0.970942 -0.000000 0.239316 0.970942 -0.000000 0.239316 0.983620 -0.000000 0.180255 0.983620 -0.000000 0.180255 0.992709 -0.000000 0.120537 0.992709 -0.000000 0.120537 0.998176 -0.000000 0.060378 0.998176 -0.000000 0.060378 1.000000 -0.000000 -0.000000 1.000000 -0.000000 -0.000000 0.998176 -0.000000 -0.060378 0.998176 -0.000000 -0.060378 0.992709 -0.000000 -0.120537 0.992709 -0.000000 -0.120537 0.983620 -0.000000 -0.180255 0.983620 -0.000000 -0.180255 0.970942 -0.000000 -0.239316 0.970942 -0.000000 -0.239316 0.954721 -0.000000 -0.297503 0.954721 -0.000000 -0.297503 0.935016 -0.000000 -0.354605 0.935016 -0.000000 -0.354605 0.911900 -0.000000 -0.410413 0.911900 -0.000000 -0.410413 0.885456 -0.000000 -0.464723 0.885456 -0.000000 -0.464723 0.855781 -0.000000 -0.517338 0.855781 -0.000000 -0.517338 0.822984 -0.000000 -0.568065 0.822984 -0.000000 -0.568065 0.787183 -0.000000 -0.616719 0.787183 -0.000000 -0.616719 0.748511 -0.000000 -0.663123 0.748511 -0.000000 -0.663123 0.707107 -0.000000 -0.707107 0.707107 -0.000000 -0.707107 0.663123 -0.000000 -0.748511 0.663123 -0.000000 -0.748511 0.616719 -0.000000 -0.787183 0.616719 -0.000000 -0.787183 0.568065 -0.000000 -0.822984 0.568065 -0.000000 -0.822984 0.517338 -0.000000 -0.855781 0.517338 -0.000000 -0.855781 0.464723 -0.000000 -0.885456 0.464723 -0.000000 -0.885456 0.410413 -0.000000 -0.911900 0.410413 -0.000000 -0.911900 0.354605 -0.000000 -0.935016 0.354605 -0.000000 -0.935016 0.297503 -0.000000 -0.954721 0.297503 -0.000000 -0.954721 0.239316 -0.000000 -0.970942 0.239316 -0.000000 -0.970942 0.180255 -0.000000 -0.983620 0.180255 -0.000000 -0.983620 0.120537 -0.000000 -0.992709 0.120537 -0.000000 -0.992709 0.060378 -0.000000 -0.998176 0.060378 -0.000000 -0.998176 0.000000 -0.000000 -1.000000 0.000000 -0.000000 -1.000000 -0.060378 0.000000 -0.998176 -0.060378 0.000000 -0.998176 -0.120537 0.000000 -0.992709 -0.120537 0.000000 -0.992709 -0.180255 0.000000 -0.983620 -0.180255 0.000000 -0.983620 -0.239316 0.000000 -0.970942 -0.239316 0.000000 -0.970942 -0.297503 0.000000 -0.954721 -0.297503 0.000000 -0.954721 -0.354605 0.000000 -0.935016 -0.354605 0.000000 -0.935016 -0.410413 0.000000 -0.911900 -0.410413 0.000000 -0.911900 -0.464723 0.000000 -0.885456 -0.464723 0.000000 -0.885456 -0.517338 0.000000 -0.855781 -0.517338 0.000000 -0.855781 -0.568065 0.000000 -0.822984 -0.568065 0.000000 -0.822984 -0.616719 0.000000 -0.787183 -0.616719 0.000000 -0.787183 -0.663123 0.000000 -0.748511 -0.663123 0.000000 -0.748511 -0.707107 0.000000 -0.707107 -0.707107 0.000000 -0.707107 -0.748511 0.000000 -0.663123 -0.748511 0.000000 -0.663123 -0.787183 0.000000 -0.616719 -0.787183 0.000000 -0.616719 -0.822984 0.000000 -0.568065 -0.822984 0.000000 -0.568065 -0.855781 0.000000 -0.517338 -0.855781 0.000000 -0.517338 -0.885456 0.000000 -0.464723 -0.885456 0.000000 -0.464723 -0.911900 0.000000 -0.410413 -0.911900 0.000000 -0.410413 -0.935016 0.000000 -0.354605 -0.935016 0.000000 -0.354605 -0.954721 0.000000 -0.297503 -0.954721 0.000000 -0.297503 -0.970942 0.000000 -0.239316 -0.970942 0.000000 -0.239316 -0.983620 0.000000 -0.180255 -0.983620 0.000000 -0.180255 -0.992709 0.000000 -0.120537 -0.992709 0.000000 -0.120537 0.000000 1.000000 0.000000 0.000000 1.000000 0.000000 0.000000 1.000000 0.000000 0.000000 1.000000 0.000000 0.000000 1.000000 0.000000 0.000000 1.000000 0.000000 0.000000 1.000000 0.000000 0.000000 1.000000 0.000000 0.000000 1.000000 0.000000 0.000000 1.000000 0.000000 0.000000 1.000000 0.000000 0.000000 1.000000 0.000000 0.000000 1.000000 0.000000 0.000000 1.000000 0.000000 0.000000 1.000000 0.000000 0.000000 1.000000 0.000000 0.000000 1.000000 0.000000 0.000000 1.000000 0.000000 0.000000 1.000000 0.000000 0.000000 1.000000 0.000000 0.000000 1.000000 0.000000 0.000000 1.000000 0.000000 0.000000 1.000000 0.000000 0.000000 1.000000 0.000000 0.000000 1.000000 0.000000 0.000000 1.000000 0.000000 0.000000 1.000000 0.000000 0.000000 1.000000 0.000000 0.000000 1.000000 0.000000 0.000000 1.000000 0.000000 0.000000 1.000000 0.000000 0.000000 1.000000 0.000000 0.000000 1.000000 0.000000 0.000000 1.000000 0.000000 0.000000 1.000000 0.000000 0.000000 1.000000 0.000000 0.000000 1.000000 0.000000 0.000000 1.000000 0.000000 0.000000 1.000000 0.000000 0.000000 1.000000 0.000000 0.000000 1.000000 0.000000 0.000000 1.000000 0.000000 0.000000 1.000000 0.000000 0.000000 1.000000 0.000000 0.000000 1.000000 0.000000 0.000000 1.000000 0.000000 0.000000 1.000000 0.000000 0.000000 1.000000 0.000000 0.000000 1.000000 0.000000 0.000000 1.000000 0.000000 0.000000 1.000000 0.000000 0.000000 1.000000 0.000000 0.000000 1.000000 0.000000 0.000000 1.000000 0.000000 0.000000 1.000000 0.000000 0.000000 1.000000 0.000000 0.000000 1.000000 0.000000 0.000000 1.000000 0.000000 0.000000 1.000000 0.000000 0.000000 1.000000 0.000000 0.000000 1.000000 0.000000 0.000000 1.000000 0.000000 0.000000 1.000000 0.000000 0.000000 1.000000 0.000000 0.000000 1.000000 0.000000 0.000000 1.000000 0.000000 0.000000 1.000000 0.000000 0.000000 1.000000 0.000000 0.000000 1.000000 0.000000 0.000000 1.000000 0.000000 0.000000 1.000000 0.000000 0.000000 1.000000 0.000000 0.000000 1.000000 0.000000 0.000000 1.000000 0.000000 0.000000 1.000000 0.000000 0.000000 1.000000 0.000000 0.000000 1.000000 0.000000 0.000000 1.000000 0.000000 0.000000 1.000000 0.000000 0.000000 1.000000 0.000000 0.000000 1.000000 0.000000 0.000000 1.000000 0.000000 0.000000 1.000000 0.000000 0.000000 1.000000 0.000000 0.000000 1.000000 0.000000 0.000000 1.000000 0.000000 0.000000 1.000000 0.000000 0.000000 1.000000 0.000000 0.000000 1.000000 0.000000 0.000000 1.000000 0.000000 0.000000 1.000000 0.000000 0.000000 1.000000 0.000000 0.000000 1.000000 0.000000 0.000000 1.000000 0.000000 0.000000 1.000000 0.000000 0.000000 1.000000 0.000000 0.000000 1.000000 0.000000 0.000000 1.000000 0.000000 0.000000 1.000000 0.000000 0.000000 1.000000 0.000000 0.000000 1.000000 0.000000 0.000000 1.000000 0.000000 0.000000 1.000000 0.000000 0.000000 1.000000 0.000000 -0.000000 -1.000000 -0.000000 -0.000000 -1.000000 -0.000000 -0.000000 -1.000000 -0.000000 -0.000000 -1.000000 -0.000000 -0.000000 -1.000000 -0.000000 -0.000000 -1.000000 -0.000000 -0.000000 -1.000000 -0.000000 -0.000000 -1.000000 -0.000000 -0.000000 -1.000000 -0.000000 -0.000000 -1.000000 -0.000000 -0.000000 -1.000000 -0.000000 -0.000000 -1.000000 -0.000000 -0.000000 -1.000000 -0.000000 -0.000000 -1.000000 -0.000000 -0.000000 -1.000000 -0.000000 -0.000000 -1.000000 -0.000000 -0.000000 -1.000000 -0.000000 -0.000000 -1.000000 -0.000000 -0.000000 -1.000000 -0.000000 -0.000000 -1.000000 -0.000000 -0.000000 -1.000000 -0.000000 -0.000000 -1.000000 -0.000000 -0.000000 -1.000000 -0.000000 -0.000000 -1.000000 -0.000000 -0.000000 -1.000000 -0.000000 -0.000000 -1.000000 -0.000000 -0.000000 -1.000000 -0.000000 -0.000000 -1.000000 -0.000000 -0.000000 -1.000000 -0.000000 -0.000000 -1.000000 -0.000000 -0.000000 -1.000000 -0.000000 -0.000000 -1.000000 -0.000000 -0.000000 -1.000000 -0.000000 -0.000000 -1.000000 -0.000000 -0.000000 -1.000000 -0.000000 -0.000000 -1.000000 -0.000000 -0.000000 -1.000000 -0.000000 -0.000000 -1.000000 -0.000000 -0.000000 -1.000000 -0.000000 -0.000000 -1.000000 -0.000000 -0.000000 -1.000000 -0.000000 -0.000000 -1.000000 -0.000000 -0.000000 -1.000000 -0.000000 -0.000000 -1.000000 -0.000000 -0.000000 -1.000000 -0.000000 -0.000000 -1.000000 -0.000000 -0.000000 -1.000000 -0.000000 -0.000000 -1.000000 -0.000000 -0.000000 -1.000000 -0.000000 -0.000000 -1.000000 -0.000000 -0.000000 -1.000000 -0.000000 -0.000000 -1.000000 -0.000000 -0.000000 -1.000000 -0.000000 -0.000000 -1.000000 -0.000000 -0.000000 -1.000000 -0.000000 -0.000000 -1.000000 -0.000000 -0.000000 -1.000000 -0.000000 -0.000000 -1.000000 -0.000000 -0.000000 -1.000000 -0.000000 -0.000000 -1.000000 -0.000000 -0.000000 -1.000000 -0.000000 -0.000000 -1.000000 -0.000000 -0.000000 -1.000000 -0.000000 -0.000000 -1.000000 -0.000000 -0.000000 -1.000000 -0.000000 -0.000000 -1.000000 -0.000000 -0.000000 -1.000000 -0.000000 -0.000000 -1.000000 -0.000000 -0.000000 -1.000000 -0.000000 -0.000000 -1.000000 -0.000000 -0.000000 -1.000000 -0.000000 -0.000000 -1.000000 -0.000000 -0.000000 -1.000000 -0.000000 -0.000000 -1.000000 -0.000000 -0.000000 -1.000000 -0.000000 -0.000000 -1.000000 -0.000000 -0.000000 -1.000000 -0.000000 -0.000000 -1.000000 -0.000000 -0.000000 -1.000000 -0.000000 -0.000000 -1.000000 -0.000000 -0.000000 -1.000000 -0.000000 -0.000000 -1.000000 -0.000000 -0.000000 -1.000000 -0.000000 -0.000000 -1.000000 -0.000000 -0.000000 -1.000000 -0.000000 -0.000000 -1.000000 -0.000000 -0.000000 -1.000000 -0.000000 -0.000000 -1.000000 -0.000000 -0.000000 -1.000000 -0.000000 -0.000000 -1.000000 -0.000000 -0.000000 -1.000000 -0.000000 -0.000000 -1.000000 -0.000000 -0.000000 -1.000000 -0.000000 -0.000000 -1.000000 -0.000000 -0.000000 -1.000000 -0.000000 -0.000000 -1.000000 -0.000000 -0.000000 -1.000000 -0.000000 -0.000000 -1.000000 -0.000000 -0.000000 -1.000000 -0.000000 -0.000000 -1.000000 -0.000000 -0.000000 -1.000000 -0.000000 -0.000000 -1.000000 -0.000000 -0.000000 -1.000000 -0.000000 -0.000000 -1.000000 -0.000000</float_array>
          <technique_common>
            <accessor source="#servicebot_wheels_2-mesh-normals-array" count="416" stride="3">
              <param name="X" type="float"/>
              <param name="Y" type="float"/>
              <param name="Z" type="float"/>
            </accessor>
          </technique_common>
        </source>
        <vertices id="servicebot_wheels_2-mesh-vertices">
          <input semantic="POSITION" source="#servicebot_wheels_2-mesh-positions"/>
        </vertices>
        <triangles material="Steel_-_Satin" count="412">
          <input semantic="VERTEX" source="#servicebot_wheels_2-mesh-vertices" offset="0"/>
          <input semantic="NORMAL" source="#servicebot_wheels_2-mesh-normals" offset="1"/>
          <p>1 0 207 1 0 2 0 2 207 1 104 3 0 2 104 3 103 4 103 4 104 3 105 5 103 4 105 5 102 6 102 6 105 5 106 7 102 6 106 7 101 8 101 8 106 7 107 9 101 8 107 9 100 10 100 10 107 9 108 11 100 10 108 11 99 12 99 12 108 11 109 13 99 12 109 13 98 14 98 14 109 13 110 15 98 14 110 15 97 16 97 16 110 15 111 17 97 16 111 17 96 18 96 18 111 17 112 19 96 18 112 19 95 20 95 20 112 19 113 21 95 20 113 21 94 22 94 22 113 21 114 23 94 22 114 23 93 24 93 24 114 23 115 25 93 24 115 25 92 26 92 26 115 25 116 27 92 26 116 27 91 28 91 28 116 27 117 29 91 28 117 29 90 30 90 30 117 29 118 31 90 30 118 31 89 32 89 32 118 31 119 33 89 32 119 33 88 34 88 34 119 33 120 35 88 34 120 35 87 36 87 36 120 35 121 37 87 36 121 37 86 38 86 38 121 37 122 39 86 38 122 39 85 40 85 40 122 39 123 41 85 40 123 41 84 42 84 42 123 41 124 43 84 42 124 43 83 44 83 44 124 43 125 45 83 44 125 45 82 46 82 46 125 45 126 47 82 46 126 47 81 48 81 48 126 47 127 49 81 48 127 49 80 50 80 50 127 49 128 51 80 50 128 51 79 52 79 52 128 51 129 53 79 52 129 53 78 54 78 54 129 53 130 55 78 54 130 55 77 56 77 56 130 55 131 57 77 56 131 57 76 58 76 58 131 57 132 59 76 58 132 59 75 60 75 60 132 59 133 61 75 60 133 61 74 62 74 62 133 61 134 63 74 62 134 63 73 64 73 64 134 63 135 65 73 64 135 65 72 66 72 66 135 65 136 67 72 66 136 67 71 68 71 68 136 67 137 69 71 68 137 69 70 70 70 70 137 69 138 71 70 70 138 71 69 72 69 72 138 71 139 73 69 72 139 73 68 74 68 74 139 73 140 75 68 74 140 75 67 76 67 76 140 75 141 77 67 76 141 77 66 78 66 78 141 77 142 79 66 78 142 79 65 80 65 80 142 79 143 81 65 80 143 81 64 82 64 82 143 81 144 83 64 82 144 83 63 84 63 84 144 83 145 85 63 84 145 85 62 86 62 86 145 85 146 87 62 86 146 87 61 88 61 88 146 87 147 89 61 88 147 89 60 90 60 90 147 89 148 91 60 90 148 91 59 92 59 92 148 91 149 93 59 92 149 93 58 94 58 94 149 93 150 95 58 94 150 95 57 96 57 96 150 95 151 97 57 96 151 97 56 98 56 98 151 97 152 99 56 98 152 99 55 100 55 100 152 99 153 101 55 100 153 101 54 102 54 102 153 101 154 103 54 102 154 103 53 104 53 104 154 103 155 105 53 104 155 105 52 106 52 106 155 105 156 107 52 106 156 107 51 108 51 108 156 107 157 109 51 108 157 109 50 110 50 110 157 109 158 111 50 110 158 111 49 112 49 112 158 111 159 113 49 112 159 113 48 114 48 114 159 113 160 115 48 114 160 115 47 116 47 116 160 115 161 117 47 116 161 117 46 118 46 118 161 117 162 119 46 118 162 119 45 120 45 120 162 119 163 121 45 120 163 121 44 122 44 122 163 121 164 123 44 122 164 123 43 124 43 124 164 123 165 125 43 124 165 125 42 126 42 126 165 125 166 127 42 126 166 127 41 128 41 128 166 127 167 129 41 128 167 129 40 130 40 130 167 129 168 131 40 130 168 131 39 132 39 132 168 131 169 133 39 132 169 133 38 134 38 134 169 133 170 135 38 134 170 135 37 136 37 136 170 135 171 137 37 136 171 137 36 138 36 138 171 137 172 139 36 138 172 139 35 140 35 140 172 139 173 141 35 140 173 141 34 142 34 142 173 141 174 143 34 142 174 143 33 144 33 144 174 143 175 145 33 144 175 145 32 146 32 146 175 145 176 147 32 146 176 147 31 148 31 148 176 147 177 149 31 148 177 149 30 150 30 150 177 149 178 151 30 150 178 151 29 152 29 152 178 151 179 153 29 152 179 153 28 154 28 154 179 153 180 155 28 154 180 155 27 156 27 156 180 155 181 157 27 156 181 157 26 158 26 158 181 157 182 159 26 158 182 159 25 160 25 160 182 159 183 161 25 160 183 161 24 162 24 162 183 161 184 163 24 162 184 163 23 164 23 164 184 163 185 165 23 164 185 165 22 166 22 166 185 165 186 167 22 166 186 167 21 168 21 168 186 167 187 169 21 168 187 169 20 170 20 170 187 169 188 171 20 170 188 171 19 172 19 172 188 171 189 173 19 172 189 173 18 174 18 174 189 173 190 175 18 174 190 175 17 176 17 176 190 175 191 177 17 176 191 177 16 178 16 178 191 177 192 179 16 178 192 179 15 180 15 180 192 179 193 181 15 180 193 181 14 182 14 182 193 181 194 183 14 182 194 183 13 184 13 184 194 183 195 185 13 184 195 185 12 186 12 186 195 185 196 187 12 186 196 187 11 188 11 188 196 187 197 189 11 188 197 189 10 190 10 190 197 189 198 191 10 190 198 191 9 192 9 192 198 191 199 193 9 192 199 193 8 194 8 194 199 193 200 195 8 194 200 195 7 196 7 196 200 195 201 197 7 196 201 197 6 198 6 198 201 197 202 199 6 198 202 199 5 200 5 200 202 199 203 201 5 200 203 201 4 202 4 202 203 201 204 203 4 202 204 203 3 204 3 204 204 203 205 205 3 204 205 205 2 206 2 206 205 205 206 207 2 206 206 207 1 0 1 0 206 207 207 1 103 208 53 209 0 210 0 210 53 209 52 211 0 210 52 211 1 212 1 212 52 211 51 213 1 212 51 213 2 214 2 214 51 213 50 215 2 214 50 215 3 216 3 216 50 215 49 217 3 216 49 217 4 218 4 218 49 217 48 219 4 218 48 219 5 220 5 220 48 219 47 221 5 220 47 221 6 222 6 222 47 221 46 223 6 222 46 223 7 224 7 224 46 223 45 225 7 224 45 225 8 226 8 226 45 225 44 227 8 226 44 227 9 228 9 228 44 227 43 229 9 228 43 229 10 230 10 230 43 229 42 231 10 230 42 231 11 232 11 232 42 231 41 233 11 232 41 233 12 234 12 234 41 233 40 235 12 234 40 235 13 236 13 236 40 235 39 237 13 236 39 237 14 238 14 238 39 237 38 239 14 238 38 239 15 240 15 240 38 239 37 241 15 240 37 241 16 242 16 242 37 241 36 243 16 242 36 243 17 244 17 244 36 243 35 245 17 244 35 245 18 246 18 246 35 245 34 247 18 246 34 247 19 248 19 248 34 247 33 249 19 248 33 249 20 250 20 250 33 249 32 251 20 250 32 251 21 252 21 252 32 251 31 253 21 252 31 253 22 254 22 254 31 253 30 255 22 254 30 255 23 256 23 256 30 255 29 257 23 256 29 257 24 258 24 258 29 257 28 259 24 258 28 259 25 260 25 260 28 259 27 261 25 260 27 261 26 262 53 209 103 208 54 263 54 263 103 208 102 264 54 263 102 264 55 265 55 265 102 264 101 266 55 265 101 266 56 267 56 267 101 266 100 268 56 267 100 268 57 269 57 269 100 268 99 270 57 269 99 270 58 271 58 271 99 270 98 272 58 271 98 272 59 273 59 273 98 272 97 274 59 273 97 274 60 275 60 275 97 274 96 276 60 275 96 276 61 277 61 277 96 276 95 278 61 277 95 278 62 279 62 279 95 278 94 280 62 279 94 280 63 281 63 281 94 280 93 282 63 281 93 282 64 283 64 283 93 282 92 284 64 283 92 284 65 285 65 285 92 284 91 286 65 285 91 286 66 287 66 287 91 286 90 288 66 287 90 288 67 289 67 289 90 288 89 290 67 289 89 290 68 291 68 291 89 290 88 292 68 291 88 292 69 293 69 293 88 292 87 294 69 293 87 294 70 295 70 295 87 294 86 296 70 295 86 296 71 297 71 297 86 296 85 298 71 297 85 298 72 299 72 299 85 298 84 300 72 299 84 300 73 301 73 301 84 300 83 302 73 301 83 302 74 303 74 303 83 302 82 304 74 303 82 304 75 305 75 305 82 304 81 306 75 305 81 306 76 307 76 307 81 306 80 308 76 307 80 308 77 309 77 309 80 308 79 310 77 309 79 310 78 311 207 312 157 313 104 314 104 314 157 313 156 315 104 314 156 315 105 316 105 316 156 315 155 317 105 316 155 317 106 318 106 318 155 317 154 319 106 318 154 319 107 320 107 320 154 319 153 321 107 320 153 321 108 322 108 322 153 321 152 323 108 322 152 323 109 324 109 324 152 323 151 325 109 324 151 325 110 326 110 326 151 325 150 327 110 326 150 327 111 328 111 328 150 327 149 329 111 328 149 329 112 330 112 330 149 329 148 331 112 330 148 331 113 332 113 332 148 331 147 333 113 332 147 333 114 334 114 334 147 333 146 335 114 334 146 335 115 336 115 336 146 335 145 337 115 336 145 337 116 338 116 338 145 337 144 339 116 338 144 339 117 340 117 340 144 339 143 341 117 340 143 341 118 342 118 342 143 341 142 343 118 342 142 343 119 344 119 344 142 343 141 345 119 344 141 345 120 346 120 346 141 345 140 347 120 346 140 347 121 348 121 348 140 347 139 349 121 348 139 349 122 350 122 350 139 349 138 351 122 350 138 351 123 352 123 352 138 351 137 353 123 352 137 353 124 354 124 354 137 353 136 355 124 354 136 355 125 356 125 356 136 355 135 357 125 356 135 357 126 358 126 358 135 357 134 359 126 358 134 359 127 360 127 360 134 359 133 361 127 360 133 361 128 362 128 362 133 361 132 363 128 362 132 363 129 364 129 364 132 363 131 365 129 364 131 365 130 366 157 313 207 312 158 367 158 367 207 312 206 368 158 367 206 368 159 369 159 369 206 368 205 370 159 369 205 370 160 371 160 371 205 370 204 372 160 371 204 372 161 373 161 373 204 372 203 374 161 373 203 374 162 375 162 375 203 374 202 376 162 375 202 376 163 377 163 377 202 376 201 378 163 377 201 378 164 379 164 379 201 378 200 380 164 379 200 380 165 381 165 381 200 380 199 382 165 381 199 382 166 383 166 383 199 382 198 384 166 383 198 384 167 385 167 385 198 384 197 386 167 385 197 386 168 387 168 387 197 386 196 388 168 387 196 388 169 389 169 389 196 388 195 390 169 389 195 390 170 391 170 391 195 390 194 392 170 391 194 392 171 393 171 393 194 392 193 394 171 393 193 394 172 395 172 395 193 394 192 396 172 395 192 396 173 397 173 397 192 396 191 398 173 397 191 398 174 399 174 399 191 398 190 400 174 399 190 400 175 401 175 401 190 400 189 402 175 401 189 402 176 403 176 403 189 402 188 404 176 403 188 404 177 405 177 405 188 404 187 406 177 405 187 406 178 407 178 407 187 406 186 408 178 407 186 408 179 409 179 409 186 408 185 410 179 409 185 410 180 411 180 411 185 410 184 412 180 411 184 412 181 413 181 413 184 412 183 414 181 413 183 414 182 415</p>
        </triangles>
      </mesh>
    </geometry>
  </library_geometries>
  <library_visual_scenes>
    <visual_scene id="Scene" name="Scene">
      <node id="servicebot_wheels_2-node" name="servicebot_wheels_2" type="NODE">
        <instance_geometry url="#servicebot_wheels_2-mesh">
          <bind_material>
            <technique_common>
              <instance_material symbol="Steel_-_Satin" target="#Steel_-_Satin"/>
            </technique_common>
          </bind_material>
        </instance_geometry>
      </node>
    </visual_scene>
  </library_visual_scenes>
  <scene>
    <instance_visual_scene url="#Scene"/>
  </scene>
</COLLADA>
