<COLLADA xmlns="http://www.collada.org/2005/11/COLLADASchema" version="1.4.1">
  <asset>
    <created>2026-08-10T22:28:48.031617</created>
    <modified>2026-08-10T22:28:48.031617</modified>
    <up_axis>Y_UP</up_axis>
  </asset>
  <library_effects>
    <effect id="18605b659d5142a4b1890185abf1ec64" name="18605b659d5142a4b1890185abf1ec64">
      <profile_COMMON>
        <technique sid="common">
          <phong>
            <emission>
              <color>0.0 0.0 0.0 1.0</color>
            </emission>
            <ambient>
              <color>0.0 0.0 0.0 1.0</color>
            </ambient>
            <diffuse>
              <color>0.792156862745098 0.8196078431372549 0.9333333333333333 1.0</color>
            </diffuse>
            <specular>
              <color>0.0 0.0 0.0 1.0</color>
            </specular>
            <shininess>
              <float>0.0</float>
            </shininess>
            <reflective>
              <color>0.0 0.0 0.0 1.0</color>
            </reflective>
            <reflectivity>
              <float>0.0</float>
            </reflectivity>
            <transparent>
              <color>0.0 0.0 0.0 1.0</color>
            </transparent>
            <transparency>
              <float>1.0</float>
            </transparency>
          </phong>
        </technique>
        <extra>
          <technique profile="GOOGLEEARTH">
            <double_sided>0</double_sided>
          </technique>
        </extra>
      </profile_COMMON>
    </effect>
  </library_effects>
  <library_geometries>
    <geometry id="92c1b0db6e194e14b845b4afb7f91175" name="4e5b334b13374c098efd7cfddc2c8c69">
      <mesh>
        <source id="verts-array">
          <float_array count="936" id="verts-array-array">-0.06239761 0.03012908 0.05006534 -0.05603823 0.03012908 0.05709393 -0.006030631 0.03012908 0.004458858 -0.004671119 0.03012908 0.00586773 -0.04889226 0.03012908 0.06332097 -0.04105988 0.03012908 0.06865919 -0.002993264 0.03012908 0.006876774 -0.07396903 0.03012908 -0.03047257 -0.07705398 0.03012908 -0.0215102 -0.006876795 0.03012908 -0.002993256 -0.007417232 0.03012908 -0.001111408 -0.0008461673 0.03012908 -0.007452112 -0.00902576 0.03012908 -0.07948926 -0.01836388 0.03012908 -0.07786383 -0.001111415 0.03012908 0.007417211 -0.005177407 0.03012908 0.0798323 0.0008461568 0.03012908 0.007452076 0.004300903 0.03012908 0.07988427 0.009025745 0.03012908 0.07948918 -0.03265117 0.03012908 0.07303353 -0.0237841 0.03012908 0.07638272 -0.01458317 0.03012908 0.07865959 -0.006979226 0.03012908 0.002746084 -0.07241153 0.03012908 0.0340083 -0.06788098 0.03012908 0.04233402 -0.007452097 0.03012908 0.0008461641 -0.07837377 0.03012908 0.01604841 -0.07592555 0.03012908 0.02520526 -0.07905723 0.03012908 -0.01224574 -0.07995062 0.03012908 -0.002809484 -0.07972179 0.03012908 0.006666259 -0.06984581 0.03012908 -0.03900725 -0.005867771 0.03012908 -0.004671112 -0.06474204 0.03012908 -0.04699437 -0.002746082 0.03012908 -0.006979191 0.0004390373 0.03012908 -0.07999885 0.001111421 0.03012908 -0.007417198 0.009897702 0.03012908 -0.07938537 0.01921735 0.03012908 -0.0776575 0.002993257 0.03012908 -0.006876802 0.02826726 0.03012908 -0.07483954 0.0791868 0.03012908 -0.01137732 0.07728541 0.03012908 -0.02066315 0.007452111 0.03012908 -0.0008461623 0.00697919 0.03012908 -0.002746077 0.0799767 0.03012908 -0.001931797 0.007417196 0.03012908 0.001111416 0.0796438 0.03012908 0.007540843 0.04030389 0.03012908 0.06910572 0.004458853 0.03012908 0.006030609 0.002746087 0.03012908 0.006979204 -0.05872945 0.03012908 -0.0543218 -0.00445886 0.03012908 -0.006030637 -0.05189245 0.03012908 -0.06088658 -0.02744415 0.03012908 -0.07514532 -0.03613914 0.03012908 -0.07137194 -0.04432697 0.03012908 -0.06659669 0.03692036 0.03012908 -0.070971 0.004671108 0.03012908 -0.005867769 0.04505525 0.03012908 -0.06610623 0.006030635 0.03012908 -0.004458855 0.05932209 0.03012908 -0.05367387 0.05255752 0.03012908 -0.06031336 0.07429903 0.03012908 -0.02965886 0.07026975 0.03012908 -0.03823835 0.06525395 0.03012908 -0.04628091 0.04819433 0.03012908 0.06385378 0.05540823 0.03012908 0.05770554 0.005867761 0.03012908 0.004671073 0.01371889 0.03012908 0.07881489 0.02294429 0.03012908 0.07663917 0.03184758 0.03012908 0.07338752 0.07819291 0.03012908 0.01690764 0.006876799 0.03012908 0.002993259 0.07564435 0.03012908 0.02603716 0.06184437 0.03012908 0.05074717 0.0674123 0.03012908 0.04307651 0.07203396 0.03012908 0.03480105 -0.02744415 -0.01987092 -0.07514532 -0.01836388 -0.01987092 -0.07786383 -0.002746082 -0.01987092 -0.006979191 -0.0008461673 -0.01987092 -0.007452112 -0.07972179 -0.01987092 0.006666259 -0.07995062 -0.01987092 -0.002809484 -0.007452097 -0.01987092 0.0008461641 -0.007417232 -0.01987092 -0.001111408 -0.07837377 -0.01987092 0.01604841 -0.006979226 -0.01987092 0.002746084 -0.07592555 -0.01987092 0.02520526 -0.03613914 -0.01987092 -0.07137194 -0.00445886 -0.01987092 -0.006030637 -0.04432697 -0.01987092 -0.06659669 -0.07241153 -0.01987092 0.0340083 -0.006030631 -0.01987092 0.004458858 -0.06788098 -0.01987092 0.04233402 -0.004671119 -0.01987092 0.00586773 -0.05603823 -0.01987092 0.05709393 -0.06239761 -0.01987092 0.05006534 -0.05189245 -0.01987092 -0.06088658 -0.005867771 -0.01987092 -0.004671112 -0.05872945 -0.01987092 -0.0543218 -0.006876795 -0.01987092 -0.002993256 -0.06984581 -0.01987092 -0.03900725 -0.06474204 -0.01987092 -0.04699437 -0.07905723 -0.01987092 -0.01224574 -0.07705398 -0.01987092 -0.0215102 -0.07396903 -0.01987092 -0.03047257 -0.002993264 -0.01987092 0.006876774 -0.04105988 -0.01987092 0.06865919 -0.04889226 -0.01987092 0.06332097 -0.001111415 -0.01987092 0.007417211 -0.0237841 -0.01987092 0.07638272 -0.03265117 -0.01987092 0.07303353 0.06184437 -0.01987092 0.05074717 0.05540823 -0.01987092 0.05770554 0.005867761 -0.01987092 0.004671073 0.004458853 -0.01987092 0.006030609 0.0674123 -0.01987092 0.04307651 0.006876799 -0.01987092 0.002993259 0.07203396 -0.01987092 0.03480105 0.007452111 -0.01987092 -0.0008461623 0.0791868 -0.01987092 -0.01137732 0.0799767 -0.01987092 -0.001931797 0.009025745 -0.01987092 0.07948918 0.004300903 -0.01987092 0.07988427 0.0008461568 -0.01987092 0.007452076 -0.005177407 -0.01987092 0.0798323 -0.01458317 -0.01987092 0.07865959 0.007417196 -0.01987092 0.001111416 -0.00902576 -0.01987092 -0.07948926 0.0004390373 -0.01987092 -0.07999885 0.001111421 -0.01987092 -0.007417198 0.04819433 -0.01987092 0.06385378 0.04030389 -0.01987092 0.06910572 0.002746087 -0.01987092 0.006979204 0.0796438 -0.01987092 0.007540843 0.07819291 -0.01987092 0.01690764 0.07564435 -0.01987092 0.02603716 0.07728541 -0.01987092 -0.02066315 0.00697919 -0.01987092 -0.002746077 0.07429903 -0.01987092 -0.02965886 0.07026975 -0.01987092 -0.03823835 0.006030635 -0.01987092 -0.004458855 0.06525395 -0.01987092 -0.04628091 0.05932209 -0.01987092 -0.05367387 0.004671108 -0.01987092 -0.005867769 0.05255752 -0.01987092 -0.06031336 0.009897702 -0.01987092 -0.07938537 0.01921735 -0.01987092 -0.0776575 0.002993257 -0.01987092 -0.006876802 0.03184758 -0.01987092 0.07338752 0.02294429 -0.01987092 0.07663917 0.01371889 -0.01987092 0.07881489 0.02826726 -0.01987092 -0.07483954 0.03692036 -0.01987092 -0.070971 0.04505525 -0.01987092 -0.06610623 -0.0008461673 0.03012908 -0.007452112 -0.0008461673 -0.01987092 -0.007452112 0.001111421 0.03012908 -0.007417198 0.001111421 -0.01987092 -0.007417198 0.002993257 0.03012908 -0.006876802 0.002993257 -0.01987092 -0.006876802 0.004671108 0.03012908 -0.005867769 0.004671108 -0.01987092 -0.005867769 0.006030635 0.03012908 -0.004458855 0.006030635 -0.01987092 -0.004458855 0.00697919 0.03012908 -0.002746077 0.00697919 -0.01987092 -0.002746077 0.007452111 0.03012908 -0.0008461623 0.007452111 -0.01987092 -0.0008461623 0.007417196 0.03012908 0.001111416 0.007417196 -0.01987092 0.001111416 0.006876799 0.03012908 0.002993259 0.006876799 -0.01987092 0.002993259 0.005867761 0.03012908 0.004671073 0.005867761 -0.01987092 0.004671073 0.004458853 0.03012908 0.006030609 0.004458853 -0.01987092 0.006030609 0.002746087 0.03012908 0.006979204 0.002746087 -0.01987092 0.006979204 0.0008461568 0.03012908 0.007452076 0.0008461568 -0.01987092 0.007452076 -0.001111415 0.03012908 0.007417211 -0.001111415 -0.01987092 0.007417211 -0.002993264 0.03012908 0.006876774 -0.002993264 -0.01987092 0.006876774 -0.004671119 0.03012908 0.00586773 -0.004671119 -0.01987092 0.00586773 -0.006030631 0.03012908 0.004458858 -0.006030631 -0.01987092 0.004458858 -0.006979226 0.03012908 0.002746084 -0.006979226 -0.01987092 0.002746084 -0.007452097 0.03012908 0.0008461641 -0.007452097 -0.01987092 0.0008461641 -0.007417232 0.03012908 -0.001111408 -0.007417232 -0.01987092 -0.001111408 -0.006876795 0.03012908 -0.002993256 -0.006876795 -0.01987092 -0.002993256 -0.005867771 0.03012908 -0.004671112 -0.005867771 -0.01987092 -0.004671112 -0.00445886 0.03012908 -0.006030637 -0.00445886 -0.01987092 -0.006030637 -0.002746082 0.03012908 -0.006979191 -0.002746082 -0.01987092 -0.006979191 0.01371889 0.03012908 0.07881489 0.009025745 0.03012908 0.07948918 0.009025745 -0.01987092 0.07948918 0.004300903 -0.01987092 0.07988427 0.004300903 0.03012908 0.07988427 -0.005177407 0.03012908 0.0798323 -0.005177407 -0.01987092 0.0798323 -0.01458317 0.03012908 0.07865959 -0.01458317 -0.01987092 0.07865959 -0.0237841 0.03012908 0.07638272 -0.0237841 -0.01987092 0.07638272 -0.03265117 0.03012908 0.07303353 -0.03265117 -0.01987092 0.07303353 -0.04105988 0.03012908 0.06865919 -0.04105988 -0.01987092 0.06865919 -0.04889226 0.03012908 0.06332097 -0.04889226 -0.01987092 0.06332097 -0.05603823 0.03012908 0.05709393 -0.05603823 -0.01987092 0.05709393 -0.06239761 0.03012908 0.05006534 -0.06239761 -0.01987092 0.05006534 -0.06788098 0.03012908 0.04233402 -0.06788098 -0.01987092 0.04233402 -0.07241153 0.03012908 0.0340083 -0.07241153 -0.01987092 0.0340083 -0.07592555 0.03012908 0.02520526 -0.07592555 -0.01987092 0.02520526 -0.07837377 0.03012908 0.01604841 -0.07837377 -0.01987092 0.01604841 -0.07972179 0.03012908 0.006666259 -0.07972179 -0.01987092 0.006666259 -0.07995062 0.03012908 -0.002809484 -0.07995062 -0.01987092 -0.002809484 -0.07905723 0.03012908 -0.01224574 -0.07905723 -0.01987092 -0.01224574 -0.07705398 0.03012908 -0.0215102 -0.07705398 -0.01987092 -0.0215102 -0.07396903 0.03012908 -0.03047257 -0.07396903 -0.01987092 -0.03047257 -0.06984581 0.03012908 -0.03900725 -0.06984581 -0.01987092 -0.03900725 -0.06474204 0.03012908 -0.04699437 -0.06474204 -0.01987092 -0.04699437 -0.05872945 0.03012908 -0.0543218 -0.05872945 -0.01987092 -0.0543218 -0.05189245 0.03012908 -0.06088658 -0.05189245 -0.01987092 -0.06088658 -0.04432697 0.03012908 -0.06659669 -0.04432697 -0.01987092 -0.06659669 -0.03613914 0.03012908 -0.07137194 -0.03613914 -0.01987092 -0.07137194 -0.02744415 0.03012908 -0.07514532 -0.02744415 -0.01987092 -0.07514532 -0.01836388 0.03012908 -0.07786383 -0.01836388 -0.01987092 -0.07786383 -0.00902576 0.03012908 -0.07948926 -0.00902576 -0.01987092 -0.07948926 0.0004390373 0.03012908 -0.07999885 0.0004390373 -0.01987092 -0.07999885 0.009897702 0.03012908 -0.07938537 0.009897702 -0.01987092 -0.07938537 0.01921735 0.03012908 -0.0776575 0.01921735 -0.01987092 -0.0776575 0.02826726 0.03012908 -0.07483954 0.02826726 -0.01987092 -0.07483954 0.03692036 0.03012908 -0.070971 0.03692036 -0.01987092 -0.070971 0.04505525 0.03012908 -0.06610623 0.04505525 -0.01987092 -0.06610623 0.05255752 0.03012908 -0.06031336 0.05255752 -0.01987092 -0.06031336 0.05932209 0.03012908 -0.05367387 0.05932209 -0.01987092 -0.05367387 0.06525395 0.03012908 -0.04628091 0.06525395 -0.01987092 -0.04628091 0.07026975 0.03012908 -0.03823835 0.07026975 -0.01987092 -0.03823835 0.07429903 0.03012908 -0.02965886 0.07429903 -0.01987092 -0.02965886 0.07728541 0.03012908 -0.02066315 0.07728541 -0.01987092 -0.02066315 0.0791868 0.03012908 -0.01137732 0.0791868 -0.01987092 -0.01137732 0.0799767 0.03012908 -0.001931797 0.0799767 -0.01987092 -0.001931797 0.0796438 0.03012908 0.007540843 0.0796438 -0.01987092 0.007540843 0.07819291 0.03012908 0.01690764 0.07819291 -0.01987092 0.01690764 0.07564435 0.03012908 0.02603716 0.07564435 -0.01987092 0.02603716 0.07203396 0.03012908 0.03480105 0.07203396 -0.01987092 0.03480105 0.0674123 0.03012908 0.04307651 0.0674123 -0.01987092 0.04307651 0.06184437 0.03012908 0.05074717 0.06184437 -0.01987092 0.05074717 0.05540823 0.03012908 0.05770554 0.05540823 -0.01987092 0.05770554 0.04819433 0.03012908 0.06385378 0.04819433 -0.01987092 0.06385378 0.04030389 0.03012908 0.06910572 0.04030389 -0.01987092 0.06910572 0.03184758 0.03012908 0.07338752 0.03184758 -0.01987092 0.07338752 0.02294429 0.03012908 0.07663917 0.02294429 -0.01987092 0.07663917 0.01371889 -0.01987092 0.07881489</float_array>
          <technique_common>
            <accessor count="312" source="#verts-array-array" stride="3">
              <param type="float" name="X"/>
              <param type="float" name="Y"/>
              <param type="float" name="Z"/>
            </accessor>
          </technique_common>
        </source>
        <source id="normals-array">
          <float_array count="936" id="normals-array-array">0 1 0 0 1 0 0 1 0 0 1 0 0 1 0 0 1 0 0 1 0 0 1 0 0 1 0 0 1 0 0 1 0 0 1 0 0 1 0 0 1 0 0 1 0 0 1 0 0 1 0 0 1 0 0 1 0 0 1 0 0 1 0 0 1 0 0 1 0 0 1 0 0 1 0 0 1 0 0 1 0 0 1 0 0 1 0 0 1 0 0 1 0 0 1 0 0 1 0 0 1 0 0 1 0 0 1 0 0 1 0 0 1 0 0 1 0 0 1 0 0 1 0 0 1 0 0 1 0 0 1 0 0 1 0 0 1 0 0 1 0 0 1 0 0 1 0 0 1 0 0 1 0 0 1 0 0 1 0 0 1 0 0 1 0 0 1 0 0 1 0 0 1 0 0 1 0 0 1 0 0 1 0 0 1 0 0 1 0 0 1 0 0 1 0 0 1 0 0 1 0 0 1 0 0 1 0 0 1 0 0 1 0 0 1 0 0 1 0 0 1 0 0 1 0 0 1 0 0 1 0 0 1 0 0 -1 0 0 -1 0 0 -1 0 0 -1 0 0 -1 0 0 -1 0 0 -1 0 0 -1 0 0 -1 0 0 -1 0 0 -1 0 0 -1 0 0 -1 0 0 -1 0 0 -1 0 0 -1 0 0 -1 0 0 -1 0 0 -1 0 0 -1 0 0 -1 0 0 -1 0 0 -1 0 0 -1 0 0 -1 0 0 -1 0 0 -1 0 0 -1 0 0 -1 0 0 -1 0 0 -1 0 0 -1 0 0 -1 0 0 -1 0 0 -1 0 0 -1 0 0 -1 0 0 -1 0 0 -1 0 0 -1 0 0 -1 0 0 -1 0 0 -1 0 0 -1 0 0 -1 0 0 -1 0 0 -1 0 0 -1 0 0 -1 0 0 -1 0 0 -1 0 0 -1 0 0 -1 0 0 -1 0 0 -1 0 0 -1 0 0 -1 0 0 -1 0 0 -1 0 0 -1 0 0 -1 0 0 -1 0 0 -1 0 0 -1 0 0 -1 0 0 -1 0 0 -1 0 0 -1 0 0 -1 0 0 -1 0 0 -1 0 0 -1 0 0 -1 0 0 -1 0 0 -1 0 0 -1 0 0 -1 0 0 -1 0 0.1128222 0 0.9936152 0.1128222 0 0.9936152 -0.1481887 0 0.9889591 -0.1481887 0 0.9889591 -0.3991028 0 0.9169062 -0.3991028 0 0.9169062 -0.6228155 0 0.7823687 -0.6228155 0 0.7823687 -0.8040844 0 0.5945151 -0.8040844 0 0.5945151 -0.9305582 0 0.366144 -0.9305582 0 0.366144 -0.9936152 0 0.1128219 -0.9936152 0 0.1128219 -0.9889591 0 -0.1481888 -0.9889591 0 -0.1481888 -0.9169039 0 -0.3991081 -0.9169039 0 -0.3991081 -0.7823669 0 -0.6228178 -0.7823669 0 -0.6228178 -0.5945256 0 -0.8040767 -0.5945256 0 -0.8040767 -0.3661413 0 -0.9305593 -0.3661413 0 -0.9305593 -0.1128216 0 -0.9936153 -0.1128216 0 -0.9936153 0.1481856 0 -0.9889596 0.1481856 0 -0.9889596 0.3991129 0 -0.9169018 0.3991129 0 -0.9169018 0.6228132 0 -0.7823706 0.6228132 0 -0.7823706 0.8040761 0 -0.5945264 0.8040761 0 -0.5945264 0.9305594 0 -0.366141 0.9305594 0 -0.366141 0.9936152 0 -0.1128219 0.9936152 0 -0.1128219 0.9889596 0 0.1481856 0.9889596 0 0.1481856 0.9169036 0 0.3991087 0.9169036 0 0.3991087 0.7823706 0 0.6228131 0.7823706 0 0.6228131 0.5945149 0 0.8040846 0.5945149 0 0.8040846 0.3661435 0 0.9305584 0.3661435 0 0.9305584 0.1860633 0 0.9825378 0.1128219 0 0.9936152 0.1128219 0 0.9936152 0.03896124 0 0.9992407 0.03896124 0 0.9992407 -0.06471629 0 0.9979037 -0.06471629 0 0.9979037 -0.1822889 0 0.983245 -0.1822889 0 0.983245 -0.2973024 0 0.9547834 -0.2973024 0 0.9547834 -0.408141 0 0.9129189 -0.408141 0 0.9129189 -0.5132482 0 0.8582402 -0.5132482 0 0.8582402 -0.6111525 0 0.7915129 -0.6111525 0 0.7915129 -0.7004777 0 0.7136743 -0.7004777 0 0.7136743 -0.7799706 0 0.6258161 -0.7799706 0 0.6258161 -0.8485136 0 0.5291736 -0.8485136 0 0.5291736 -0.9051449 0 0.4251032 -0.9051449 0 0.4251032 -0.9490693 0 0.3150673 -0.9490693 0 0.3150673 -0.9796716 0 0.200608 -0.9796716 0 0.200608 -0.9965223 0 0.08332682 -0.9965223 0 0.08332682 -0.9993832 0 -0.03511787 -0.9993832 0 -0.03511787 -0.9882155 0 -0.1530691 -0.9882155 0 -0.1530691 -0.9631737 0 -0.2688798 -0.9631737 0 -0.2688798 -0.924613 0 -0.3809079 -0.924613 0 -0.3809079 -0.8730735 0 -0.4875887 -0.8730735 0 -0.4875887 -0.8092761 0 -0.5874285 -0.8092761 0 -0.5874285 -0.7341178 0 -0.6790222 -0.7341178 0 -0.6790222 -0.6486536 0 -0.7610838 -0.6486536 0 -0.7610838 -0.5540843 0 -0.8324606 -0.5540843 0 -0.8324606 -0.4517404 0 -0.8921494 -0.4517404 0 -0.8921494 -0.3430569 0 -0.9393146 -0.3430569 0 -0.9393146 -0.2295499 0 -0.9732969 -0.2295499 0 -0.9732969 -0.1128218 0 -0.9936152 -0.1128218 0 -0.9936152 0.00548941 0 -0.9999849 0.00548941 0 -0.9999849 0.1237256 0 -0.9923165 0.1237256 0 -0.9923165 0.2402195 0 -0.9707186 0.2402195 0 -0.9707186 0.3533404 0 -0.9354948 0.3533404 0 -0.9354948 0.4615002 0 -0.8871401 0.4615002 0 -0.8871401 0.5631904 0 -0.8263272 0.5631904 0 -0.8263272 0.6569733 0 -0.7539138 0.6569733 0 -0.7539138 0.7415252 0 -0.670925 0.7415252 0 -0.670925 0.8156713 0 -0.5785157 0.8156713 0 -0.5785157 0.8783724 0 -0.477977 0.8783724 0 -0.477977 0.9287393 0 -0.3707335 0.9287393 0 -0.3707335 0.9660678 0 -0.2582886 0.9660678 0 -0.2582886 0.9898354 0 -0.1422179 0.9898354 0 -0.1422179 0.9997084 0 -0.02414967 0.9997084 0 -0.02414967 0.9955474 0 0.0942621 0.9955474 0 0.0942621 0.9774116 0 0.2113447 0.9774116 0 0.2113447 0.9455549 0 0.3254627 0.9455549 0 0.3254627 0.9004244 0 0.4350125 0.9004244 0 0.4350125 0.8426532 0 0.5384566 0.8426532 0 0.5384566 0.7730537 0 0.6343406 0.7730537 0 0.6343406 0.6926023 0 0.7213197 0.6926023 0 0.7213197 0.60243 0 0.7981717 0.60243 0 0.7981717 0.5037977 0 0.8638217 0.5037977 0 0.8638217 0.3980943 0 0.9173445 0.3980943 0 0.9173445 0.2868029 0 0.9579896 0.2868029 0 0.9579896 0.1860633 0 0.9825378</float_array>
          <technique_common>
            <accessor count="312" source="#normals-array-array" stride="3">
              <param type="float" name="X"/>
              <param type="float" name="Y"/>
              <param type="float" name="Z"/>
            </accessor>
          </technique_common>
        </source>
        <vertices id="verts-array-vertices">
          <input semantic="POSITION" source="#verts-array"/>
        </vertices>
        <triangles count="312" material="material0">
          <input offset="0" semantic="VERTEX" source="#verts-array-vertices"/>
          <input offset="1" semantic="NORMAL" source="#normals-array"/>
          <p>0 0 1 1 2 2 3 3 2 2 1 1 1 1 4 4 3 3 5 5 3 3 4 4 3 3 5 5 6 6 7 7 8 8 9 9 10 10 9 9 8 8 11 11 12 12 13 13 14 14 15 15 16 16 17 17 16 16 15 15 16 16 17 17 18 18 5 5 19 19 6 6 20 20 6 6 19 19 6 6 20 20 14 14 21 21 14 14 20 20 14 14 21 21 15 15 22 22 23 23 2 2 24 24 2 2 23 23 2 2 24 24 0 0 25 25 26 26 22 22 27 27 22 22 26 26 22 22 27 27 23 23 8 8 28 28 10 10 29 29 10 10 28 28 10 10 29 29 25 25 30 30 25 25 29 29 25 25 30 30 26 26 7 7 9 9 31 31 32 32 31 31 9 9 31 31 32 32 33 33 11 11 13 13 34 34 12 12 11 11 35 35 36 36 35 35 11 11 35 35 36 36 37 37 37 37 36 36 38 38 39 39 38 38 36 36 38 38 39 39 40 40 41 41 42 42 43 43 44 44 43 43 42 42 41 41 43 43 45 45 46 46 45 45 43 43 45 45 46 46 47 47 48 48 49 49 50 50 33 33 32 32 51 51 52 52 51 51 32 32 51 51 52 52 53 53 13 13 54 54 34 34 55 55 34 34 54 54 34 34 55 55 52 52 56 56 52 52 55 55 52 52 56 56 53 53 40 40 39 39 57 57 58 58 57 57 39 39 57 57 58 58 59 59 60 60 61 61 58 58 62 62 58 58 61 61 58 58 62 62 59 59 42 42 63 63 44 44 64 64 44 44 63 63 44 44 64 64 60 60 65 65 60 60 64 64 60 60 65 65 61 61 48 48 66 66 49 49 67 67 49 49 66 66 49 49 67 67 68 68 18 18 69 69 16 16 70 70 16 16 69 69 16 16 70 70 50 50 71 71 50 50 70 70 50 50 71 71 48 48 47 47 46 46 72 72 73 73 72 72 46 46 72 72 73 73 74 74 67 67 75 75 68 68 76 76 68 68 75 75 68 68 76 76 73 73 77 77 73 73 76 76 73 73 77 77 74 74 78 78 79 79 80 80 81 81 80 80 79 79 82 82 83 83 84 84 85 85 84 84 83 83 82 82 84 84 86 86 87 87 86 86 84 84 86 86 87 87 88 88 78 78 80 80 89 89 90 90 89 89 80 80 89 89 90 90 91 91 88 88 87 87 92 92 93 93 92 92 87 87 92 92 93 93 94 94 95 95 96 96 93 93 97 97 93 93 96 96 93 93 97 97 94 94 91 91 90 90 98 98 99 99 98 98 90 90 98 98 99 99 100 100 101 101 102 102 99 99 103 103 99 99 102 102 99 99 103 103 100 100 83 83 104 104 85 85 105 105 85 85 104 104 85 85 105 105 101 101 106 106 101 101 105 105 101 101 106 106 102 102 107 107 108 108 95 95 109 109 95 95 108 108 95 95 109 109 96 96 110 110 111 111 107 107 112 112 107 107 111 111 107 107 112 112 108 108 113 113 114 114 115 115 116 116 115 115 114 114 113 113 115 115 117 117 118 118 117 117 115 115 117 117 118 118 119 119 120 120 121 121 122 122 123 123 124 124 125 125 126 126 125 125 124 124 125 125 126 126 110 110 127 127 110 110 126 126 110 110 127 127 111 111 120 120 122 122 128 128 79 79 129 129 81 81 130 130 81 81 129 129 81 81 130 130 131 131 114 114 132 132 116 116 133 133 116 116 132 132 116 116 133 133 134 134 122 122 135 135 128 128 136 136 128 128 135 135 128 128 136 136 118 118 137 137 118 118 136 136 118 118 137 137 119 119 121 121 120 120 138 138 139 139 138 138 120 120 138 138 139 139 140 140 140 140 139 139 141 141 142 142 141 141 139 139 141 141 142 142 143 143 143 143 142 142 144 144 145 145 144 144 142 142 144 144 145 145 146 146 130 130 147 147 131 131 148 148 131 131 147 147 131 131 148 148 149 149 133 133 150 150 134 134 151 151 134 134 150 150 134 134 151 151 125 125 152 152 125 125 151 151 125 125 152 152 123 123 148 148 153 153 149 149 154 154 149 149 153 153 149 149 154 154 145 145 155 155 145 145 154 154 145 145 155 155 146 146 156 156 157 157 158 158 159 159 158 158 157 157 158 158 159 159 160 160 161 161 160 160 159 159 160 160 161 161 162 162 163 163 162 162 161 161 162 162 163 163 164 164 165 165 164 164 163 163 164 164 165 165 166 166 167 167 166 166 165 165 166 166 167 167 168 168 169 169 168 168 167 167 168 168 169 169 170 170 171 171 170 170 169 169 170 170 171 171 172 172 173 173 172 172 171 171 172 172 173 173 174 174 175 175 174 174 173 173 174 174 175 175 176 176 177 177 176 176 175 175 176 176 177 177 178 178 179 179 178 178 177 177 178 178 179 179 180 180 181 181 180 180 179 179 180 180 181 181 182 182 183 183 182 182 181 181 182 182 183 183 184 184 185 185 184 184 183 183 184 184 185 185 186 186 187 187 186 186 185 185 186 186 187 187 188 188 189 189 188 188 187 187 188 188 189 189 190 190 191 191 190 190 189 189 190 190 191 191 192 192 193 193 192 192 191 191 192 192 193 193 194 194 195 195 194 194 193 193 194 194 195 195 196 196 197 197 196 196 195 195 196 196 197 197 198 198 199 199 198 198 197 197 198 198 199 199 200 200 201 201 200 200 199 199 200 200 201 201 202 202 203 203 202 202 201 201 202 202 203 203 156 156 157 157 156 156 203 203 204 204 205 205 206 206 206 206 205 205 207 207 205 205 208 208 207 207 209 209 207 207 208 208 207 207 209 209 210 210 211 211 210 210 209 209 210 210 211 211 212 212 213 213 212 212 211 211 212 212 213 213 214 214 215 215 214 214 213 213 214 214 215 215 216 216 217 217 216 216 215 215 216 216 217 217 218 218 219 219 218 218 217 217 218 218 219 219 220 220 221 221 220 220 219 219 220 220 221 221 222 222 223 223 222 222 221 221 222 222 223 223 224 224 225 225 224 224 223 223 224 224 225 225 226 226 227 227 226 226 225 225 226 226 227 227 228 228 229 229 228 228 227 227 228 228 229 229 230 230 231 231 230 230 229 229 230 230 231 231 232 232 233 233 232 232 231 231 232 232 233 233 234 234 235 235 234 234 233 233 234 234 235 235 236 236 237 237 236 236 235 235 236 236 237 237 238 238 239 239 238 238 237 237 238 238 239 239 240 240 241 241 240 240 239 239 240 240 241 241 242 242 243 243 242 242 241 241 242 242 243 243 244 244 245 245 244 244 243 243 244 244 245 245 246 246 247 247 246 246 245 245 246 246 247 247 248 248 249 249 248 248 247 247 248 248 249 249 250 250 251 251 250 250 249 249 250 250 251 251 252 252 253 253 252 252 251 251 252 252 253 253 254 254 255 255 254 254 253 253 254 254 255 255 256 256 257 257 256 256 255 255 256 256 257 257 258 258 259 259 258 258 257 257 258 258 259 259 260 260 261 261 260 260 259 259 260 260 261 261 262 262 263 263 262 262 261 261 262 262 263 263 264 264 265 265 264 264 263 263 264 264 265 265 266 266 267 267 266 266 265 265 266 266 267 267 268 268 269 269 268 268 267 267 268 268 269 269 270 270 271 271 270 270 269 269 270 270 271 271 272 272 273 273 272 272 271 271 272 272 273 273 274 274 275 275 274 274 273 273 274 274 275 275 276 276 277 277 276 276 275 275 276 276 277 277 278 278 279 279 278 278 277 277 278 278 279 279 280 280 281 281 280 280 279 279 280 280 281 281 282 282 283 283 282 282 281 281 282 282 283 283 284 284 285 285 284 284 283 283 284 284 285 285 286 286 287 287 286 286 285 285 286 286 287 287 288 288 289 289 288 288 287 287 288 288 289 289 290 290 291 291 290 290 289 289 290 290 291 291 292 292 293 293 292 292 291 291 292 292 293 293 294 294 295 295 294 294 293 293 294 294 295 295 296 296 297 297 296 296 295 295 296 296 297 297 298 298 299 299 298 298 297 297 298 298 299 299 300 300 301 301 300 300 299 299 300 300 301 301 302 302 303 303 302 302 301 301 302 302 303 303 304 304 305 305 304 304 303 303 304 304 305 305 306 306 307 307 306 306 305 305 306 306 307 307 308 308 309 309 308 308 307 307 308 308 309 309 310 310 204 204 310 310 309 309 310 310 204 204 311 311 206 206 311 311 204 204</p>
        </triangles>
      </mesh>
    </geometry>
  </library_geometries>
  <library_materials>
    <material id="df913c0831e5471fac6a17803e062ae9" name="defaultmaterial">
      <instance_effect url="#18605b659d5142a4b1890185abf1ec64"/>
    </material>
  </library_materials>
  <library_visual_scenes>
    <visual_scene id="scene">
      <node id="node0" name="node0">
        <instance_geometry url="#92c1b0db6e194e14b845b4afb7f91175">
          <bind_material>
            <technique_common>
              <instance_material symbol="material0" target="#df913c0831e5471fac6a17803e062ae9"/>
            </technique_common>
          </bind_material>
        </instance_geometry>
      </node>
    </visual_scene>
  </library_visual_scenes>
  <scene>
    <instance_visual_scene url="#scene"/>
  </scene>
</COLLADA>
